<svg xmlns="http://www.w3.org/2000/svg" width="48.548" height="52" viewBox="0 0 48.548 52"><g transform="translate(5914.001 -819)"><path d="M18590.988-5269.245h10.479v6.493s.045,1.033-1.873,1.721a12.2,12.2,0,0,1-4.621.33l-3.187-.57-.8-2.392v-5.582Z" transform="translate(-24486.004 6130.925)" fill="#fff" opacity="0.3"/><path d="M18599.539-5267.644l1.154.439,2.232,2.951a2.429,2.429,0,0,1-1.477,2.791c-.75.276-.066.921-2.432.758l.521-.279v-6.66Z" transform="translate(-24489.084 6112.157)" fill="#fff" opacity="0.3"/><path d="M18600.615-5265.288l2.152-.518.377,2.1a2.43,2.43,0,0,1-1.475,2.792c-.754.276,3.266,1.137.9.974l-1.955-.974-.859-.479v-2.313Z" transform="translate(-24492.117 6104.576)" fill="#fff" opacity="0.3"/><g transform="translate(-5914.001 819)"><g transform="translate(23.531)"><g transform="translate(0)"><path d="M249.43,0a.743.743,0,0,0-.743.743V4.648a.743.743,0,0,0,1.485,0V.743A.743.743,0,0,0,249.43,0Z" transform="translate(-248.687)" fill="#fff"/></g></g><g transform="translate(43.157 23.531)"><path d="M446.575,231.692H442.67a.743.743,0,0,0,0,1.485h3.905a.743.743,0,0,0,0-1.485Z" transform="translate(-441.927 -231.692)" fill="#fff"/></g><g transform="translate(0 23.531)"><g transform="translate(0)"><path d="M21.643,231.692H17.738a.743.743,0,0,0,0,1.485h3.905a.743.743,0,0,0,0-1.485Z" transform="translate(-16.995 -231.692)" fill="#fff"/></g></g><g transform="translate(37.409 37.409)"><g transform="translate(0)"><path d="M389.358,371.313l-2.762-2.761a.743.743,0,1,0-1.05,1.05l2.762,2.761a.743.743,0,1,0,1.05-1.05Z" transform="translate(-385.329 -368.334)" fill="#fff"/></g></g><g transform="translate(6.892 6.892)"><path d="M88.886,70.839l-2.762-2.761a.743.743,0,0,0-1.05,1.05l2.761,2.761a.743.743,0,0,0,1.05-1.05Z" transform="translate(-84.857 -67.86)" fill="#fff"/></g><g transform="translate(37.409 6.892)"><path d="M389.357,68.079a.743.743,0,0,0-1.05,0l-2.762,2.761a.743.743,0,0,0,1.05,1.05l2.762-2.761A.743.743,0,0,0,389.357,68.079Z" transform="translate(-385.328 -67.861)" fill="#fff"/></g><g transform="translate(6.892 37.409)"><path d="M88.885,368.551a.743.743,0,0,0-1.05,0l-2.762,2.761a.743.743,0,0,0,1.05,1.05l2.762-2.762A.743.743,0,0,0,88.885,368.551Z" transform="translate(-84.856 -368.334)" fill="#fff"/></g><g transform="translate(10.373 9.077)"><path d="M146.68,100.629a.743.743,0,0,0-1.459.282,12.52,12.52,0,0,1,.225,2.368,12.3,12.3,0,0,1-2.509,7.484,20.494,20.494,0,0,0-4.183,11.174H127.308a20.562,20.562,0,0,0-.517-3.547,20.151,20.151,0,0,0-.644-2.168,19.719,19.719,0,0,0-1.048-2.4,19.227,19.227,0,0,0-1.878-2.934A12.416,12.416,0,1,1,143.59,96.744a.743.743,0,0,0,1.262-.783,13.892,13.892,0,0,0-11.823-6.582h-.1A13.9,13.9,0,0,0,122.049,111.8a17.736,17.736,0,0,1,1.732,2.707,18.229,18.229,0,0,1,.968,2.218,18.644,18.644,0,0,1,.6,2.008,19.089,19.089,0,0,1,.49,3.5,1.252,1.252,0,0,0,1.25,1.194v5.652a3.23,3.23,0,0,0,3.226,3.226h5.437a3.23,3.23,0,0,0,3.226-3.226v-5.652a1.253,1.253,0,0,0,1.25-1.194,19,19,0,0,1,3.9-10.569,13.776,13.776,0,0,0,2.81-8.381A14.018,14.018,0,0,0,146.68,100.629Zm-10.93,30.186h-5.437a1.742,1.742,0,0,1-1.723-1.5h8.882A1.742,1.742,0,0,1,135.75,130.815Zm1.741-6.278h-3.007a.743.743,0,1,0,0,1.485h3.007v1.8h-8.918v-1.8h1.257a.743.743,0,0,0,0-1.485h-1.257v-1.115h8.918Z" transform="translate(-119.13 -89.378)" fill="#fff"/></g><g transform="translate(19.805 17.612)"><path d="M217.3,180.424l-.067-.024v-4.313l.109.008a4.492,4.492,0,0,1,1.845.54,1.494,1.494,0,0,0,.59.213c.521,0,.794-.689.794-1.059,0-.5-.589-.82-1.083-1a7.461,7.461,0,0,0-2.157-.368l-.1,0v-.648c0-.182-.257-.367-.509-.367-.3,0-.489.19-.489.367v.682l-.091.01c-1.136.12-3.777.718-3.777,3.686,0,2.543,2.019,3.261,3.8,3.895l.068.024v4.966l-.109-.009a4.136,4.136,0,0,1-2.568-1.155c-.284-.242-.509-.433-.723-.433-.43,0-.835.6-.835,1.059,0,.911,1.611,2.26,4.135,2.3l.1,0v.731c0,.176.187.367.489.367.252,0,.509-.185.509-.367v-.781l.088-.012a3.858,3.858,0,0,0,3.618-4.093C220.937,181.985,219.14,181.1,217.3,180.424Zm-.943-.335-.137-.052c-1.105-.417-2.02-.862-2.02-2.09,0-1.018.707-1.644,2.043-1.811l.114-.014Zm.874,6.895-.12.022v-4.572l.142.061a2.475,2.475,0,0,1,1.853,2.373A2.043,2.043,0,0,1,217.23,186.984Z" transform="translate(-212 -173.407)" fill="#fff"/></g></g></g></svg>