<svg xmlns="http://www.w3.org/2000/svg" width="51.606" height="52" viewBox="0 0 51.606 52"><g transform="translate(-1706 -3182.992)"><path d="M35.26-40.116,32.8-35.3,14.722-24.177c-1.711-5.669-7.034-3.128-2.14-8.023,2.565-2.565,7.876-4.327,12.623-6.311C29.34-40.24,32.93-42.445,35.26-40.116Zm-3.637,4.172" transform="translate(1720.793 3227.956)" fill="#fff" opacity="0.3"/><path d="M31.109-27.144l.486,4.09c-2.483.341-9.617,1.146-4.723-3.749C29.437-29.368,28.779-29.474,31.109-27.144Z" transform="translate(1720.481 3239.615)" fill="#fff" opacity="0.3"/><path d="M31.109-27.144l.486,4.09c-2.483.341-9.617,1.146-4.723-3.749C29.437-29.368,28.779-29.474,31.109-27.144Z" transform="translate(1700.152 3252.126)" fill="#fff" opacity="0.3"/><path d="M30.01-35.192,33.3-31.019c-1.81,5.29-15.263,6.728-10.368,1.834C25.5-31.75,27.68-37.521,30.01-35.192Z" transform="translate(1692.013 3238.748)" fill="#fff" opacity="0.3"/><g transform="translate(1706 3182.992)"><g transform="translate(33.107 22.953)"><circle cx="1.016" cy="1.016" r="1.016" fill="#fff"/></g><g transform="translate(18.926 28.309)"><path d="M203.664,278.75a1.016,1.016,0,0,0-1.153.856c-.278,1.874-1.862,3.429-4.238,4.159-2.54.78-6.065.518-8.216-1.823a1.016,1.016,0,1,0-1.5,1.374,8.95,8.95,0,0,0,4.89,2.672,10.827,10.827,0,0,0,2.126.207,11.283,11.283,0,0,0,3.292-.488c3.143-.965,5.256-3.134,5.651-5.8A1.016,1.016,0,0,0,203.664,278.75Z" transform="translate(-188.293 -278.738)" fill="#fff"/></g><g transform="translate(0)"><path d="M50.353,19.339a12.575,12.575,0,0,0-7.461-4.085A57.621,57.621,0,0,0,50.167,9.58c2.753-2.623,3.676-4.467,2.906-5.8-.858-1.486-3.334-1.476-7.793.033a77.994,77.994,0,0,0-13.216,6.234c-.821.474-1.635.96-2.431,1.449a5.455,5.455,0,0,1,1.1-5.223,3.882,3.882,0,0,0,.569-4.1A4.1,4.1,0,0,0,27.455,0h-.048A25.209,25.209,0,0,0,10.342,6.884a25.6,25.6,0,0,0-8.3,16.567A26.087,26.087,0,0,0,27.939,52a27.708,27.708,0,0,0,10.876-2.12,24.475,24.475,0,0,0,8.01-5.459,24.125,24.125,0,0,0,4.955-7.412,21.494,21.494,0,0,0,1.764-8.025A14.165,14.165,0,0,0,50.353,19.339Zm-20.6-5.527c1.075-.678,2.194-1.353,3.328-2.008A78.3,78.3,0,0,1,45.406,5.917c3.911-1.385,5.513-1.294,5.886-1.116-.032.236-.326,1.288-2.892,3.651a64.622,64.622,0,0,1-8.812,6.535c-1.119.709-2.283,1.413-3.461,2.093-1.623.937-3.246,1.813-4.838,2.615a15.217,15.217,0,0,0-2.88-5.021Q29.069,14.242,29.751,13.811Zm-.3,6.786a52.08,52.08,0,0,1-7.6,3,5.068,5.068,0,0,0-1.533-2.7,52.228,52.228,0,0,1,6.395-5.077,13.241,13.241,0,0,1,2.739,4.78Zm22.065,8.358c-.145,10.106-9.2,21.014-23.574,21.014A24.056,24.056,0,0,1,4.067,23.625c1.026-11.907,11.5-21.594,23.34-21.594h.046a2.107,2.107,0,0,1,2.022,1.022,1.851,1.851,0,0,1-.335,1.958,7.455,7.455,0,0,0-1.255,7.581c-.544.351-1.08.7-1.6,1.053l-.007,0a54.1,54.1,0,0,0-7.771,6.171,5.051,5.051,0,0,0-4.173.409c-2.11,1.219-4.881,6.9-5.415,8.025A1.016,1.016,0,0,0,9.756,29.7c.561.045,2.155.16,3.93.16,2.153,0,4.571-.169,5.728-.838A5.066,5.066,0,0,0,21.836,25.7a53.728,53.728,0,0,0,9.269-3.65c1.975-.961,4.006-2.043,6.036-3.215,1.03-.595,2.049-1.208,3.038-1.827H40.2C48.663,17.257,51.593,23.342,51.513,28.955Zm-31.6-4.136A3.043,3.043,0,0,1,18.4,27.267c-.96.555-4.26.63-6.969.506,1.247-2.407,2.961-5.227,3.922-5.783a3.048,3.048,0,0,1,4.565,2.829Z" transform="translate(-1.94)" fill="#fff"/></g><g transform="translate(13.811 6.281)"><path d="M141.984,61.84a4.062,4.062,0,1,0,4.063,4.062A4.067,4.067,0,0,0,141.984,61.84Zm0,6.094a2.031,2.031,0,1,1,2.031-2.031A2.034,2.034,0,0,1,141.984,67.934Z" transform="translate(-137.922 -61.84)" fill="#fff"/></g><g transform="translate(8.733 33.571)"><path d="M91.985,330.55a4.063,4.063,0,1,0,4.062,4.063A4.067,4.067,0,0,0,91.985,330.55Zm0,6.094a2.031,2.031,0,1,1,2.031-2.031A2.034,2.034,0,0,1,91.985,336.644Z" transform="translate(-87.922 -330.55)" fill="#fff"/></g><g transform="translate(18.889 39.665)"><path d="M191.984,390.55a4.062,4.062,0,1,0,4.063,4.062A4.067,4.067,0,0,0,191.984,390.55Zm0,6.094a2.031,2.031,0,1,1,2.031-2.031A2.034,2.034,0,0,1,191.984,396.644Z" transform="translate(-187.922 -390.55)" fill="#fff"/></g><g transform="translate(31.076 37.634)"><path d="M311.984,370.55a4.063,4.063,0,1,0,4.063,4.063A4.067,4.067,0,0,0,311.984,370.55Zm0,6.094a2.031,2.031,0,1,1,2.031-2.031A2.034,2.034,0,0,1,311.984,376.644Z" transform="translate(-307.922 -370.55)" fill="#fff"/></g><g transform="translate(39.201 27.478)"><path d="M391.985,270.55a4.063,4.063,0,1,0,4.063,4.063A4.067,4.067,0,0,0,391.985,270.55Zm0,6.094a2.031,2.031,0,1,1,2.031-2.031A2.034,2.034,0,0,1,391.985,276.644Z" transform="translate(-387.922 -270.55)" fill="#fff"/></g></g></g></svg>