<svg xmlns="http://www.w3.org/2000/svg" width="52" height="45.878" viewBox="0 0 52 45.878"><g transform="translate(-1803 -2908)"><g transform="translate(1803 2908)"><path d="M30.813-26.151v1.9c-.076-.282-2.561,1.409-3.3-1.639C30.105-28.49,28.455-28.509,30.813-26.151Z" transform="translate(-6.202 32.306)" fill="#fff" opacity="0.3"/><path d="M30.813-26.151v1.9c-.076-.282-2.561,1.409-3.3-1.639C30.105-28.49,28.455-28.509,30.813-26.151Z" transform="translate(-14.601 33.069)" fill="#fff" opacity="0.3"/><path d="M30.813-26.151v1.9c-.076-.282-2.561,1.409-3.3-1.639C30.105-28.49,28.455-28.509,30.813-26.151Z" transform="translate(-23 32.306)" fill="#fff" opacity="0.3"/><path d="M121.413,192.167a.855.855,0,0,1-.556-.205l-5.555-4.73a.859.859,0,0,1,0-1.307l5.555-4.73a.858.858,0,1,1,1.113,1.307l-4.787,4.077,4.787,4.077a.859.859,0,0,1-.557,1.512Zm0,0" transform="translate(-100.896 -158.792)" fill="#fff"/><path d="M250.566,192.167a.859.859,0,0,1-.557-1.512l4.787-4.077-4.787-4.077a.858.858,0,0,1,1.113-1.307l5.555,4.73a.859.859,0,0,1,0,1.307l-5.555,4.73A.855.855,0,0,1,250.566,192.167Zm0,0" transform="translate(-219.083 -158.792)" fill="#fff"/><path d="M189.814,171.18a.873.873,0,0,1-.178-.019.859.859,0,0,1-.663-1.017l3.462-16.438a.858.858,0,0,1,1.68.354L190.653,170.5A.859.859,0,0,1,189.814,171.18Zm0,0" transform="translate(-165.78 -134.258)" fill="#fff" opacity="0.3"/><path d="M46.236,45.878H5.764A5.771,5.771,0,0,1,0,40.114V5.764A5.771,5.771,0,0,1,5.764,0H46.236A5.771,5.771,0,0,1,52,5.764v34.35A5.771,5.771,0,0,1,46.236,45.878ZM5.764,1.717A4.052,4.052,0,0,0,1.717,5.764v34.35a4.052,4.052,0,0,0,4.047,4.047H46.236a4.052,4.052,0,0,0,4.047-4.047V5.764a4.052,4.052,0,0,0-4.047-4.047Zm0,0" fill="#fff"/><path d="M51.142,99.807H.858a.858.858,0,1,1,0-1.717H51.142a.858.858,0,0,1,0,1.717Zm0,0" transform="translate(0 -86.06)" fill="#fff"/><path d="M100.166,39.723a2.717,2.717,0,1,1,2.717-2.717A2.72,2.72,0,0,1,100.166,39.723Zm0-3.717a1,1,0,1,0,1,1A1,1,0,0,0,100.166,36.006Zm0,0" transform="translate(-85.498 -30.084)" fill="#fff"/><path d="M32.1,39.508a2.717,2.717,0,1,1,2.717-2.717A2.72,2.72,0,0,1,32.1,39.508Zm0-3.717a1,1,0,1,0,1,1A1,1,0,0,0,32.1,35.791Zm0,0" transform="translate(-25.783 -29.895)" fill="#fff"/><path d="M168.232,39.937a2.717,2.717,0,1,1,2.717-2.717A2.72,2.72,0,0,1,168.232,39.937Zm0-3.717a1,1,0,1,0,1,1A1,1,0,0,0,168.232,36.221Zm0,0" transform="translate(-145.217 -30.272)" fill="#fff"/></g></g></svg>