<svg xmlns="http://www.w3.org/2000/svg" width="52" height="52" viewBox="0 0 52 52"><g transform="translate(5913.999 -536)"><path d="M30.064,30.409c-7.856-2.94-4.762-3.769-5.118-10.454-.132-2.41-1.695-5.233,0-8.058.75-1.255,3.629-.253,5.118-1.742Zm1.088-20.254" transform="translate(-5910.211 542.08)" fill="#fff" opacity="0.3"/><path d="M32.955,19.455c-7.856-2.94-7.654,4.18-8.009-2.5-.132-2.41-1.695-2.228,0-5.053.75-1.255,1.73,3.6,3.219,2.112Zm-1.8-9.3" transform="translate(-5896.221 559.567)" fill="#fff" opacity="0.3"/><path d="M28.917,24.928c-8.168.544-3.757,1.712-4.112-4.972-.132-2.41-2.919.066-1.224-2.759.75-1.255,3.848.836,5.337-.653ZM31.01,10.155" transform="translate(-5931.054 551.698)" fill="#fff" opacity="0.3"/><path d="M29.119,24.928c-5.53-.761-3.757,1.712-4.112-4.972-.132-2.41-1.037,2.051.657-.774.75-1.255,1.4,1.218,2.888-.271Zm2.094-14.773" transform="translate(-5938.251 540.331)" fill="#fff" opacity="0.3"/><path d="M403.4,85.332a2.317,2.317,0,1,0,2.329,2.317A2.323,2.323,0,0,0,403.4,85.332Zm0,0" transform="translate(-6271.143 469.439)" fill="#fff" opacity="0.3"/><path d="M402.231,85.332A1.158,1.158,0,1,0,403.4,86.49,1.161,1.161,0,0,0,402.231,85.332Zm0,0" transform="translate(-6276.389 470.882)" fill="#fff" opacity="0.3"/><g transform="translate(-5913.999 536)"><path d="M402.366,85.332a1.3,1.3,0,1,0,1.3,1.3A1.3,1.3,0,0,0,402.366,85.332Zm0,0" transform="translate(-360.333 -76.666)" fill="#fff"/><path d="M375.347.255a.867.867,0,0,0-1.225,0l-6.934,6.933a.868.868,0,0,0-.254.613v6.066a.867.867,0,0,0,.867.867h6.067a.866.866,0,0,0,.613-.254l6.933-6.934a.867.867,0,0,0,0-1.225ZM373.509,13h-4.841V8.16l6.067-6.067,4.841,4.841Zm0,0" transform="translate(-329.667 -0.001)" fill="#fff"/><path d="M.867,159.8h2.6v.111a3.356,3.356,0,0,0,2.6,3.262v7.894a.867.867,0,0,0,.866.867h5.2a.867.867,0,0,0,.867-.867V167.6h.874a2.6,2.6,0,0,0,2.593-2.593v-1.834a3.351,3.351,0,0,0,2.39-2.133l14.591,6.485a.867.867,0,0,0,1.218-.792v-20.8a.867.867,0,0,0-1.218-.792l-14.591,6.485a3.349,3.349,0,0,0-3.146-2.226H6.823a3.359,3.359,0,0,0-3.356,3.356v.111H.867a.867.867,0,0,0-.867.866v5.2a.867.867,0,0,0,.867.867Zm28.6-10.993,3.467-1.54V165.4l-3.467-1.54Zm-10.4,4.623,8.667-3.853v13.516l-8.667-3.857Zm-7.8,13.3V170.2H7.8v-6.934h3.467Zm3.467-1.726a.86.86,0,0,1-.86.86H13v-2.6h1.733ZM5.2,158.933v-6.177a1.624,1.624,0,0,1,1.623-1.622h8.888a1.624,1.624,0,0,1,1.623,1.622v7.155a1.624,1.624,0,0,1-1.623,1.622H6.823A1.624,1.624,0,0,1,5.2,159.911ZM1.733,154.6H3.467v3.467H1.733Zm0,0" transform="translate(0 -130.333)" fill="#fff"/><path d="M357.726,333.3a.867.867,0,0,0-1.225,0l-6.129,6.129a.867.867,0,0,0,0,1.225l8.58,8.58a.867.867,0,0,0,1.226,0l6.128-6.128a.867.867,0,0,0,0-1.225Zm5.7,8.147-4.891-.375-.376-4.891Zm-3.859,5.947-7.355-7.353,4.184-4.183.469,6.087a.867.867,0,0,0,.8.8l6.089.468Zm0,0" transform="translate(-314.559 -299.223)" fill="#fff"/><path d="M176.607,18.713a6.055,6.055,0,0,0,4.853-9.693l5.294-5.294L185.528,2.5l-5.294,5.293a6.067,6.067,0,1,0-3.626,10.92Zm0-10.4a4.333,4.333,0,1,1-4.333,4.333A4.333,4.333,0,0,1,176.607,8.313Zm0,0" transform="translate(-153.207 -2.246)" fill="#fff"/><path d="M359.269,183.563H363.6v.866a.867.867,0,0,0,.867.867H371.4a.867.867,0,0,0,.866-.867v-4.317a3.477,3.477,0,0,0-2.323-3.27,3.467,3.467,0,1,0-4.02,0,3.479,3.479,0,0,0-1.453.989A3.464,3.464,0,0,0,363.39,177a2.6,2.6,0,1,0-3.041,0,3.459,3.459,0,0,0-1.946,3.1v2.6A.867.867,0,0,0,359.269,183.563Zm8.667-11.267a1.733,1.733,0,1,1-1.733,1.733A1.733,1.733,0,0,1,367.936,172.3Zm-2.6,10.4v-2.583a1.753,1.753,0,0,1,1.75-1.75h1.7a1.752,1.752,0,0,1,1.75,1.75v3.45h-5.2Zm-3.467-8.667a.867.867,0,1,1-.867.866A.867.867,0,0,1,361.869,174.029Zm-1.733,6.066a1.733,1.733,0,0,1,3.467,0v1.734h-3.467Zm0,0" transform="translate(-322.002 -153.229)" fill="#fff"/><path d="M154.6,349.867h-3.467a.867.867,0,0,0-.613.254l-5.2,5.2a.867.867,0,0,0,0,1.225l9.533,9.533a.867.867,0,0,0,1.226,0l6.934-6.933a.867.867,0,0,0,0-1.226l-7.8-7.8A.867.867,0,0,0,154.6,349.867Zm.867,14.375-8.308-8.308,4.333-4.334h2.749l6.933,6.933Zm0,0" transform="translate(-130.334 -314.334)" fill="#fff"/><path d="M198.77,389.967l3.467-3.467,1.225,1.225L200,391.192Zm0,0" transform="translate(-178.582 -347.246)" fill="#fff"/><path d="M224.363,415.564l3.467-3.467,1.226,1.226-3.467,3.467Zm0,0" transform="translate(-201.576 -370.244)" fill="#fff"/></g></g></svg>