<svg xmlns="http://www.w3.org/2000/svg" width="113.94" height="113.969" viewBox="0 0 113.94 113.969">
  <g id="paper-plane" transform="translate(0.5 0.529)">
    <g id="Group_14748" data-name="Group 14748" transform="translate(11.912 0)">
      <g id="Group_14747" data-name="Group 14747" transform="translate(0 0)">
        <path id="Path_67663" data-name="Path 67663" d="M153.915.29A2.206,2.206,0,0,0,151.7.307l-40.423,23.9a2.206,2.206,0,1,0,2.245,3.8l29-17.15L88.5,66.911l-26.869-8.22L96.7,37.956a2.206,2.206,0,0,0-2.245-3.8l-39.37,23.28a2.206,2.206,0,0,0,.477,4.008l32.089,9.817,14.157,25.767a.52.52,0,0,0,.046.069,2.2,2.2,0,0,0,3.429.446l16.278-15.909,30.619,9.367a2.206,2.206,0,0,0,2.851-2.109V2.206A2.206,2.206,0,0,0,153.915.29Zm-51.99,72.334a2.207,2.207,0,0,0-.392,1.256V87.373l-9.667-17.6,42.776-44.384Zm4.019,18.105V76.861l10.806,3.306Zm44.672-4.815L107.271,72.654l43.345-62.572Z" transform="translate(-53.999 0)" fill="#54aab4" stroke="#d6f4f6" stroke-width="1"/>
      </g>
    </g>
    <g id="Group_14750" data-name="Group 14750" transform="translate(11.912 76.024)">
      <g id="Group_14749" data-name="Group 14749">
        <path id="Path_67664" data-name="Path 67664" d="M78.357,345.294a2.207,2.207,0,0,0-3.12,0L54.645,365.887a2.206,2.206,0,0,0,3.12,3.12l20.592-20.592A2.206,2.206,0,0,0,78.357,345.294Z" transform="translate(-53.999 -344.648)" fill="#54aab4" stroke="#d6f4f6" stroke-width="1"/>
      </g>
    </g>
    <g id="Group_14752" data-name="Group 14752" transform="translate(0 103.455)">
      <g id="Group_14751" data-name="Group 14751" transform="translate(0)">
        <path id="Path_67665" data-name="Path 67665" d="M8.839,469.646a2.207,2.207,0,0,0-3.12,0L.646,474.72a2.206,2.206,0,1,0,3.12,3.119l5.073-5.073A2.206,2.206,0,0,0,8.839,469.646Z" transform="translate(0 -469.001)" fill="#54aab4" stroke="#d6f4f6" stroke-width="1"/>
      </g>
    </g>
    <g id="Group_14754" data-name="Group 14754" transform="translate(27.701 108.398)">
      <g id="Group_14753" data-name="Group 14753">
        <path id="Path_67666" data-name="Path 67666" d="M129.345,492.056a2.2,2.2,0,1,0,.646,1.56A2.223,2.223,0,0,0,129.345,492.056Z" transform="translate(-125.58 -491.41)" fill="#54aab4" stroke="#d6f4f6" stroke-width="1"/>
      </g>
    </g>
    <g id="Group_14756" data-name="Group 14756" transform="translate(33.206 91.986)">
      <g id="Group_14755" data-name="Group 14755">
        <path id="Path_67667" data-name="Path 67667" d="M165.207,417.652a2.205,2.205,0,0,0-3.119,0L151.18,428.56a2.206,2.206,0,0,0,3.12,3.119l10.907-10.907A2.205,2.205,0,0,0,165.207,417.652Z" transform="translate(-150.534 -417.006)" fill="#54aab4" stroke="#d6f4f6" stroke-width="1"/>
      </g>
    </g>
    <g id="Group_14758" data-name="Group 14758" transform="translate(70.82 91.148)">
      <g id="Group_14757" data-name="Group 14757">
        <path id="Path_67668" data-name="Path 67668" d="M335.756,413.857a2.206,2.206,0,0,0-3.119,0L321.7,424.794a2.206,2.206,0,1,0,3.119,3.12l10.937-10.937A2.206,2.206,0,0,0,335.756,413.857Z" transform="translate(-321.053 -413.211)" fill="#54aab4" stroke="#d6f4f6" stroke-width="1"/>
      </g>
    </g>
    <g id="Group_14760" data-name="Group 14760" transform="translate(58.771 29.422)">
      <g id="Group_14759" data-name="Group 14759">
        <path id="Path_67669" data-name="Path 67669" d="M270.2,134.026a2.2,2.2,0,1,0,.646,1.562A2.223,2.223,0,0,0,270.2,134.026Z" transform="translate(-266.43 -133.38)" fill="#54aab4" stroke="#d6f4f6" stroke-width="1"/>
      </g>
    </g>
  </g>
</svg>
