<svg xmlns="http://www.w3.org/2000/svg" xmlns:xlink="http://www.w3.org/1999/xlink" width="123.001" height="85.343" viewBox="0 0 123.001 85.343">
  <defs>
    <filter id="Ellipse_2605" x="64.502" y="18.5" width="30" height="30" filterUnits="userSpaceOnUse">
      <feOffset dy="3" input="SourceAlpha"/>
      <feGaussianBlur stdDeviation="3" result="blur"/>
      <feFlood flood-color="#fd7f49" flood-opacity="0.373"/>
      <feComposite operator="in" in2="blur"/>
      <feComposite in="SourceGraphic"/>
    </filter>
  </defs>
  <g id="Group_15800" data-name="Group 15800" transform="translate(-130.498 -837.5)">
    <path id="america" d="M116.484,3.766h-3.766a3.515,3.515,0,0,0-2.486,1.03l-17.8,17.8H89.1L86,10.194a3.515,3.515,0,0,0-3.41-2.663H74.813V3.516A3.516,3.516,0,0,0,71.3,0H11.046A3.516,3.516,0,0,0,7.711,2.4L.18,25a3.5,3.5,0,0,0-.145,1.609L3.8,52.966a3.518,3.518,0,0,0,1.371,2.315l15.063,11.3a3.517,3.517,0,0,0,2.109.7H35.95l2.736,2.736a3.518,3.518,0,0,0,2.487,1.03h5.65l6.487,9.731a3.516,3.516,0,0,0,2.925,1.566h7.531a3.515,3.515,0,0,0,3.335-2.4l2.964-8.893H73.18A3.515,3.515,0,0,0,76.324,69.1l.912-1.822H88.668L98.936,77.549a3.516,3.516,0,0,0,4.971,0l7.531-7.532a3.515,3.515,0,0,0,.439-4.436l-4.963-7.445a2.136,2.136,0,0,1,.266-2.69l4.257-4.257a3.516,3.516,0,0,0,1.03-2.486V38.236l7.16-14.32A3.516,3.516,0,0,0,120,22.343V7.281A3.515,3.515,0,0,0,116.484,3.766Zm-3.516,17.748-7.16,14.32a3.513,3.513,0,0,0-.371,1.573v9.84l-3.226,3.226a9.184,9.184,0,0,0-1.146,11.563l3.365,5.047-3.008,3.008L92.611,61.28a3.517,3.517,0,0,0-2.487-1.03H75.062a3.517,3.517,0,0,0-3.145,1.944l-.911,1.822H67.531a3.516,3.516,0,0,0-3.335,2.4l-2.964,8.893H58.116l-6.487-9.732A3.516,3.516,0,0,0,48.7,64.015H42.628L39.892,61.28a3.516,3.516,0,0,0-2.486-1.03H23.515L10.556,50.53l-3.442-24.1,6.467-19.4h54.2v4.015A3.516,3.516,0,0,0,71.3,14.562h8.552l3.1,12.4a3.515,3.515,0,0,0,3.41,2.662h7.532A3.515,3.515,0,0,0,96.376,28.6L112.968,12Zm0,0" transform="translate(132 839)" fill="#0f6671" stroke="#8ddfe7" stroke-width="3"/>
    <g transform="matrix(1, 0, 0, 1, 130.5, 837.5)" filter="url(#Ellipse_2605)">
      <circle id="Ellipse_2605-2" data-name="Ellipse 2605" cx="6" cy="6" r="6" transform="translate(73.5 24.5)" fill="#fd692a"/>
    </g>
  </g>
</svg>
