<svg xmlns="http://www.w3.org/2000/svg" width="106.948" height="107.622" viewBox="0 0 106.948 107.622">
  <g id="skype" transform="translate(-1.227 0.502)">
    <g id="Group_14762" data-name="Group 14762" transform="translate(1.761 0)">
      <g id="Group_14761" data-name="Group 14761" transform="translate(0 0)">
        <path id="Path_67670" data-name="Path 67670" d="M105.36,62.588c.76-4.2,3.941-27.051-13.07-43.767C90.932,17.228,75.458.008,46.889,3.893c-3.8-1.978-21.949-10.1-37.264,5.4-.144.149-13.982,14.926-4.612,33.96-.675,3.03-2.4,13.569,2.536,26.5.267.959,6.811,23.54,31.568,30.92a60.233,60.233,0,0,0,24.632,2.906,37.092,37.092,0,0,0,14.382,3.041,27.609,27.609,0,0,0,20.918-9.188C99.974,96.491,112.743,83,105.36,62.588ZM95.948,94.4l-.057.059c-12.837,13.889-30.048,5.342-30.774,4.974l-.569-.292-.635.064a56.98,56.98,0,0,1-23.4-2.637C17.954,89.841,11.784,68.8,11.664,68.4c-5.272-13.823-2.3-24.707-2.271-24.811l.239-.833-.4-.769c-8.642-16.582,3.025-29.172,3.5-29.671,14.661-14.84,31.907-4.757,32.63-4.323l.669.405.773-.114c27.276-4.022,41.636,12.688,42.233,13.4l.15.164C105.929,38.225,101.049,62.074,101,62.313l-.133.626.224.6C108.023,81.876,96.471,93.875,95.948,94.4Z" transform="translate(-1.761 0)" fill="#0f6671" stroke="#95dde6" stroke-width="1"/>
      </g>
    </g>
    <g id="Group_14764" data-name="Group 14764" transform="translate(23.662 17.135)">
      <g id="Group_14763" data-name="Group 14763">
        <path id="Path_67671" data-name="Path 67671" d="M151.324,110.89l-.185-.05c-12.437-2.222-19.718-5.558-19.718-5.558h0c-1.084-.687-2.707-1.764-2.819-3a4.136,4.136,0,0,1,1.434-2.837c12.085-6.164,17.448,1.383,17.676,1.712,3.395,5.021,6.865,7.771,10.314,8.172a6.423,6.423,0,0,0,4.97-1.378,9.945,9.945,0,0,0,3.763-7.6c.011-5.542-4.943-9.981-5.112-10.129-14.492-13.513-37.048-5.76-37.965-5.432-18.266,6.136-14.464,23.284-14.424,23.456l.072.24c5.408,14.958,28.184,16.9,29.149,16.98,10.883.859,11.345,6.064,11.364,6.356.392,5.478-9.228,7.105-10.585,7.3-9.5-.527-11.732-4.229-11.736-4.229l-.22-.36c-4.967-6.572-6.9-8.851-11.146-8.961a8.6,8.6,0,0,0-6.754,2.544c-2.843,3.063-2.476,7.584-2.425,8.089l.049.286c4.189,17.512,27.229,17.364,28.014,17.3,1.346.082,2.635.121,3.88.121,28.806,0,30.787-20.939,30.8-21.119C170.961,119.995,158.23,112.869,151.324,110.89ZM165.4,132.414c-.066.766-1.928,18.765-30.266,17.055-.188,0-20.344.169-23.851-13.813-.027-.571-.059-3.13,1.3-4.589a4.255,4.255,0,0,1,3.465-1.158c1.973.051,2.8.629,7.706,7.118.715,1.226,4.153,5.867,15.491,6.438l.176.009.178-.021c5.683-.646,15.148-3.888,14.577-11.821-.006-.379-.322-9.3-15.351-10.49-.209-.017-20.8-1.761-25.364-14-.286-1.413-2.309-13.572,11.639-18.258.207-.073,21.007-7.234,33.64,4.544.038.033,3.7,3.364,3.689,6.912a5.784,5.784,0,0,1-2.326,4.388,2.439,2.439,0,0,1-1.573.294c-1.2-.139-3.746-1.144-7.217-6.277-.076-.112-7.713-11.247-23.519-3.027l-.37.243c-.358.291-3.48,2.95-3.166,6.671.209,2.507,1.881,4.666,5.12,6.5.311.146,7.793,3.609,20.852,5.953C151.553,115.495,166.563,120.42,165.4,132.414Z" transform="translate(-106.934 -82.281)" fill="#0f6671" stroke="#95dde6" stroke-width="1"/>
      </g>
    </g>
  </g>
</svg>
