<svg xmlns="http://www.w3.org/2000/svg" width="72" height="72" viewBox="0 0 72 72"><g transform="translate(-590 -2244)"><circle cx="6.509" cy="6.509" r="6.509" transform="translate(594.339 2289.563)" fill="#95dde6"/><ellipse cx="5.424" cy="6.509" rx="5.424" ry="6.509" transform="translate(620.376 2289.563)" fill="#95dde6"/><ellipse cx="5.424" cy="6.509" rx="5.424" ry="6.509" transform="translate(646.412 2289.563)" fill="#95dde6"/><g transform="translate(590 2244)"><path d="M18162.77-6148.858s2.516,2.9,2.516,2.419,1.066,1.938,1.066,1.938l3.2,2.324,1.938,1.937,1.449.678,1.746,2.518,2.324-.484,1.742-3.68-4.066-2.033-2.324-3.2-2.809-2.9-1.551-2.034-3.48-1.743Z" transform="translate(-18141.572 6170.218)" fill="#95dde6"/><g transform="translate(0 0)"><path d="M66.759,58.8a6.953,6.953,0,0,0-3.05-12.4V45.129A5.813,5.813,0,0,0,57.9,39.323H38.161V35.091a3.6,3.6,0,0,0,5.794-2.749,3.615,3.615,0,0,0,3.484-3.484,3.615,3.615,0,0,0,3.484-3.484A3.617,3.617,0,0,0,53.358,19.2l-.242-.242A11.009,11.009,0,0,0,37,4.024,11,11,0,0,0,21.468,19.607a3.6,3.6,0,0,0,2.771,5.767,3.615,3.615,0,0,0,3.484,3.484,3.615,3.615,0,0,0,3.484,3.484,3.567,3.567,0,0,0,4.632,3.334v3.646H16.1a5.813,5.813,0,0,0-5.806,5.806v1.266a6.953,6.953,0,0,0-3.05,12.4A10.463,10.463,0,0,0,1,68.355V73H21.9V68.355A10.463,10.463,0,0,0,15.662,58.8a6.953,6.953,0,0,0-3.05-12.4V45.129A3.488,3.488,0,0,1,16.1,41.645H35.839v4.75a6.953,6.953,0,0,0-3.05,12.4,10.463,10.463,0,0,0-6.241,9.559V73h20.9V68.355A10.463,10.463,0,0,0,41.211,58.8a6.953,6.953,0,0,0-3.05-12.4v-4.75H57.9a3.488,3.488,0,0,1,3.484,3.484v1.266a6.953,6.953,0,0,0-3.05,12.4A10.463,10.463,0,0,0,52.1,68.355V73H73V68.355A10.463,10.463,0,0,0,66.759,58.8ZM44.566,3.323A8.683,8.683,0,0,1,51.458,17.3l-5.34-5.34a9.379,9.379,0,0,0,.994-.848L45.47,9.469a6.728,6.728,0,0,1-4.788,1.982H38.842l-1.982,1.982a1.156,1.156,0,0,1-.822.34H31.674a.481.481,0,0,1-.34-.821l7.085-7.085a8.639,8.639,0,0,1,6.147-2.546Zm-15.132,0a8.626,8.626,0,0,1,5.912,2.333l-5.655,5.655A2.8,2.8,0,0,0,31.674,16.1h4.363A3.463,3.463,0,0,0,38.5,15.076l1.3-1.3h.879a9.079,9.079,0,0,0,3.332-.634l7.7,7.7a1.3,1.3,0,0,1-1.842,1.842l-2.763-2.763-1.642,1.642,2.763,2.763a1.3,1.3,0,0,1-1.842,1.842L43.627,23.4l-1.642,1.642,2.763,2.763a1.3,1.3,0,0,1-1.842,1.842l-2.763-2.763L38.5,28.531l2.763,2.763a1.3,1.3,0,0,1-1.842,1.842l-.388-.388a3.613,3.613,0,0,0-3.209-5.025,3.615,3.615,0,0,0-3.484-3.484,3.615,3.615,0,0,0-3.484-3.484,3.622,3.622,0,0,0-3.612-3.5,3.583,3.583,0,0,0-2.134.71A8.683,8.683,0,0,1,29.434,3.323Zm-6.37,18.44a1.3,1.3,0,0,1,.381-.921l.88-.88A1.3,1.3,0,0,1,26.167,21.8l-.88.88a1.3,1.3,0,0,1-2.223-.921Zm3.484,3.484a1.3,1.3,0,0,1,.381-.921l.88-.88a1.3,1.3,0,0,1,1.842,1.842l-.88.88a1.3,1.3,0,0,1-2.223-.921Zm3.484,3.484a1.3,1.3,0,0,1,.381-.921l.88-.88a1.3,1.3,0,0,1,1.842,1.842l-.88.88a1.3,1.3,0,0,1-2.223-.921Zm4.786,4.786a1.3,1.3,0,0,1-.921-2.223l.88-.88a1.3,1.3,0,0,1,1.842,1.842l-.88.88A1.3,1.3,0,0,1,34.818,33.516ZM19.581,68.355v2.323H17.258V66.032H14.935v4.645H7.968V66.032H5.645v4.645H3.323V68.355a8.129,8.129,0,1,1,16.258,0ZM16.1,53.258a4.645,4.645,0,1,1-4.645-4.645A4.65,4.65,0,0,1,16.1,53.258Zm29.032,15.1v2.323H42.806V66.032H40.484v4.645H33.516V66.032H31.194v4.645H28.871V68.355a8.129,8.129,0,1,1,16.258,0Zm-3.484-15.1A4.645,4.645,0,1,1,37,48.613,4.65,4.65,0,0,1,41.645,53.258Zm16.258,0A4.645,4.645,0,1,1,62.548,57.9,4.65,4.65,0,0,1,57.9,53.258ZM70.677,70.677H68.355V66.032H66.032v4.645H59.065V66.032H56.742v4.645H54.419V68.355a8.129,8.129,0,1,1,16.258,0Z" transform="translate(-1 -1)" fill="#4b56de"/><path d="M38,38h2.323v2.323H38Z" transform="translate(4.968 4.968)" fill="#4b56de"/><path d="M42,38h2.323v2.323H42Z" transform="translate(5.613 4.968)" fill="#4b56de"/><path d="M46,38h2.323v2.323H46Z" transform="translate(6.258 4.968)" fill="#4b56de"/><path d="M16,38h2.323v2.323H16Z" transform="translate(1.419 4.968)" fill="#4b56de"/><path d="M20,38h2.323v2.323H20Z" transform="translate(2.065 4.968)" fill="#4b56de"/><path d="M24,38h2.323v2.323H24Z" transform="translate(2.71 4.968)" fill="#4b56de"/></g></g></g></svg>