<svg xmlns="http://www.w3.org/2000/svg" width="72" height="72" viewBox="0 0 72 72"><g transform="translate(-1414 -2017.681)"><path d="M18996.2-6362.359l1.58,1.557s-12.039-1.519-11.793,0l-2.555-6.744,2.555-6.225,4.377-2.768,4.561,2.768,4.492,7.6Z" transform="translate(-17557.467 8415.123)" fill="#95dde6"/><path d="M15.771,13.5,14.35,16.6S2.311,15,2.556,16.6L0,9.486,2.556,2.92,6.933,0l4.561,2.92,4.011,5.106Z" transform="translate(1466.826 2066.329) rotate(112)" fill="#95dde6"/><g transform="translate(1414 2017.681)"><g transform="translate(54.754 47.75)"><path d="M140.506,115.164a1.411,1.411,0,0,0-1.981-.189l-.017.014a1.406,1.406,0,0,0,1.8,2.162l.017-.014A1.4,1.4,0,0,0,140.506,115.164Z" transform="translate(-138.003 -114.654)" fill="#95dde6"/></g><g transform="translate(19.407 16.123)"><path d="M140.506,115.164a1.411,1.411,0,0,0-1.981-.189l-.017.014a1.406,1.406,0,0,0,1.8,2.162l.017-.014A1.4,1.4,0,0,0,140.506,115.164Z" transform="translate(-138.003 -114.654)" fill="#95dde6"/></g><g transform="translate(24.284 10.687)"><path d="M184.4,76a25.08,25.08,0,0,0-10.917,2.469,1.406,1.406,0,1,0,1.214,2.537,22.293,22.293,0,0,1,9.7-2.193,22.516,22.516,0,0,1,21.138,30.228,1.406,1.406,0,1,0,2.641.966A25.329,25.329,0,0,0,184.4,76Z" transform="translate(-172.685 -76)" fill="#404cdc"/></g><g transform="translate(0 0)"><g transform="translate(0 0)"><path d="M71.537,43.976l-1.623-1.465a8.771,8.771,0,0,1,0-13.021l1.623-1.465a1.407,1.407,0,0,0,.357-1.583l-3.759-9.064a1.4,1.4,0,0,0-1.371-.866l-2.186.112a8.765,8.765,0,0,1-9.2-9.2l.112-2.186a1.406,1.406,0,0,0-.866-1.371L45.559.107a1.407,1.407,0,0,0-1.583.357L42.511,2.087A8.786,8.786,0,0,1,36,4.98,8.786,8.786,0,0,1,29.49,2.087L28.025.464A1.407,1.407,0,0,0,26.442.107L17.378,3.867a1.406,1.406,0,0,0-.866,1.371l.112,2.186a8.765,8.765,0,0,1-9.2,9.2l-2.186-.112a1.406,1.406,0,0,0-1.371.866L.108,26.442a1.406,1.406,0,0,0,.357,1.583L2.087,29.49A8.785,8.785,0,0,1,4.981,36a8.786,8.786,0,0,1-2.894,6.511L.464,43.976a1.406,1.406,0,0,0-.357,1.583l3.759,9.064a1.406,1.406,0,0,0,1.371.866l2.186-.112a8.765,8.765,0,0,1,9.2,9.2l-.112,2.186a1.406,1.406,0,0,0,.866,1.371l9.064,3.759a1.407,1.407,0,0,0,1.583-.357l1.465-1.623a8.772,8.772,0,0,1,13.021,0l1.465,1.623a1.406,1.406,0,0,0,1.583.357l9.064-3.759a1.406,1.406,0,0,0,.866-1.371l-.112-2.186a8.765,8.765,0,0,1,9.2-9.2l2.186.112a1.4,1.4,0,0,0,1.371-.866l3.759-9.064A1.405,1.405,0,0,0,71.537,43.976Zm-5.621,8.653-1.2-.061A11.577,11.577,0,0,0,52.568,64.72l.061,1.2-7.23,3-.8-.886a11.584,11.584,0,0,0-17.2,0l-.8.886-7.23-3,.061-1.2A11.578,11.578,0,0,0,7.28,52.567l-1.2.061-3-7.23.886-.8A11.6,11.6,0,0,0,7.793,36a11.6,11.6,0,0,0-3.821-8.6l-.886-.8,3-7.23,1.2.061A11.577,11.577,0,0,0,19.433,7.28l-.061-1.2,7.23-3,.8.886A11.6,11.6,0,0,0,36,7.793a11.6,11.6,0,0,0,8.6-3.821l.8-.886,7.23,3-.061,1.2A11.577,11.577,0,0,0,64.721,19.433l1.2-.061,3,7.23-.886.8a11.584,11.584,0,0,0,0,17.2l.886.8Z" transform="translate(0 0)" fill="#404cdc"/></g></g><g transform="translate(11.266 21.02)"><path d="M118.287,177.965l-5.157-5.157a5.262,5.262,0,0,0-6.5-.762l-2.612,1.608-8.364-8.364,1.608-2.612a5.262,5.262,0,0,0-.762-6.5l-5.157-5.157a5.286,5.286,0,0,0-7.467,0,12.86,12.86,0,0,0,0,18.167l16.247,16.247a12.846,12.846,0,0,0,18.166,0A5.286,5.286,0,0,0,118.287,177.965Zm-1.989,5.478a10.138,10.138,0,0,1-1.357,1.136l-4.982-4.982a1.406,1.406,0,0,0-1.989,1.989l4.314,4.315a10.046,10.046,0,0,1-10.175-2.456L85.862,167.2a10.042,10.042,0,0,1-2.451-10.17l4.8,4.8a1.406,1.406,0,0,0,1.989-1.989l-5.474-5.474a10.043,10.043,0,0,1,1.134-1.358,2.47,2.47,0,0,1,3.49,0l5.157,5.157a2.459,2.459,0,0,1,.356,3.039l-2.191,3.558a1.406,1.406,0,0,0,.2,1.732l9.936,9.936a1.407,1.407,0,0,0,1.732.2l3.558-2.191a2.459,2.459,0,0,1,3.039.356l5.157,5.157A2.471,2.471,0,0,1,116.3,183.443Z" transform="translate(-80.117 -149.474)" fill="#404cdc"/></g></g></g></svg>