<svg xmlns="http://www.w3.org/2000/svg" width="71.922" height="72" viewBox="0 0 71.922 72"><g transform="translate(-830 -2198)"><path d="M18441.34-6182.36c-.92.919-2.984,7.242-2.984,7.242s5.508,3.906,6.316,9.2l5.752-13.566h-4.6Z" transform="translate(-17553.932 8409.926)" fill="#95dde6"/><path d="M18441.949-6182.829c-.922.921-1.859,13.8-1.859,13.8a8.363,8.363,0,0,0,6.629,1.857l3.008-3.008-4.242-9.212Z" transform="translate(-17590.787 8382.234)" fill="#95dde6"/><path d="M18439.2-6178.683c-.922.919,1.119,8.822,1.119,8.822s1.8-.441,5.6-1.149h1.5l.893-6.328Z" transform="translate(-17569.41 8403.461)" fill="#95dde6"/><g transform="translate(830 2198)"><g transform="translate(0 0)"><path d="M62.119,52.8a16.125,16.125,0,0,0-.029-6.12l5.5-13.264a.193.193,0,0,0,0-.026,22.536,22.536,0,0,1,3.858-6.7,1.789,1.789,0,0,0,.443-1.638l-2.254-9.732a1.173,1.173,0,0,0-.12-.29c-.01-.018-.013-.04-.023-.056s-.052-.058-.076-.089a1.21,1.21,0,0,0-.169-.2,1.115,1.115,0,0,0-.131-.079,1.223,1.223,0,0,0-.186-.113,1.186,1.186,0,0,0-.281-.068c-.028,0-.052-.018-.079-.02a1.2,1.2,0,0,0-.661.148c-.018.01-.04.013-.058.024h-.012l-8.473,5.288a1.79,1.79,0,0,0-.847,1.476,22.525,22.525,0,0,1-2.017,7.48v.013l-2.747,6.64a16.1,16.1,0,0,0-4.286-1.548,64.834,64.834,0,0,0,.622-11.8,13.1,13.1,0,0,0,2.978-9.614C52.317,5.52,46,.469,45.727.257a1.2,1.2,0,0,0-1.9,1.252c.618,2.321.083,4.77-4.482,9.806A7.022,7.022,0,0,0,37.7,18.967a9.316,9.316,0,0,0,1.709,2.76c-.29,1.854-.518,3.61-.676,5.32a60.1,60.1,0,0,0-.209,8.51,16.328,16.328,0,0,0-2.988,2.082l-5.82-24.888c0-.025-.024-.043-.031-.066a1.135,1.135,0,0,0-.084-.232L23.654,1.475a2.771,2.771,0,0,0-5.206,1.219L18,15.168a1.239,1.239,0,0,0,.03.268v.054l5.938,25.34a13.513,13.513,0,0,0-2.774.414L14.659,25.47a2.425,2.425,0,0,0-3.132-1.283L1.544,28.32a2.407,2.407,0,0,0-1.3,3.136L9.1,52.825A9.594,9.594,0,0,0,9.6,72H62.4a9.6,9.6,0,1,0-.278-19.2ZM60.9,21.739l5.03-3.139-1.781,4.3a1.2,1.2,0,1,0,2.218.919l1.781-4.3,1.333,5.776A23.733,23.733,0,0,0,66,31.039a4.935,4.935,0,0,1-6.708-2.774A23.7,23.7,0,0,0,60.9,21.739Zm-2.76,9.421a7.309,7.309,0,0,0,2.992,2.178,7.616,7.616,0,0,0,2.936.619,6.349,6.349,0,0,0,.727-.044l-3.829,9.24a16.286,16.286,0,0,0-5.153-6.371ZM41.7,22.59l6.029.368c.037,1.121.024,2.28-.013,3.457a25.226,25.226,0,0,1-6.012-.29c-.151-.022-.3-.038-.449-.059.12-1.13.266-2.275.443-3.476Zm-.572-9.664c3.186-3.515,4.837-6.218,5.221-8.76a16.049,16.049,0,0,1,4.331,8.6,10.752,10.752,0,0,1-2.429,7.814q-3.556-.216-7.033-.432a5.005,5.005,0,0,1-.092-7.224Zm-.091,15.532.348.046a34.181,34.181,0,0,0,4.672.4c.5,0,1.02-.04,1.544-.08-.109,1.544-.288,3.157-.515,4.824-.3-.016-.587-.044-.884-.044a16.072,16.072,0,0,0-5.318.916,57.905,57.905,0,0,1,.151-6.058ZM31.751,42.491,28.317,27.866a1.2,1.2,0,0,0-2.336.547l3.085,13.163a13.591,13.591,0,0,0-2.616-.652L21.183,18.449a5.687,5.687,0,0,0,2.35.511c.076,0,.156-.011.233-.014l.848,3.623a1.2,1.2,0,1,0,2.336-.547L26.1,18.4a5.683,5.683,0,0,0,2.1-1.6l5.354,22.895A16.1,16.1,0,0,0,31.751,42.491Zm-7.332-26.04a3.984,3.984,0,0,1-4.007-1.6l.152-4.226a7.062,7.062,0,0,0,1.266.12,5.347,5.347,0,0,0,1.219-.136A6.113,6.113,0,0,0,25.274,9.5l2.021,3.73a3.98,3.98,0,0,1-2.876,3.226ZM21.132,2.432a.374.374,0,0,1,.413.185l2.573,4.758a4.1,4.1,0,0,1-1.62.9,4.08,4.08,0,0,1-1.849-.088l.2-5.407A.372.372,0,0,1,21.132,2.432ZM12.447,26.4l.917,2.215-4.44,1.838a1.2,1.2,0,0,0,.462,2.306,1.218,1.218,0,0,0,.46-.091l4.44-1.84.918,2.218-2.221.92a1.2,1.2,0,0,0,.461,2.309,1.221,1.221,0,0,0,.458-.091l2.221-.92.918,2.218L12.6,39.324a1.2,1.2,0,0,0,.461,2.309,1.216,1.216,0,0,0,.458-.091l4.44-1.838.971,2.344a13.931,13.931,0,0,0-7.77,9.457L2.46,30.533ZM62.4,69.6H9.6a7.2,7.2,0,0,1,0-14.4,7.069,7.069,0,0,1,2.053.3A1.2,1.2,0,0,0,13.2,54.371a11.4,11.4,0,0,1,18.24-8.891,1.2,1.2,0,0,0,1.84-.54,13.8,13.8,0,0,1,26.114,8.909,1.2,1.2,0,0,0,1.4,1.526,7.492,7.492,0,0,1,1.6-.175,7.2,7.2,0,0,1,0,14.4Z" transform="translate(-0.012 0)" fill="#404cdc"/><path d="M38.884,17.11a1.2,1.2,0,0,0,.96-.474,9,9,0,0,0,1.6-7.066,1.2,1.2,0,1,0-2.318.618,6.666,6.666,0,0,1-1.19,5,1.2,1.2,0,0,0,.96,1.92Z" transform="translate(7.523 1.731)" fill="#404cdc"/><path d="M39.968,46.392a5.9,5.9,0,0,0-2.574.6A7.2,7.2,0,0,0,24.956,54.06a1.2,1.2,0,0,0,1.1.73,1.187,1.187,0,0,0,.47-.1,1.2,1.2,0,0,0,.634-1.574,4.888,4.888,0,0,1-.4-1.927,4.8,4.8,0,0,1,4.8-4.8,4.752,4.752,0,0,1,4.338,2.76,1.305,1.305,0,0,0,.084.113,1.223,1.223,0,0,0,.064.12c.022.026.053.038.077.064a1.685,1.685,0,0,0,.378.276,1.2,1.2,0,0,0,.216.067,1.1,1.1,0,0,0,.226.035,1.474,1.474,0,0,0,.458-.077.911.911,0,0,0,.095-.023,1.087,1.087,0,0,0,.112-.083,1.245,1.245,0,0,0,.126-.065,3.539,3.539,0,0,1,2.227-.787,3.6,3.6,0,0,1,3.264,2.094,1.2,1.2,0,1,0,2.184-1A6,6,0,0,0,39.968,46.392Z" transform="translate(4.861 8.808)" fill="#404cdc"/><path d="M18.421,39.062C18.24,39.121,14,40.587,14,45a1.2,1.2,0,0,0,2.4,0,4.126,4.126,0,0,1,2.786-3.664,1.2,1.2,0,0,0-.766-2.28Z" transform="translate(2.785 7.799)" fill="#404cdc"/><path d="M31.908,39.164a1.172,1.172,0,0,0,.292.036,1.2,1.2,0,0,0,1.163-.908A5.118,5.118,0,0,1,38.206,34.4,1.2,1.2,0,1,0,38.2,32a7.475,7.475,0,0,0-7.164,5.708A1.2,1.2,0,0,0,31.908,39.164Z" transform="translate(6.185 6.4)" fill="#404cdc"/></g></g></g></svg>