<svg xmlns="http://www.w3.org/2000/svg" width="72.523" height="72" viewBox="0 0 72.523 72"><g transform="translate(-1131 -2023.526)"><path d="M18712.43-6363.317l1.416,4.11,1.891-.25.539-4.754-.318-1.253-.541-1.787s-2.273-1.924-2.463,1S18712.43-6363.317,18712.43-6363.317Z" transform="translate(-17547.232 8452.303)" fill="#95dde6"/><path d="M18712.43-6363.551l1.416,4.111,1.891-.25-.32-4.713v-1.293l-.893-1.547s-.488-1.379-.678,1.547S18712.43-6363.551,18712.43-6363.551Z" transform="translate(-17564.84 8452.531)" fill="#95dde6"/><path d="M18712.43-6363.636l1.416,4.109,1.891-.249.539-4.755-.318-1.252-1.006-1.121s-.551-1.8-.748,1.121S18712.43-6363.636,18712.43-6363.636Z" transform="translate(-17529.635 8452.618)" fill="#95dde6"/><g transform="translate(1131 2023.526)"><path d="M18706.2-6357.557l7.779-2.892,4.391,2.892,4.393-3.691,4.391,3.691,4.889-3.691-9.279-8.78s-1.895-1.9-4.891,1.2S18706.2-6357.557,18706.2-6357.557Z" transform="translate(-18684.721 6389.736)" fill="#95dde6"/><path d="M18712.365-6361.7l2.379.556.834-.556,3.521.556,5.869-1.022-2.559-3.948,1.764-3.858s-8.811-2.21-11.809.882S18712.365-6361.7,18712.365-6361.7Z" transform="translate(-18675.771 6372.032)" fill="#95dde6"/><path d="M18712.207-6363.915v.708l.922.8,5.609-.8,3.061,2.975.463-4.219-2.381-2.687s-3.764-2.4-6.752.691S18712.207-6363.915,18712.207-6363.915Z" transform="translate(-18680.697 6407.536)" fill="#95dde6"/><path d="M18712.207-6364.3v.709l.922.8,5.609-.8,1.662.8,1.025-1.931-1.545-2.8a4.343,4.343,0,0,1-3.088.691c-.719-.111-2.271-1.441-3.664,0C18710.133-6363.738,18712.207-6364.3,18712.207-6364.3Z" transform="translate(-18698.293 6413.199)" fill="#95dde6"/><path d="M18711.906-6363.915v.708l3.324-2.023,3.205,2.023,3.293.4.229-1.642-2.383-2.687s-3.758-2.4-6.75.691c-.867.893.057.837-.23,1.767C18712.219-6364.277,18711.906-6363.915,18711.906-6363.915Z" transform="translate(-18662.791 6414.577)" fill="#95dde6"/><g transform="translate(0 0)"><path d="M337.109,333.477l-1.6-.538a1.527,1.527,0,0,1-.624-.4,1.546,1.546,0,0,1-.43-1.077V329.82l.476-.29a3.375,3.375,0,0,0,1.608-2.866v-5.307a3.707,3.707,0,0,0-3.7-3.7h-3.265a3.707,3.707,0,0,0-3.7,3.7v5.307a3.376,3.376,0,0,0,1.608,2.866l.478.291v1.643a1.572,1.572,0,0,1-.5,1.143,1.535,1.535,0,0,1-.561.334l-1.6.537a5.9,5.9,0,0,0-2.2,1.327l-.018.017-.018.017-.017.018c-.015.015-.03.031-.044.047l-.029.034-.034.045c-.01.014-.02.029-.029.044s-.017.027-.025.04-.019.034-.028.052-.013.025-.018.038-.017.037-.024.056-.01.027-.015.04-.012.037-.018.056l-.012.044-.011.052c0,.017-.006.035-.008.052s0,.031-.006.046,0,.039,0,.058,0,.028,0,.042,0,.04,0,.061,0,.028,0,.042,0,.038.007.058.005.032.009.048.007.034.011.051l.016.055c0,.014.009.028.014.042s.015.041.024.062.006.015.009.022a4.96,4.96,0,0,1,.453,2.083V343.6a1.062,1.062,0,1,0,2.125,0v-5.469a7.073,7.073,0,0,0-.344-2.188,3.839,3.839,0,0,1,.911-.448l1.595-.536a3.677,3.677,0,0,0,.809-.388,9.4,9.4,0,0,0,1.341.289l-1.6,5.655a1.062,1.062,0,0,0,.231,1l1.953,2.178a1.061,1.061,0,0,0,.765.353h.027a1.062,1.062,0,0,0,.754-.314l2.16-2.178a1.064,1.064,0,0,0,.259-1.066l-1.77-5.659a9.38,9.38,0,0,0,1.395-.34,3.665,3.665,0,0,0,.932.471l1.594.536a3.861,3.861,0,0,1,2.627,3.663V343.6a1.062,1.062,0,0,0,2.125,0v-4.442a5.983,5.983,0,0,0-4.074-5.676Zm-5.94-.658a7.256,7.256,0,0,1-1.308-.092,3.673,3.673,0,0,0,.225-1.263v-.429a3.323,3.323,0,0,0,2.246,0v.43a3.691,3.691,0,0,0,.2,1.194A7.236,7.236,0,0,1,331.169,332.819ZM328,324.144l1.912-1,4.5,1.45v2.067a1.239,1.239,0,0,1-.59,1.052l-1.981,1.208a1.22,1.22,0,0,1-1.275,0l-1.981-1.208a1.239,1.239,0,0,1-.59-1.052Zm1.575-4.367h3.266a1.579,1.579,0,0,1,1.575,1.58v1.007l-4.276-1.377a1.062,1.062,0,0,0-.818.07l-1.322.691v-.39A1.579,1.579,0,0,1,329.576,319.777Zm1.569,21.654-.811-.9.823-2.909.9,2.889Zm0,0" transform="translate(-277.03 -272.658)" fill="#404cdc"/><path d="M95.4,296.525l-1.965-.662a2.162,2.162,0,0,1-.869-.549v0a2.165,2.165,0,0,1-.6-1.5v-2.16l.705-.43a3.91,3.91,0,0,0,1.862-3.319v-6.533a4.318,4.318,0,0,0-4.31-4.316H86.2a4.318,4.318,0,0,0-4.31,4.316V287.9a3.91,3.91,0,0,0,1.862,3.319l.706.43v2.159a2.18,2.18,0,0,1-.689,1.587,2.137,2.137,0,0,1-.783.465l-1.963.662a7.145,7.145,0,0,0-3.548,2.655,5.98,5.98,0,0,0-1.188-.551l-1.6-.538a1.507,1.507,0,0,1-.624-.4,1.554,1.554,0,0,1-.431-1.078v-1.643l.477-.291a3.376,3.376,0,0,0,1.608-2.866V286.51a3.707,3.707,0,0,0-3.7-3.7H68.758a3.707,3.707,0,0,0-3.7,3.7v5.307a3.376,3.376,0,0,0,1.608,2.866l.477.291v1.643a1.567,1.567,0,0,1-.5,1.143,1.531,1.531,0,0,1-.561.334l-1.6.537a5.983,5.983,0,0,0-4.073,5.676v4.443a1.062,1.062,0,1,0,2.125,0v-4.443a3.861,3.861,0,0,1,2.626-3.663l1.595-.536a3.684,3.684,0,0,0,.808-.389,9.235,9.235,0,0,0,1.341.289l-1.6,5.656a1.063,1.063,0,0,0,.231,1l1.953,2.178a1.064,1.064,0,0,0,.764.353h.027a1.063,1.063,0,0,0,.755-.314L73.2,306.7a1.061,1.061,0,0,0,.259-1.065l-1.77-5.659a9.345,9.345,0,0,0,1.4-.341,3.627,3.627,0,0,0,.933.471l1.594.537a3.835,3.835,0,0,1,.911.448,7.089,7.089,0,0,0-.344,2.187v5.47a1.062,1.062,0,0,0,2.125,0v-5.47a5,5,0,0,1,3.4-4.74l1.96-.661a4.229,4.229,0,0,0,1.037-.513,11.2,11.2,0,0,0,2,.414l-2.047,7.239a1.061,1.061,0,0,0,.231,1l2.4,2.682a1.063,1.063,0,0,0,.765.352h.027a1.062,1.062,0,0,0,.754-.314l2.659-2.682a1.063,1.063,0,0,0,.259-1.065l-2.265-7.243a11.241,11.241,0,0,0,2.08-.488,4.288,4.288,0,0,0,1.184.619l1.963.662a1.074,1.074,0,0,0,.34.056,1.063,1.063,0,0,0,.34-2.069Zm-25.051,1.447a7.267,7.267,0,0,1-1.308-.092,3.684,3.684,0,0,0,.225-1.263v-.43a3.318,3.318,0,0,0,2.246,0v.43a3.711,3.711,0,0,0,.2,1.194A7.239,7.239,0,0,1,70.351,297.972ZM67.183,289.3l1.912-1,4.5,1.45v2.067a1.24,1.24,0,0,1-.59,1.052l-1.981,1.208a1.219,1.219,0,0,1-1.274,0l-1.981-1.208a1.24,1.24,0,0,1-.59-1.052Zm1.576-4.367h3.265a1.58,1.58,0,0,1,1.576,1.58v1.006l-4.276-1.377a1.061,1.061,0,0,0-.817.07l-1.323.691v-.39A1.58,1.58,0,0,1,68.759,284.93Zm1.568,21.654-.811-.9.823-2.909.9,2.889ZM88.17,295.726a9.112,9.112,0,0,1-1.955-.172,4.288,4.288,0,0,0,.372-1.743v-.9a3.836,3.836,0,0,0,3.254,0v.9a4.283,4.283,0,0,0,.328,1.647A9.062,9.062,0,0,1,88.17,295.726ZM86.2,279.18h4.02a2.191,2.191,0,0,1,2.185,2.191v1.576l-5.586-1.8a1.064,1.064,0,0,0-.817.07l-1.988,1.038v-.885A2.19,2.19,0,0,1,86.2,279.18Zm-2.185,5.473,2.577-1.346,5.814,1.872V287.9a1.771,1.771,0,0,1-.844,1.5L89.127,290.9a1.746,1.746,0,0,1-1.825,0l-2.439-1.487a1.773,1.773,0,0,1-.844-1.5Zm4.107,21.788-1.262-1.408,1.274-4.505,1.4,4.485Zm0,0" transform="translate(-51.86 -237.811)" fill="#404cdc"/><path d="M72.212,52.212l-24.3-24.3,0,0-8.581-8.583a4.1,4.1,0,0,0-2-1.108v-6.7H48.982a1.49,1.49,0,0,0,.985-2.608L47.2,6.475,49.967,4.04a1.49,1.49,0,0,0-.985-2.608H37.324v-.37a1.062,1.062,0,0,0-2.125,0V18.288a4.109,4.109,0,0,0-1.719,1.034L29.7,23.1a1.062,1.062,0,1,0,1.5,1.5l3.779-3.779a2.01,2.01,0,0,1,2.843,0l7.663,7.665L42.2,30.659,38.259,27.9a1.062,1.062,0,0,0-1.248.022L33.4,30.642,29.939,28.33a1.063,1.063,0,0,0-.977-.106l-2.262.884,1.136-1.137a1.062,1.062,0,0,0-1.5-1.5l-4.71,4.712-.006.006L.311,52.5a1.062,1.062,0,0,0,1.5,1.5L22.957,32.853,29.22,30.4l3.629,2.423a1.062,1.062,0,0,0,1.229-.035l3.595-2.707,3.9,2.729a1.062,1.062,0,0,0,1.195.017l4.257-2.809L70.709,53.715a1.062,1.062,0,1,0,1.5-1.5ZM47.3,3.556l-2.043,1.8a1.491,1.491,0,0,0,0,2.236l2.043,1.8H37.324V3.556Zm0,0" transform="translate(0 0)" fill="#404cdc"/></g></g></g></svg>