<svg xmlns="http://www.w3.org/2000/svg" width="66.772" height="72" viewBox="0 0 66.772 72"><g transform="translate(5744 48)"><path d="M18935.459-6133.816l11.633,2.874s4.375,7.525-4.246,11.768v-6.294l-5.746.957.824,5.885s-7.254-1.917-6.3-9.579Z" transform="translate(-24650.398 6141.864)" fill="#95dde6"/><g transform="translate(-5744 -48)"><path d="M18946.762-6144.606l-10.109,8.146-.453-1.433-2.715-.981-1.133-2.112-.9-3.62v-3.319l2.035-3.319,2.715-1.734h0l.453,2.564-.453,2.866,1.734,1.057h2.715l1.207-1.434v-3.319l.379-1.734,2.793,1.282,1.734,3.018,1.055,3.771-.453,1.584-1.055,2.338-1.586,2.112-1.133.378Z" transform="translate(-18906.477 6173.442)" fill="#95dde6"/><g transform="translate(0 0)"><path d="M65.989,27.652l-6.194-.6a26.4,26.4,0,0,0-3.145-7.47L60.6,14.819a1.176,1.176,0,0,0-.074-1.582l-6.7-6.7a1.176,1.176,0,0,0-1.582-.074l-4.77,3.949a27.153,27.153,0,0,0-7.467-3.146l-.6-6.2A1.177,1.177,0,0,0,38.238,0H29.082a1.176,1.176,0,0,0-1.171,1.063l-.6,6.2a27.135,27.135,0,0,0-7.467,3.146l-4.77-3.95a1.177,1.177,0,0,0-1.582.074l-6.7,6.7a1.177,1.177,0,0,0-.074,1.583l3.947,4.766a26.387,26.387,0,0,0-3.147,7.472l-6.19.6A1.17,1.17,0,0,0,.274,28.824v9.5A1.17,1.17,0,0,0,1.33,39.493l6.2.6a27.136,27.136,0,0,0,3.144,7.467L6.721,52.326a1.177,1.177,0,0,0,.126,1.632l5.082,4.494a1.176,1.176,0,0,0,1.745-.209l7.3-10.479a1.177,1.177,0,0,0-.134-1.505,17.943,17.943,0,1,1,25.376,0,1.177,1.177,0,0,0-.122,1.521l7.56,10.478a1.176,1.176,0,0,0,1.733.193l5.083-4.493a1.177,1.177,0,0,0,.126-1.633l-3.95-4.77a27.133,27.133,0,0,0,3.145-7.467l6.194-.6a1.17,1.17,0,0,0,1.057-1.171v-9.5a1.17,1.17,0,0,0-1.057-1.171Zm-1.3,9.6-5.967.576a1.172,1.172,0,0,0-1.032.917,24.813,24.813,0,0,1-3.48,8.261,1.177,1.177,0,0,0,.079,1.395l3.769,4.55L54.8,55.829,48.576,47.2a20.3,20.3,0,1,0-30.079.012l-6,8.607L9.259,52.95l3.768-4.55a1.178,1.178,0,0,0,.078-1.4,24.838,24.838,0,0,1-3.483-8.26,1.168,1.168,0,0,0-1.028-.917l-5.967-.576v-7.36l5.967-.576a1.172,1.172,0,0,0,1.034-.923A24.088,24.088,0,0,1,13.1,20.145a1.177,1.177,0,0,0-.076-1.4l-3.812-4.6L14.4,8.957,19,12.769a1.175,1.175,0,0,0,1.395.078,24.825,24.825,0,0,1,8.26-3.482,1.176,1.176,0,0,0,.917-1.036l.576-5.975h7.019l.576,5.975a1.177,1.177,0,0,0,.916,1.036,24.824,24.824,0,0,1,8.26,3.483,1.175,1.175,0,0,0,1.395-.078l4.6-3.811L58.1,14.142l-3.811,4.6a1.177,1.177,0,0,0-.075,1.4,24.093,24.093,0,0,1,3.478,8.249,1.167,1.167,0,0,0,1.03.923l5.968.576Zm0,0" transform="translate(-0.274 0)" fill="#404cdc"/><path d="M174.754,165.141V147.275a9.814,9.814,0,0,0,4.913-8.314,8.639,8.639,0,0,0-7-8.919,1.176,1.176,0,0,0-1.437,1.238l.389,4.993a3.378,3.378,0,0,1-3.137,0l.418-5.021a1.177,1.177,0,0,0-1.5-1.228,9.507,9.507,0,0,0-.864,17.709v17.8a9.734,9.734,0,0,0-4.871,8.282,8.771,8.771,0,0,0,6.917,8.981,1.179,1.179,0,0,0,1.462-1.232l-.387-4.993a3.38,3.38,0,0,1,3.137,0l-.418,5.021a1.177,1.177,0,0,0,1.5,1.228,9.474,9.474,0,0,0,.882-17.675Zm.126,14.686.313-3.762a1.177,1.177,0,0,0-.459-1.034l-.044-.034a5.733,5.733,0,0,0-6.992.046,1.177,1.177,0,0,0-.444,1.015l.3,3.871a6.438,6.438,0,0,1-3.532-6.127,7.382,7.382,0,0,1,4.194-6.494,1.17,1.17,0,0,0,.67-1.066V146.9a1.171,1.171,0,0,0-.83-1.127,6.744,6.744,0,0,1-4.812-6.746,6.822,6.822,0,0,1,3.142-6.013l-.312,3.762a1.175,1.175,0,0,0,.461,1.034l.044.033a5.73,5.73,0,0,0,6.986-.04l.032-.025a1.178,1.178,0,0,0,.42-1l-.3-3.912a6.3,6.3,0,0,1,3.6,6.09,7.528,7.528,0,0,1-4.24,6.541,1.176,1.176,0,0,0-.672,1.063v19.408a1.176,1.176,0,0,0,.836,1.126,6.743,6.743,0,0,1,4.816,6.736,6.877,6.877,0,0,1-3.175,5.99Zm0,0" transform="translate(-137.265 -110.863)" fill="#404cdc"/></g></g></g></svg>