<svg xmlns="http://www.w3.org/2000/svg" width="79.749" height="72" viewBox="0 0 79.749 72"><g transform="translate(-983.223 -2394.822)"><path d="M18563.131-5991.052h15.25v-12.733s-2.008-10.722-13.566-3.852Z" transform="translate(-17516.426 8405.671)" fill="#95dde6"/><path d="M18565.689-5997.234l5.16,3.867h41.762l-4.777-6.7-.641-9.277s-31.465-1.238-43.687,1.545Z" transform="translate(-17579.223 8459.088)" fill="#95dde6"/><path d="M18566.076-5992.226l9.711,7.633,9.422-8.127v-11.9l-9.422-4.759s-9.711.594-10.2,6.644Z" transform="translate(-17554.725 8414.714)" fill="#95dde6"/><g transform="translate(983.223 2394.822)"><path d="M71.338,0H19.77a8.085,8.085,0,0,0-8.116,8.026l-.332,45.408H1.257A1.309,1.309,0,0,0,0,54.779v6.249a10.95,10.95,0,0,0,10.332,10.9V72H53.757v-.084c.323.013.518.084.74.084h.031A10.916,10.916,0,0,0,65.38,61.027V21.309H78.49a1.323,1.323,0,0,0,1.258-1.358V8.485A8.47,8.47,0,0,0,71.338,0ZM10.9,69.417h-.009a8.369,8.369,0,0,1-8.305-8.39V56.018h41v4.987a10.931,10.931,0,0,0,3.191,7.756,4.637,4.637,0,0,1,.68.655Zm51.9-8.391a8.339,8.339,0,0,1-8.271,8.391H54.5a8.391,8.391,0,0,1-8.33-8.411V54.779a1.338,1.338,0,0,0-1.291-1.344H13.9l.332-45.4A5.5,5.5,0,0,1,19.77,2.583H65.241A8.813,8.813,0,0,0,62.8,8.519ZM77.165,8.508V18.726H65.38V8.517A5.981,5.981,0,0,1,71.3,2.583h.036A5.887,5.887,0,0,1,77.165,8.5Zm0,0" transform="translate(0.001)" fill="#404cdc"/><path d="M167.009,76.714l6.658,4.552a1.272,1.272,0,0,0,1.443,0l6.638-4.551a10.03,10.03,0,0,0,4.009-7.652V59.853a1.262,1.262,0,0,0-.689-1.16l-10.138-4.987a1.269,1.269,0,0,0-1.129,0L163.684,58.68a1.26,1.26,0,0,0-.687,1.16v9.224A10.031,10.031,0,0,0,167.009,76.714Zm-1.43-16.069,8.8-4.341,8.8,4.353v8.407a7.442,7.442,0,0,1-2.884,5.517l-5.93,4.055-5.906-4.055a7.438,7.438,0,0,1-2.877-5.517Zm0,0" transform="translate(-136.683 -44.925)" fill="#404cdc"/><path d="M204.516,123.471a1.29,1.29,0,0,0,.914.387h0a1.293,1.293,0,0,0,.913-.382l5.137-5.139a1.292,1.292,0,0,0-1.826-1.828l-4.22,4.219-1.687-1.7a1.292,1.292,0,1,0-1.836,1.819Zm0,0" transform="translate(-169.005 -97.383)" fill="#404cdc"/><path d="M165.287,248h-31a1.291,1.291,0,1,0,0,2.583h31a1.291,1.291,0,1,0,0-2.583Zm0,0" transform="translate(-111.529 -207.964)" fill="#404cdc"/><path d="M165.287,285h-31a1.291,1.291,0,1,0,0,2.583h31a1.291,1.291,0,1,0,0-2.583Zm0,0" transform="translate(-111.529 -238.991)" fill="#404cdc"/></g></g></svg>