<svg xmlns="http://www.w3.org/2000/svg" width="72" height="72" viewBox="0 0 72 72"><g transform="translate(-1096 -1940)"><rect width="12" height="12" transform="translate(1103 1973)" fill="#95dde6"/><rect width="12" height="12" transform="translate(1103 1993)" fill="#95dde6"/><path d="M-119.3-14524c-2.374-1.038-2.5-2.17-1.322-4.473s12.2-40.4,12.2-40.4,4.542-1.315,5.254,1.482-10.7,41.381-10.7,41.381S-116.926-14522.962-119.3-14524Z" transform="translate(1254 16523)" fill="#95dde6"/><g transform="translate(1096 1940)"><path d="M51.17,37.161a3.47,3.47,0,0,1,1.932.585l8.11,5.407a5.8,5.8,0,0,0,3.221.975H72V41.806H64.435a3.476,3.476,0,0,1-1.934-.585l-3.276-2.184V0H15.1V6.968H0V72H44.129V65.032h15.1v-9.77c.073-.018.149-.023.222-.041l5.4-1.35a15.116,15.116,0,0,1,3.666-.452H72V51.1H68.516a17.466,17.466,0,0,0-4.23.521l-5.4,1.35a15.187,15.187,0,0,1-8.445-.324l-1.957-.653a17.412,17.412,0,0,0-5.515-.894H32.834a3.488,3.488,0,0,1,3.484-3.484H49.092a3.475,3.475,0,0,0,.408-6.927l.953-3.525ZM49.7,54.847a17.384,17.384,0,0,0,5.515.9c.564,0,1.126-.049,1.685-.1V62.71H44.129v-3.8a4.189,4.189,0,0,0,.893-1.656l.951-3.522a14.987,14.987,0,0,1,1.774.462Zm-6.057-1.4-.865,3.2a1.918,1.918,0,0,1-1.849,1.416h-.377a1.914,1.914,0,0,1-1.847-2.413l.6-2.232h3.657C43.194,53.419,43.42,53.437,43.646,53.446ZM36.9,53.419l-.439,1.625A4.209,4.209,0,0,0,38.46,59.81L38.1,61.266l2.253.564.361-1.443h.223a4.218,4.218,0,0,0,.874-.1v9.392H2.323V9.29h15.1V2.323H56.9V37.489l-2.512-1.675a5.8,5.8,0,0,0-3.221-.975h-.09l4.833-17.883a4.239,4.239,0,0,0-4.09-5.343h-.377a4.245,4.245,0,0,0-4.09,3.132L44.129,26.69V6.968H19.742V9.29H41.806V34.839H39.4A5.743,5.743,0,0,0,35.955,36H24.387v2.323h9.128l-2.323,2.323H24.387v2.323h4.484l-1.94,1.94a3.6,3.6,0,0,0,3.6,6.02c0,.057-.018.111-.018.168a2.325,2.325,0,0,0,2.323,2.323ZM45.85,45.29H41.508l4.9-18.144L50.4,28.474Zm-8.909-7.11a3.511,3.511,0,0,1,2.463-1.02h1.9l-.948,3.5a5.754,5.754,0,0,0-3.892,1.679l-6.047,6.047a1.3,1.3,0,0,1-2.224-.92,1.294,1.294,0,0,1,.382-.921ZM38.1,43.987a3.5,3.5,0,0,1,1.593-.894l-.594,2.2H36.8ZM53.671,16.35l-1.422,5.262-3.983-1.327L49.6,15.351a1.919,1.919,0,0,1,1.849-1.416h.377a1.915,1.915,0,0,1,1.847,2.414Zm-6.012,6.18,3.983,1.327L51,26.228,47.018,24.9Zm1.433,20.438a1.161,1.161,0,0,1,0,2.323h-.837l.628-2.323Zm0,0" fill="#404cdc"/><path d="M62.194,80H32V91.613H62.194Zm-2.323,9.29H34.323V82.323H59.871Zm0,0" transform="translate(-27.355 -68.387)" fill="#404cdc"/><path d="M64,112h2.323v2.323H64Zm0,0" transform="translate(-54.71 -95.742)" fill="#404cdc"/><path d="M96,112h2.323v2.323H96Zm0,0" transform="translate(-82.065 -95.742)" fill="#404cdc"/><path d="M128,112h2.323v2.323H128Zm0,0" transform="translate(-109.419 -95.742)" fill="#404cdc"/><path d="M160,112h2.323v2.323H160Zm0,0" transform="translate(-136.774 -95.742)" fill="#404cdc"/><path d="M192,112h2.323v2.323H192Zm0,0" transform="translate(-164.129 -95.742)" fill="#404cdc"/><path d="M45.935,214.968H43.613v4.645h-9.29v-9.29H41.29V208H32v13.935H45.935Zm0,0" transform="translate(-27.355 -177.806)" fill="#404cdc"/><path d="M72.279,178.344,61.487,189.136l-1.5-1.5-1.642,1.642,3.144,3.144,12.434-12.434Zm0,0" transform="translate(-49.874 -152.455)" fill="#404cdc"/><path d="M43.613,355.613h-9.29v-9.29H41.29V344H32v13.935H45.935v-6.968H43.613Zm0,0" transform="translate(-27.355 -294.065)" fill="#404cdc"/><path d="M59.986,323.634l-1.642,1.642,3.144,3.144,12.434-12.434-1.642-1.642L61.487,325.136Zm0,0" transform="translate(-49.874 -268.713)" fill="#404cdc"/><path d="M256,440h2.323v2.323H256Zm0,0" transform="translate(-218.839 -376.129)" fill="#404cdc"/><path d="M152,440h12.774v2.323H152Zm0,0" transform="translate(-129.935 -376.129)" fill="#404cdc"/><path d="M168,216h15.1v2.323H168Zm0,0" transform="translate(-143.613 -184.645)" fill="#404cdc"/></g></g></svg>