<svg xmlns="http://www.w3.org/2000/svg" width="72" height="72" viewBox="0 0 72 72"><g transform="translate(0 0)"><path d="M17923.938-6046.255h11.4s1.119,16.074,8.018,20.568a24.49,24.49,0,0,1-19.418-15.17Z" transform="translate(-17908.789 6082.201)" fill="#95dde6"/><path d="M0,.566,11.379,0s1.141,15.008,8.037,19.5A24.487,24.487,0,0,1,0,4.332Z" transform="translate(55.564 36.386) rotate(-180)" fill="#95dde6"/><path d="M.83,1.167,4.246,2S-1.4-2.5,5.49,2c0,0-2.662,8.561-5.49,0Z" transform="translate(69.324 40.16) rotate(-180)" fill="#95dde6"/><path d="M1.565,1.167,4.981,2S-.667-2.5,6.226,2C6.226,2,2.831,12.222,0,3.661Z" transform="translate(7.061 40.16) rotate(-180)" fill="#95dde6"/><path d="M.351,2.412l1.214-1.33s-3.529-3.165,3.364,1.33c0,0-2.1,11.15-4.929,2.589Z" transform="translate(37.607 72) rotate(-180)" fill="#95dde6"/><path d="M.351,2.412l1.214-1.33s-3.529-3.165,3.364,1.33c0,0-2.1,11.15-4.929,2.589Z" transform="translate(37.607 9.095) rotate(-180)" fill="#95dde6"/><path d="M67.8,63.5a4.162,4.162,0,0,0-2.53.868L51.391,50.3a21.244,21.244,0,0,0,5.3-13.16h5.773a4.192,4.192,0,1,0,.36-2.4H56.66A21.252,21.252,0,0,0,51.2,21.917l13.948-14.5A4.173,4.173,0,1,0,63.6,4.195a4.123,4.123,0,0,0,.187,1.17l-14.3,14.865A21.318,21.318,0,0,0,37.2,14.93V7.967a4.2,4.2,0,1,0-2.4.36V14.86a21.321,21.321,0,0,0-13.355,5.1L7.868,6.2a4.134,4.134,0,0,0,.532-2A4.2,4.2,0,1,0,4.2,8.388a4.143,4.143,0,0,0,1.96-.508L19.715,21.616a21.27,21.27,0,0,0-5.739,13.131h-6a4.2,4.2,0,1,0,.36,2.4h5.609A21.273,21.273,0,0,0,19.882,51a.141.141,0,0,0,0,.016L6.9,64.514A4.174,4.174,0,1,0,8.4,67.7a4.134,4.134,0,0,0-.168-1.108l13.4-13.938A21.321,21.321,0,0,0,34.8,57.577v5.988a4.2,4.2,0,1,0,2.4.361V57.507a21.316,21.316,0,0,0,12.506-5.5l14.139,14.33A4.124,4.124,0,0,0,63.6,67.7,4.2,4.2,0,1,0,67.8,63.5ZM37.2,46.689a18.978,18.978,0,0,1,4.328.961c-1.13,3.431-2.7,5.825-4.328,6.8Zm0-2.405v-7.14h5.979a38.961,38.961,0,0,1-.993,8.2A21.339,21.339,0,0,0,37.2,44.284Zm0-9.536V28.153a21.356,21.356,0,0,0,4.986-1.06,38.6,38.6,0,0,1,.981,7.655Zm0-9V17.992c1.626.97,3.2,3.364,4.329,6.8a19.013,19.013,0,0,1-4.329.962Zm3.54-7.722a18.989,18.989,0,0,1,6.616,3.506,18.969,18.969,0,0,1-3.6,2.337,19.038,19.038,0,0,0-3.016-5.843Zm-5.939-.39V25.82a19.058,19.058,0,0,1-5.161-.843c1.309-4.08,3.243-6.741,5.161-7.34ZM27.393,24.1a18.889,18.889,0,0,1-4.123-2.562,18.975,18.975,0,0,1,7.372-3.706A18.942,18.942,0,0,0,27.393,24.1ZM34.8,28.216v6.532H28.063A38.806,38.806,0,0,1,29,27.292a21.479,21.479,0,0,0,5.8.924Zm0,8.928v7.077a21.486,21.486,0,0,0-5.8.92,39.144,39.144,0,0,1-.949-8Zm0,9.474V54.8c-1.918-.6-3.853-3.262-5.162-7.344A19.051,19.051,0,0,1,34.8,46.618ZM30.642,54.6a18.972,18.972,0,0,1-7.379-3.711,18.916,18.916,0,0,1,4.129-2.56,18.951,18.951,0,0,0,3.25,6.271Zm13.114-6.037a18.983,18.983,0,0,1,3.6,2.34,18.99,18.99,0,0,1-6.616,3.5,19.029,19.029,0,0,0,3.017-5.845Zm5.355.687a21.386,21.386,0,0,0-4.672-3.005,41.226,41.226,0,0,0,1.14-9.1h8.709a18.882,18.882,0,0,1-5.177,12.108ZM66.6,34.748a1.8,1.8,0,1,1-1.8,1.8A1.8,1.8,0,0,1,66.6,34.748Zm-21.034,0a40.828,40.828,0,0,0-1.127-8.559,21.341,21.341,0,0,0,4.673-3A18.888,18.888,0,0,1,54.26,34.748ZM67.8,2.4a1.8,1.8,0,1,1-1.8,1.8,1.8,1.8,0,0,1,1.8-1.8Zm-34.2,1.8a1.8,1.8,0,1,1,1.8,1.8A1.8,1.8,0,0,1,33.6,4.195Zm-31.2,0a1.8,1.8,0,1,1,1.8,1.8A1.8,1.8,0,0,1,2.4,4.195Zm19.12,19a21.3,21.3,0,0,0,5.215,3.249,40.99,40.99,0,0,0-1.071,8.308H16.376A18.885,18.885,0,0,1,21.52,23.191ZM4.2,38.342a1.8,1.8,0,1,1,1.8-1.8A1.8,1.8,0,0,1,4.2,38.342Zm21.451-1.2a41.387,41.387,0,0,0,1.083,8.85,21.273,21.273,0,0,0-5.218,3.249,18.878,18.878,0,0,1-5.169-12.1ZM4.2,69.5a1.8,1.8,0,1,1,1.538-2.716,0,0,0,0,1,0,0A1.772,1.772,0,0,1,6,67.7a1.8,1.8,0,0,1-1.8,1.8Zm31.2,0a1.8,1.8,0,1,1,1.8-1.8A1.8,1.8,0,0,1,35.4,69.5Zm32.4,0a1.8,1.8,0,1,1,1.8-1.8A1.8,1.8,0,0,1,67.8,69.5Zm0,0" transform="translate(0 -0.001)" fill="#4955de"/></g></svg>