<svg xmlns="http://www.w3.org/2000/svg" width="54" height="54" viewBox="0 0 54 54">
  <g id="Group_14849" data-name="Group 14849" transform="translate(-358 -3598)">
    <g id="Group_12400" data-name="Group 12400" transform="translate(44 1346)">
      <g id="Group_12398" data-name="Group 12398" transform="translate(0 16.199)">
        <g id="Group_7958" data-name="Group 7958" transform="translate(314 2236)">
          <circle id="Ellipse_97" data-name="Ellipse 97" cx="27" cy="27" r="27" transform="translate(0 -0.199)" fill="#f3f6ff"/>
        </g>
      </g>
    </g>
    <path id="Path_65898" data-name="Path 65898" d="M-21149-3626.563v-3.391h6.41v4.507h-6.41Z" transform="translate(21524 7250)" fill="#95dde6"/>
    <path id="Path_65899" data-name="Path 65899" d="M-21142.934-3614.8l7.941-.258v4.421h4.85l1.143,1.545v1.459h-20v-1.459l.959-1.545h1.416l3.949-.172Z" transform="translate(21524 7250)" fill="#95dde6"/>
    <circle id="Ellipse_1889" data-name="Ellipse 1889" cx="1" cy="1" r="1" transform="translate(384 3632)" fill="#95dde6"/>
    <circle id="Ellipse_1890" data-name="Ellipse 1890" cx="1" cy="1" r="1" transform="translate(391 3625)" fill="#95dde6"/>
    <circle id="Ellipse_1891" data-name="Ellipse 1891" cx="1" cy="1" r="1" transform="translate(386 3625)" fill="#95dde6"/>
    <g id="Online_store" data-name="Online store" transform="translate(367.084 3609.084)">
      <path id="Path_65887" data-name="Path 65887" d="M33.3,5.183a.531.531,0,0,0-.531.531V23.751a1.592,1.592,0,0,1-1.592,1.592H4.653a1.592,1.592,0,0,1-1.592-1.592V4.653A1.592,1.592,0,0,1,4.653,3.061H27.465a.531.531,0,0,0,0-1.061H4.653A2.656,2.656,0,0,0,2,4.653v19.1A2.656,2.656,0,0,0,4.653,26.4h9.019v3.183H9.958A2.656,2.656,0,0,0,7.305,32.24V33.3a.531.531,0,0,0,.531.531H28a.531.531,0,0,0,.531-.531V32.24a2.656,2.656,0,0,0-2.653-2.653H22.16V26.4h9.019a2.656,2.656,0,0,0,2.653-2.653V5.714A.531.531,0,0,0,33.3,5.183ZM27.465,32.24v.531H8.366V32.24a1.592,1.592,0,0,1,1.592-1.592H25.873a1.592,1.592,0,0,1,1.592,1.592ZM21.1,29.587H14.732V26.4H21.1Z" transform="translate(0 0)" fill="#404cdc"/>
      <path id="Path_65888" data-name="Path 65888" d="M33.587,23.507V7.592a.531.531,0,0,0-1.061,0V22.977H7.061V10.244h8.488a.531.531,0,0,0,0-1.061H7.061V7.061H29.343a.531.531,0,0,0,0-1.061H6.531A.531.531,0,0,0,6,6.531V23.507a.531.531,0,0,0,.531.531H33.056A.531.531,0,0,0,33.587,23.507Z" transform="translate(-1.878 -1.878)" fill="#404cdc"/>
      <path id="Path_65889" data-name="Path 65889" d="M32.183,41.592a1.592,1.592,0,1,0-1.592,1.592A1.592,1.592,0,0,0,32.183,41.592Zm-1.592.531a.531.531,0,1,1,.531-.531A.531.531,0,0,1,30.592,42.122Z" transform="translate(-12.676 -17.84)" fill="#404cdc"/>
      <path id="Path_65890" data-name="Path 65890" d="M26.531,6.244a.531.531,0,0,0-.515.659l2.122,8.488a.531.531,0,0,0,.515.4H29.6a1.592,1.592,0,1,0,2.355,0H34.9a1.592,1.592,0,1,0,2.355,0H38.2c.012,0,.022-.006.033-.007a.508.508,0,0,0,.056.007.531.531,0,0,0,.515-.4L41.828,3.061h2.74a.531.531,0,0,0,0-1.061H41.412a.531.531,0,0,0-.516.4l-.941,3.84ZM39.3,8.9H37.283l.3-1.592H39.7Zm-.78,3.183H36.686l.4-2.122h1.963Zm-.65,2.653H36.186l.3-1.592h1.778Zm-10-4.775h1.9l.4,2.122H28.4Zm2.977,0H32.9V12.08H31.248ZM32.9,8.9H30.651l-.3-1.592H32.9Zm1.061-1.592H36.5l-.3,1.592H33.958Zm0,2.653H36l-.4,2.122H33.958ZM29.274,7.305l.3,1.592H27.609l-.4-1.592Zm-.6,5.836h1.7l.3,1.592h-1.6Zm2.106,4.244a.531.531,0,1,1,.531-.531A.531.531,0,0,1,30.775,17.385Zm.97-2.653-.3-1.592H32.9v1.592Zm2.213-1.592h1.45l-.3,1.592H33.958Zm2.122,4.244a.531.531,0,1,1,.531-.531A.531.531,0,0,1,36.08,17.385Z" transform="translate(-11.268)" fill="#404cdc"/>
      <path id="Path_65891" data-name="Path 65891" d="M9.531,9a.531.531,0,0,0,0,1.061h.531a.531.531,0,0,0,0-1.061Z" transform="translate(-3.286 -3.286)" fill="#404cdc"/>
      <path id="Path_65892" data-name="Path 65892" d="M13.531,9a.531.531,0,0,0,0,1.061h.531a.531.531,0,0,0,0-1.061Z" transform="translate(-5.164 -3.286)" fill="#404cdc"/>
      <path id="Path_65893" data-name="Path 65893" d="M17.531,9a.531.531,0,0,0,0,1.061h.531a.531.531,0,0,0,0-1.061Z" transform="translate(-7.042 -3.286)" fill="#404cdc"/>
      <path id="Path_65894" data-name="Path 65894" d="M12.531,23.305H18.9a.531.531,0,0,0,.531-.531V18.531A.531.531,0,0,0,18.9,18H12.531a.531.531,0,0,0-.531.531v4.244A.531.531,0,0,0,12.531,23.305Zm.531-4.244h5.305v3.183H13.061Z" transform="translate(-4.695 -7.512)" fill="#404cdc"/>
      <path id="Path_65895" data-name="Path 65895" d="M12.531,31.061h8.488a.531.531,0,0,0,0-1.061H12.531a.531.531,0,0,0,0,1.061Z" transform="translate(-4.695 -13.146)" fill="#404cdc"/>
      <path id="Path_65896" data-name="Path 65896" d="M12.531,35.061h10.61a.531.531,0,0,0,0-1.061H12.531a.531.531,0,0,0,0,1.061Z" transform="translate(-4.695 -15.023)" fill="#404cdc"/>
      <path id="Path_65897" data-name="Path 65897" d="M38.531,34a.531.531,0,0,0,0,1.061h7.427a.531.531,0,0,0,0-1.061Z" transform="translate(-16.901 -15.023)" fill="#404cdc"/>
    </g>
  </g>
</svg>
