<svg xmlns="http://www.w3.org/2000/svg" width="54" height="54" viewBox="0 0 54 54">
  <g id="Group_14854" data-name="Group 14854" transform="translate(-1508 -3598)">
    <g id="Group_12404" data-name="Group 12404" transform="translate(1194 1346)">
      <g id="Group_12398" data-name="Group 12398" transform="translate(0 16.199)">
        <g id="Group_7958" data-name="Group 7958" transform="translate(314 2236)">
          <circle id="Ellipse_97" data-name="Ellipse 97" cx="27" cy="27" r="27" transform="translate(0 -0.199)" fill="#f3f6ff"/>
        </g>
      </g>
    </g>
    <g id="Group_13756" data-name="Group 13756" transform="translate(230 -1886)">
      <path id="Path_65937" data-name="Path 65937" d="M-20234.088-3630.426l14.955-6.417,15.512,6.417-7.031,3.236-6.416-2.344-.447-1.395-1.617-.447-1.283.447v1.395l1.674.558.947-.558,6.529,2.344-7.867,3.571-15.289-6.529Z" transform="translate(21524 9137)" fill="#95dde6"/>
      <g id="mortarboard" transform="translate(1288.668 5482.62)">
        <g id="Group_13757" data-name="Group 13757" transform="translate(0 17.068)">
          <g id="Group_13756-2" data-name="Group 13756" transform="translate(0 0)">
            <path id="Path_65931" data-name="Path 65931" d="M342.551,443.742a.543.543,0,0,0-.66.4l-.544,2.178a.544.544,0,0,0,.4.66.528.528,0,0,0,.132.016.545.545,0,0,0,.528-.412l.544-2.178A.545.545,0,0,0,342.551,443.742Z" transform="translate(-319.553 -416.504)" fill="#404cdc"/>
            <path id="Path_65932" data-name="Path 65932" d="M16.333,153.233a.539.539,0,0,0,.208-.041l5.989-2.478a.545.545,0,0,0-.417-1.006l-5.78,2.392L1.089,145.791v-.181a.544.544,0,0,0-1.089,0v.544a.544.544,0,0,0,.336.5l15.789,6.533A.539.539,0,0,0,16.333,153.233Z" transform="translate(0 -136.899)" fill="#404cdc"/>
            <path id="Path_65933" data-name="Path 65933" d="M102.7,238.7a.544.544,0,0,0-.729-.247,12.689,12.689,0,0,1-5.2,1.187v-4.884a.544.544,0,1,0-1.089,0v4.879c-6.76-.216-8.942-4.311-9.256-4.993v-3.7a.544.544,0,0,0-1.089,0v3.811a.551.551,0,0,0,.039.2c.095.236,2.412,5.786,10.85,5.786a13.992,13.992,0,0,0,6.23-1.315A.543.543,0,0,0,102.7,238.7Z" transform="translate(-79.89 -216.789)" fill="#404cdc"/>
            <path id="Path_65934" data-name="Path 65934" d="M376.011,452.266a.544.544,0,0,0-.544.544v1.633a.544.544,0,1,0,1.089,0V452.81A.544.544,0,0,0,376.011,452.266Z" transform="translate(-351.511 -424.499)" fill="#404cdc"/>
            <path id="Path_65935" data-name="Path 65935" d="M32.122,25.234a.544.544,0,0,0-.544.544v.18l-6.533,2.689v-.984l7.286-3.015a.544.544,0,0,0,0-1.006l-15.79-6.533a.545.545,0,0,0-.416,0L.336,23.642a.544.544,0,0,0,0,1.006l15.789,6.533a.543.543,0,0,0,.416,0l5.709-2.362a.544.544,0,1,0-.416-1.006l-5.5,2.276L1.968,24.145,16.333,18.2,30.7,24.145l-6.251,2.587L18.461,24.5a1.3,1.3,0,0,0,.051-.351c0-.916-.957-1.633-2.178-1.633s-2.178.718-2.178,1.633.957,1.633,2.178,1.633a2.632,2.632,0,0,0,1.409-.388l6.213,2.32v1.744h0V41.123a1.633,1.633,0,1,0,1.089,0v-3.09a6.615,6.615,0,0,0,2.148-2.821.551.551,0,0,0,.03-.178V31.223a.544.544,0,1,0-1.089,0v3.71a5.569,5.569,0,0,1-1.089,1.645V29.825l7.285-3a.544.544,0,0,0,.337-.5v-.544A.544.544,0,0,0,32.122,25.234ZM16.333,24.69c-.665,0-1.089-.322-1.089-.544s.424-.544,1.089-.544,1.089.322,1.089.544S17,24.69,16.333,24.69ZM24.5,43.2a.544.544,0,1,1,.544-.544A.545.545,0,0,1,24.5,43.2Z" transform="translate(0 -17.068)" fill="#404cdc"/>
            <path id="Path_65936" data-name="Path 65936" d="M402.139,444.141a.544.544,0,0,0-1.056.265l.544,2.178a.545.545,0,0,0,.528.412.527.527,0,0,0,.132-.016.544.544,0,0,0,.4-.66Z" transform="translate(-375.477 -416.506)" fill="#404cdc"/>
          </g>
        </g>
      </g>
    </g>
  </g>
</svg>
