<svg xmlns="http://www.w3.org/2000/svg" width="54" height="54" viewBox="0 0 54 54">
  <g id="Group_14857" data-name="Group 14857" transform="translate(-817 -3804)">
    <g id="Group_13693" data-name="Group 13693" transform="translate(-6235 614)">
      <circle id="Ellipse_490" data-name="Ellipse 490" cx="27" cy="27" r="27" transform="translate(7052 3190)" fill="#f3f6ff"/>
    </g>
    <path id="Path_65977" data-name="Path 65977" d="M-20693.412-3413.145v-14.508l.725-1.618,1.506-.279.5-1.507-1-.837v-2.846l4.688-.223.334,2.567-.781.893v2.232l.781-.279,1.283.781.391,2.678-.391,1.451-.391,1.841-1.227,1.73.334,1.283-1.059.67-.67,1.4-.609.39v3.292l-2.684.446-1,1.116Z" transform="translate(21524 7250)" fill="#95dde6"/>
    <g id="diet_2_" data-name="diet (2)" transform="translate(828.525 3788.069)">
      <g id="Group_13773" data-name="Group 13773" transform="translate(10.745 37.877)">
        <g id="Group_13772" data-name="Group 13772">
          <path id="Path_65971" data-name="Path 65971" d="M160.171,191.8a1.593,1.593,0,0,0-2.769,1.048.512.512,0,0,0,.5.521h.009a.512.512,0,0,0,.512-.5A.568.568,0,0,1,159,192.3a.562.562,0,0,1,.41.185.512.512,0,0,0,.756-.691Z" transform="translate(-157.402 -191.28)" fill="#404cdc"/>
        </g>
      </g>
      <g id="Group_13775" data-name="Group 13775" transform="translate(13.489 39.174)">
        <g id="Group_13774" data-name="Group 13774">
          <path id="Path_65972" data-name="Path 65972" d="M200.343,211.172a1.463,1.463,0,0,0-2.717.065.512.512,0,1,0,.96.356.44.44,0,0,1,.564-.259.433.433,0,0,1,.251.239.512.512,0,0,0,.942-.4Z" transform="translate(-197.594 -210.283)" fill="#404cdc"/>
        </g>
      </g>
      <g id="Group_13777" data-name="Group 13777" transform="translate(18.182 35.379)">
        <g id="Group_13776" data-name="Group 13776">
          <path id="Path_65973" data-name="Path 65973" d="M267.7,154.843a.512.512,0,0,0-.724,0l-.483.484a.512.512,0,0,0,.725.723l.483-.484A.512.512,0,0,0,267.7,154.843Z" transform="translate(-266.339 -154.693)" fill="#404cdc"/>
        </g>
      </g>
      <g id="Group_13779" data-name="Group 13779" transform="translate(15.159 42.138)">
        <g id="Group_13778" data-name="Group 13778">
          <path id="Path_65974" data-name="Path 65974" d="M223.243,253.709h-.682a.512.512,0,0,0,0,1.024h.682a.512.512,0,0,0,0-1.024Z" transform="translate(-222.049 -253.709)" fill="#404cdc"/>
        </g>
      </g>
      <g id="Group_13781" data-name="Group 13781" transform="translate(20.391 42.138)">
        <g id="Group_13780" data-name="Group 13780">
          <path id="Path_65975" data-name="Path 65975" d="M299.886,253.709H299.2a.512.512,0,1,0,0,1.024h.682a.512.512,0,0,0,0-1.024Z" transform="translate(-298.692 -253.709)" fill="#404cdc"/>
        </g>
      </g>
      <g id="Group_13783" data-name="Group 13783" transform="translate(0 26.637)">
        <g id="Group_13782" data-name="Group 13782" transform="translate(0 0)">
          <path id="Path_65976" data-name="Path 65976" d="M34.936,51.37l-.133-.72a.971.971,0,0,0-1.131-.777l-2.714.5,1.229-.822a.967.967,0,0,0,.306-1.282l-.372-.659a.968.968,0,0,0-.972-.485,12.951,12.951,0,0,0,.207-2.312.856.856,0,0,0-.509-.782,3.926,3.926,0,0,0,.031-2.971.621.621,0,0,0-.347-.348,3.9,3.9,0,0,0-1.447-.278q-.1,0-.19,0a2.7,2.7,0,0,0-3.252-2.512,4.219,4.219,0,0,0-.239-2.253.629.629,0,0,0-.354-.357,4.208,4.208,0,0,0-3.8.349,5.064,5.064,0,0,0-1.205-1.929.869.869,0,0,0-1.231,0L16.33,36.221a2.573,2.573,0,0,0-1.718-.654,2.589,2.589,0,0,0-1.848.776,2.573,2.573,0,0,0-1.909-.136V34.292a2.417,2.417,0,0,0-2.371-2.416V30.791a.854.854,0,0,0,.708-.84V27.49a.854.854,0,0,0-.853-.853H4.175a.854.854,0,0,0-.853.853v2.46a.854.854,0,0,0,.708.84v1.086a2.417,2.417,0,0,0-2.37,2.416V49.235A4.891,4.891,0,0,0,0,52.871a5.3,5.3,0,0,0,5.482,5.082l20.493-.006a2.344,2.344,0,0,0,2.319-2.71l4.093.736a.978.978,0,0,0,.172.015.971.971,0,0,0,.961-.827l.111-.744a.968.968,0,0,0-.743-1.088L31.445,53l2.712-.5a.97.97,0,0,0,.779-1.13Zm-5.853-9.913a2.871,2.871,0,0,1,.9.145,2.9,2.9,0,0,1-.245,2.354H28.362l.44-.441a.512.512,0,0,0-.725-.723l-.233.233a2.375,2.375,0,0,0-.55-.945A2.863,2.863,0,0,1,29.083,41.458ZM26.2,38.892a1.681,1.681,0,0,1,1.677,1.682c0,.017,0,.034,0,.051a3.89,3.89,0,0,0-1.461.867c-.068-.026-.136-.049-.206-.069a2.375,2.375,0,0,0-1.415-1.761A1.674,1.674,0,0,1,26.2,38.892ZM23.489,36.04a3.172,3.172,0,0,1,1.019.168,3.208,3.208,0,0,1-.127,2.365,2.719,2.719,0,0,0-.656.909,2.416,2.416,0,0,0-.273.031,2.391,2.391,0,0,0-1.088.5,2.71,2.71,0,0,0-.387-.538l1.174-1.177a.512.512,0,0,0-.725-.723l-1.283,1.286a2.676,2.676,0,0,0-.785-.233,3.2,3.2,0,0,1,3.132-2.584Zm-3.923,7.917h-.444a.512.512,0,0,0-.953,0h-.522a.512.512,0,0,0-.8-.629l-.483.484a.51.51,0,0,0-.1.145H15.223a4.05,4.05,0,0,1-.657-2.066h8.123a4.05,4.05,0,0,1-.657,2.066H20.948a.51.51,0,0,0-.1-.146l-.483-.484a.512.512,0,0,0-.8.629Zm-1.191-3.09a1.675,1.675,0,0,1,3.237,0Zm1.047-6.3a4.049,4.049,0,0,1,.967,1.808,4.217,4.217,0,0,0-.65.932.509.509,0,0,0-.267-.076H18.79a.512.512,0,1,0,0,1.024h.6a4.239,4.239,0,0,0-.079.429,2.678,2.678,0,0,0-.579.226,2.585,2.585,0,0,0-1.576-1.2v0a2.592,2.592,0,0,0-.206-.656Zm-9.255,4.62a1.545,1.545,0,0,1-.068-.257,1.563,1.563,0,0,1,1.272-1.8,1.579,1.579,0,0,1,.27-.023,1.547,1.547,0,0,1,.932.311.512.512,0,0,0,.733-.127,1.55,1.55,0,0,1,1.035-.678,1.58,1.58,0,0,1,.271-.023,1.553,1.553,0,0,1,1.533,1.291,1.569,1.569,0,0,1,.023.265.512.512,0,0,0,.467.509,1.558,1.558,0,0,1,1.286.918,2.7,2.7,0,0,0-.592,1.293h-2.92a.87.87,0,0,0-.8.541,3.907,3.907,0,0,0-3.641-.4.621.621,0,0,0-.347.348,3.923,3.923,0,0,0-.239.91A1.558,1.558,0,0,1,9.9,39.829.512.512,0,0,0,10.167,39.191Zm1.526,4.626.14.14H10.6a2.9,2.9,0,0,1-.094-2.053,2.88,2.88,0,0,1,3.15.932,5.058,5.058,0,0,0,.392,1.121h-.772l-.861-.863a.512.512,0,0,0-.725.723Zm-2.18.14H7.687a1.684,1.684,0,0,1,.794-1.168,2.574,2.574,0,0,0,.934.774A3.96,3.96,0,0,0,9.513,43.957Zm-5.167-16.3H8.168V29.78H4.345ZM7.46,30.8v1.071H5.053V30.8ZM2.683,36.368H6.007a.512.512,0,1,0,0-1.024H2.683V34.292A1.392,1.392,0,0,1,4.071,32.9H8.442a1.392,1.392,0,0,1,1.389,1.393v1.052H8.875a.512.512,0,1,0,0,1.024h.956v.454a2.581,2.581,0,0,0-.741,2.286v.005a2.587,2.587,0,0,0-1.085,2.571c.01.059.023.116.037.174a2.715,2.715,0,0,0-.682.536H2.683Zm0,7.051H6.766a2.686,2.686,0,0,0-.111.538H6.568a.856.856,0,0,0-.855.855A12.956,12.956,0,0,0,5.936,47.2c-.147-.012-.3-.018-.451-.018a4.666,4.666,0,0,0-1.661.277c-.691.273-.882.66-.924.929-.073.036-.145.075-.216.114V43.419Zm6.483,6.29a1.939,1.939,0,0,1,.362.363H9.509a3.181,3.181,0,0,1-1.4-.445,3.69,3.69,0,0,1-.587-.4.512.512,0,0,0-.662,0,3.669,3.669,0,0,1-.587.4,3.181,3.181,0,0,1-1.4.445H4.849a1.936,1.936,0,0,1,.362-.364.512.512,0,0,0-.26-.908,2.446,2.446,0,0,1-.964-.278,2.916,2.916,0,0,1,1.5-.312,3.191,3.191,0,0,1,1.454.284.512.512,0,0,0,.5,0,3.193,3.193,0,0,1,1.454-.284,2.916,2.916,0,0,1,1.5.312,2.444,2.444,0,0,1-.964.278.512.512,0,0,0-.26.908ZM8.142,55.941l.018.095a2.332,2.332,0,0,0,.369.893H5.482a4.277,4.277,0,0,1-4.458-4.058,4.022,4.022,0,0,1,2.31-3.554,2.2,2.2,0,0,0,.589.3,1.213,1.213,0,0,0-.173.506.834.834,0,0,0,.2.631,1.162,1.162,0,0,0,.913.341,4.229,4.229,0,0,0,1.9-.573q.224-.124.422-.261.2.136.422.261a4.23,4.23,0,0,0,1.9.573h0a1.162,1.162,0,0,0,.913-.341.834.834,0,0,0,.2-.631,1.213,1.213,0,0,0-.173-.506,2.2,2.2,0,0,0,.589-.3,4.142,4.142,0,0,1,2.194,2.634L9.616,53.327A2.341,2.341,0,0,0,8.142,55.941Zm18.852.506a1.325,1.325,0,0,1-1.019.476h-.537L25.1,55.11a.512.512,0,0,0-1.007.186l.3,1.627H22.634L22.407,55.7a.512.512,0,0,0-1.007.186l.193,1.04-4.1,0-.308-1.665a.512.512,0,0,0-1.007.187l.274,1.479-5.983,0h0a1.324,1.324,0,0,1-1.3-1.08l-.018-.095a1.317,1.317,0,0,1,.831-1.47l2.012-.764.15.809a.512.512,0,0,0,.5.419.519.519,0,0,0,.094-.009.512.512,0,0,0,.41-.6l-.184-.992,2.987-1.135a.512.512,0,0,0-.364-.957l-1.39.528a5.189,5.189,0,0,0-2.72-3.194c-.042-.268-.233-.656-.924-.929a4.666,4.666,0,0,0-1.661-.277,5.194,5.194,0,0,0-1.192.133V47.01a.512.512,0,0,0-.828-.4,11.961,11.961,0,0,1-.133-1.627H23.415a.512.512,0,0,0,0-1.024h-.21a5.068,5.068,0,0,0,.51-2.22.871.871,0,0,0-.786-.866,1.349,1.349,0,0,1,.7-.349,1.381,1.381,0,0,1,.236-.02A1.353,1.353,0,0,1,25.2,41.625a1.369,1.369,0,0,1,.02.231.512.512,0,0,0,.467.509A1.357,1.357,0,0,1,26.9,43.485a1.338,1.338,0,0,1,0,.472h-.549a.512.512,0,0,0,0,1.024H30.33a11.8,11.8,0,0,1-.359,2.747L27.2,49.366A2.35,2.35,0,0,0,24.1,47.823l-5.715,2.171a.512.512,0,0,0,.364.957l.753-.286.234,1.262a.512.512,0,0,0,.5.419.519.519,0,0,0,.094-.009.512.512,0,0,0,.41-.6L20.476,50.3l3.989-1.515a1.329,1.329,0,0,1,1.124.083,1.315,1.315,0,0,1,.654.91l1.036,5.592A1.31,1.31,0,0,1,26.994,56.447Zm1.827-4.008a.512.512,0,0,0-.022,1l3.812.874-.1.639L28.1,54.161l-.691-3.73,3.849-2.272.321.568L28.329,50.9a.512.512,0,0,0,.377.929l5.1-.937.114.613Z" transform="translate(0 -26.637)" fill="#404cdc"/>
        </g>
      </g>
    </g>
  </g>
</svg>
