<svg xmlns="http://www.w3.org/2000/svg" width="54" height="54" viewBox="0 0 54 54">
  <g id="Group_14850" data-name="Group 14850" transform="translate(-588 -3598)">
    <g id="Group_12407" data-name="Group 12407" transform="translate(25 1362)">
      <g id="Group_9787" data-name="Group 9787" transform="translate(563 2236)">
        <g id="Group_7959" data-name="Group 7959" transform="translate(0 0)">
          <circle id="Ellipse_98" data-name="Ellipse 98" cx="27" cy="27" r="27" transform="translate(0 0)" fill="#f3f6ff"/>
        </g>
      </g>
    </g>
    <path id="Path_65919" data-name="Path 65919" d="M-20914.564-3638.8l1.016-1.813h10.518l2.248,1.813,1.783,2.176,2.279,1.378h1.451v5.8h-5.514l-6.6-6.093.361-1.886h1.742l-.943.508-3.7-1.015h-3.047Z" transform="translate(21524 7279)" fill="#95dde6"/>
    <path id="Path_65920" data-name="Path 65920" d="M-20922.182-3621.758l5.15.29,5.223,4.135,1.234,2.031-.436,1.161,2.9,1.015h3.7l.8,1.016-.8,1.451-1.959.653h-7.545l-3.119-2.539-1.969-2.031-1.947-1.088h-1.234Z" transform="translate(21524 7250)" fill="#95dde6"/>
    <g id="care" transform="translate(596.131 3568.911)">
      <g id="Group_13698" data-name="Group 13698" transform="translate(0 57.515)">
        <g id="Group_13697" data-name="Group 13697">
          <path id="Path_65900" data-name="Path 65900" d="M22.523,292.457h-2.86a.737.737,0,1,0,0,1.474h2.86a.8.8,0,1,1,0,1.6h-7.7a3.873,3.873,0,0,1-2.986-1.4L10,291.919a5.341,5.341,0,0,0-3.964-1.927v-4.354H8.747a5.113,5.113,0,0,1,3.568,1.441l3.974,3.836a.724.724,0,0,1-.992,1.055l-3.12-2.86a.737.737,0,0,0-1,1.087l3.12,2.86a2.2,2.2,0,0,0,3.012-3.2l-3.974-3.836a6.58,6.58,0,0,0-4.592-1.855H5.89a1.83,1.83,0,0,0-1.684-1.118H.737a.737.737,0,0,0-.737.737v5.39a.737.737,0,0,0,1.474,0V284.52H4.206a.353.353,0,0,1,.353.353v5.907a.353.353,0,0,1-.353.353H3.441a.737.737,0,0,0,0,1.474h.765A1.829,1.829,0,0,0,5.9,291.462a3.873,3.873,0,0,1,2.963,1.4l1.841,2.213a5.343,5.343,0,0,0,4.119,1.931h7.7a2.275,2.275,0,1,0,0-4.549Z" transform="translate(0 -283.046)" fill="#404cdc"/>
        </g>
      </g>
      <g id="Group_13700" data-name="Group 13700" transform="translate(12.943 39.568)">
        <g id="Group_13699" data-name="Group 13699" transform="translate(0 0)">
          <path id="Path_65901" data-name="Path 65901" d="M199.65,46.376a.737.737,0,0,0-.737.737v4.941h-2.732a.353.353,0,0,1-.353-.353V45.794a.353.353,0,0,1,.353-.353h.711a.737.737,0,0,0,0-1.474h-.711a1.829,1.829,0,0,0-1.694,1.145,3.873,3.873,0,0,1-2.963-1.4L189.682,41.5a5.343,5.343,0,0,0-4.119-1.931h-7.7a2.274,2.274,0,1,0,0,4.549h3.148a.737.737,0,1,0,0-1.474h-3.148a.8.8,0,1,1,0-1.6h7.7a3.873,3.873,0,0,1,2.986,1.4l1.841,2.213a5.341,5.341,0,0,0,3.964,1.927v4.354H191.64a5.113,5.113,0,0,1-3.568-1.441L184.1,45.659a.724.724,0,0,1,.992-1.055l3.12,2.86a.737.737,0,1,0,1-1.087l-3.12-2.86a2.2,2.2,0,0,0-3.012,3.2l3.974,3.836a6.58,6.58,0,0,0,4.592,1.855H194.5a1.83,1.83,0,0,0,1.684,1.118h3.469a.737.737,0,0,0,.737-.737V47.113A.737.737,0,0,0,199.65,46.376Z" transform="translate(-175.59 -39.568)" fill="#404cdc"/>
        </g>
      </g>
      <g id="Group_13702" data-name="Group 13702" transform="translate(22.38 64.201)">
        <g id="Group_13701" data-name="Group 13701">
          <path id="Path_65902" data-name="Path 65902" d="M305.034,374.186a.745.745,0,1,0-.385.983l.016-.007A.738.738,0,0,0,305.034,374.186Z" transform="translate(-303.617 -373.752)" fill="#404cdc"/>
        </g>
      </g>
      <g id="Group_13704" data-name="Group 13704" transform="translate(24.296 63.096)">
        <g id="Group_13703" data-name="Group 13703" transform="translate(0 0)">
          <path id="Path_65903" data-name="Path 65903" d="M330.937,359.056a.74.74,0,1,0-.161,1.034l.009-.007A.734.734,0,0,0,330.937,359.056Z" transform="translate(-329.603 -358.757)" fill="#404cdc"/>
        </g>
      </g>
      <g id="Group_13706" data-name="Group 13706" transform="translate(20.272 64.878)">
        <g id="Group_13705" data-name="Group 13705">
          <path id="Path_65904" data-name="Path 65904" d="M276.481,383.524a.744.744,0,1,0-.589.878l.022,0A.736.736,0,0,0,276.481,383.524Z" transform="translate(-275.016 -382.94)" fill="#404cdc"/>
        </g>
      </g>
      <g id="Group_13708" data-name="Group 13708" transform="translate(25.933 61.602)">
        <g id="Group_13707" data-name="Group 13707" transform="translate(0 0)">
          <path id="Path_65905" data-name="Path 65905" d="M353.055,338.677a.737.737,0,0,0-1.041.054l-.016.018a.737.737,0,1,0,1.057-.071Zm-.412.621-.082-.074.089.08Z" transform="translate(-351.819 -338.487)" fill="#404cdc"/>
        </g>
      </g>
      <g id="Group_13710" data-name="Group 13710" transform="translate(28.092 57.765)">
        <g id="Group_13709" data-name="Group 13709" transform="translate(0 0)">
          <path id="Path_65906" data-name="Path 65906" d="M382.062,286.474a.74.74,0,1,0,.489.927l0-.01A.735.735,0,0,0,382.062,286.474Z" transform="translate(-381.109 -286.443)" fill="#404cdc"/>
        </g>
      </g>
      <g id="Group_13712" data-name="Group 13712" transform="translate(28.525 53.379)">
        <g id="Group_13711" data-name="Group 13711">
          <path id="Path_65907" data-name="Path 65907" d="M388.443,227.553l-.005-.028a.743.743,0,1,0,.005.028Z" transform="translate(-386.979 -226.939)" fill="#404cdc"/>
        </g>
      </g>
      <g id="Group_13714" data-name="Group 13714" transform="translate(28.51 55.59)">
        <g id="Group_13713" data-name="Group 13713">
          <path id="Path_65908" data-name="Path 65908" d="M387.586,256.926a.738.738,0,0,0-.8.669c0,.007,0,.022,0,.029a.737.737,0,0,0,.692.779h.044a.741.741,0,0,0,.065-1.479Z" transform="translate(-386.783 -256.923)" fill="#404cdc"/>
        </g>
      </g>
      <g id="Group_13716" data-name="Group 13716" transform="translate(27.219 59.799)">
        <g id="Group_13715" data-name="Group 13715">
          <path id="Path_65909" data-name="Path 65909" d="M370.363,314.12a.737.737,0,0,0-1,.278l-.01.018a.738.738,0,0,0,.648,1.092.731.731,0,0,0,.644-.383l-.641-.364.641.363A.737.737,0,0,0,370.363,314.12Z" transform="translate(-369.259 -314.024)" fill="#404cdc"/>
        </g>
      </g>
      <g id="Group_13718" data-name="Group 13718" transform="translate(13.555 45.45)">
        <g id="Group_13717" data-name="Group 13717" transform="translate(0 0)">
          <path id="Path_65910" data-name="Path 65910" d="M185.3,119.777a.737.737,0,0,0-.989-.33l-.007,0a.737.737,0,1,0,1,.326Z" transform="translate(-183.898 -119.37)" fill="#404cdc"/>
        </g>
      </g>
      <g id="Group_13720" data-name="Group 13720" transform="translate(15.626 44.68)">
        <g id="Group_13719" data-name="Group 13719" transform="translate(0 0)">
          <path id="Path_65911" data-name="Path 65911" d="M213.449,109.481a.737.737,0,0,0-.89-.543l-.017,0a.737.737,0,1,0,.907.538Z" transform="translate(-211.987 -108.918)" fill="#404cdc"/>
        </g>
      </g>
      <g id="Group_13722" data-name="Group 13722" transform="translate(11.691 46.646)">
        <g id="Group_13721" data-name="Group 13721">
          <path id="Path_65912" data-name="Path 65912" d="M159.916,135.869a.738.738,0,0,0-1.036-.112l.457.578-.459-.577a.737.737,0,0,0,.918,1.153l.01-.008A.736.736,0,0,0,159.916,135.869Z" transform="translate(-158.599 -135.595)" fill="#404cdc"/>
        </g>
      </g>
      <g id="Group_13724" data-name="Group 13724" transform="translate(8.144 52.139)">
        <g id="Group_13723" data-name="Group 13723">
          <path id="Path_65913" data-name="Path 65913" d="M111.42,210.133a.737.737,0,0,0-.9.517l-.007.027a.737.737,0,1,0,.912-.545Z" transform="translate(-110.487 -210.106)" fill="#404cdc"/>
        </g>
      </g>
      <g id="Group_13726" data-name="Group 13726" transform="translate(7.827 54.329)">
        <g id="Group_13725" data-name="Group 13725" transform="translate(0 0)">
          <path id="Path_65914" data-name="Path 65914" d="M106.971,239.825a.737.737,0,0,0-.778.693c0,.01,0,.019,0,.028a.737.737,0,0,0,.715.758h.022a.741.741,0,0,0,.043-1.48Z" transform="translate(-106.191 -239.824)" fill="#404cdc"/>
        </g>
      </g>
      <g id="Group_13728" data-name="Group 13728" transform="translate(8.922 50.066)">
        <g id="Group_13727" data-name="Group 13727">
          <path id="Path_65915" data-name="Path 65915" d="M122.12,182.074a.737.737,0,0,0-1,.31l-.012.024a.737.737,0,1,0,1.007-.334Z" transform="translate(-121.037 -181.989)" fill="#404cdc"/>
        </g>
      </g>
      <g id="Group_13730" data-name="Group 13730" transform="translate(10.123 48.207)">
        <g id="Group_13729" data-name="Group 13729">
          <path id="Path_65916" data-name="Path 65916" d="M138.552,156.943a.737.737,0,0,0-1.038.1l-.015.019a.737.737,0,1,0,1.053-.115Z" transform="translate(-137.339 -156.773)" fill="#404cdc"/>
        </g>
      </g>
      <g id="Group_13732" data-name="Group 13732" transform="translate(7.978 56.538)">
        <g id="Group_13731" data-name="Group 13731">
          <path id="Path_65917" data-name="Path 65917" d="M109.693,270.4a.737.737,0,0,0-1.451.26v.007a.733.733,0,0,0,.723.6.738.738,0,0,0,.727-.871Z" transform="translate(-108.23 -269.791)" fill="#404cdc"/>
        </g>
      </g>
      <g id="Group_13734" data-name="Group 13734" transform="translate(13.015 51.55)">
        <g id="Group_13733" data-name="Group 13733" transform="translate(0 0)">
          <path id="Path_65918" data-name="Path 65918" d="M184.952,202.125a3.413,3.413,0,0,0-2.482,1.063,3.423,3.423,0,1,0-4.672,4.989l.014.012,4.2,3.325a.737.737,0,0,0,.917,0l4.378-3.487a.735.735,0,0,0,.061-.055,3.422,3.422,0,0,0-2.417-5.846Zm1.4,4.775-3.886,3.1-3.733-2.956a1.949,1.949,0,1,1,3.054-2.237.737.737,0,0,0,1.362,0,1.949,1.949,0,1,1,3.2,2.1Z" transform="translate(-176.566 -202.125)" fill="#404cdc"/>
        </g>
      </g>
      <g id="Group_13736" data-name="Group 13736" transform="translate(0.003 65.605)">
        <g id="Group_13735" data-name="Group 13735" transform="translate(0 0)">
          <circle id="Ellipse_1892" data-name="Ellipse 1892" cx="0.734" cy="0.734" r="0.734" fill="#404cdc"/>
        </g>
      </g>
      <g id="Group_13738" data-name="Group 13738" transform="translate(36.269 43.969)">
        <g id="Group_13737" data-name="Group 13737" transform="translate(0 0)">
          <circle id="Ellipse_1893" data-name="Ellipse 1893" cx="0.734" cy="0.734" r="0.734" fill="#404cdc"/>
        </g>
      </g>
    </g>
  </g>
</svg>
