<svg xmlns="http://www.w3.org/2000/svg" width="50.616" height="50.43" viewBox="0 0 50.616 50.43">
  <g id="Group_14852" data-name="Group 14852" transform="translate(-1049.691 -3603.518)">
    <ellipse id="Ellipse_1724" data-name="Ellipse 1724" cx="25.308" cy="25.215" rx="25.308" ry="25.215" transform="translate(1049.691 3603.518)" fill="#f3f6ff"/>
    <path id="Path_65928" data-name="Path 65928" d="M-20459.807-3624.249l.807.472h2.025l2.318,2.79,13.648.258,3.092-3.047,2.23-.472v-1.331h-3.777l-.215-5.022-3.732.386v-5.022h-7.469l-.258,4.335-3.52.687-.43,4.421H-20459v1.288Z" transform="translate(21524 7250)" fill="#95dde6"/>
    <g id="ship" transform="translate(1057.307 3613.943)">
      <path id="Path_65925" data-name="Path 65925" d="M35.282,11.671H31.5V10.446a.594.594,0,0,0-.565-.618H27.816V5.653a.594.594,0,0,0-.565-.618H23.982V.86a.594.594,0,0,0-.565-.618H15.6a.635.635,0,0,0-.614.618V5.035H11.619A.635.635,0,0,0,11,5.653V9.828H7.489a.635.635,0,0,0-.614.618v1.226H6.58V7.2a.614.614,0,0,0-.59-.618H5.843V5.109a.59.59,0,0,0-.59-.59H3.114a.59.59,0,0,0-.59.59V6.583H2.451a.614.614,0,0,0-.59.618v4.47H.59a.6.6,0,0,0-.556.795L2.785,20.2a4.424,4.424,0,0,1-1.458.213.59.59,0,1,0,0,1.18,5.5,5.5,0,0,0,2.989-.809,4.327,4.327,0,0,1,2.424-.665,4.329,4.329,0,0,1,2.425.665,5.5,5.5,0,0,0,2.989.809,5.5,5.5,0,0,0,2.989-.809,4.328,4.328,0,0,1,2.424-.665,4.327,4.327,0,0,1,2.424.665,5.923,5.923,0,0,0,5.978,0,4.749,4.749,0,0,1,4.848,0,5.5,5.5,0,0,0,2.989.809.59.59,0,0,0,0-1.18,4.472,4.472,0,0,1-1.413-.2l3.427-7.71a.6.6,0,0,0-.539-.839Zm-4.958,0h-1.7a.59.59,0,0,0-.433.189l-2.553,2.76H23.687V11.008h6.636Zm-7.816-.664v3.613H15.871V11.008Zm4.129-1.18H20V6.215h6.636ZM16.166,1.422H22.8V5.035H16.166ZM12.184,6.215H18.82V9.828H12.184ZM8.055,11.008h6.636v3.613H12.531L10.2,11.879a.591.591,0,0,0-.45-.208h-1.7ZM3.7,5.7h.959v.885H3.7ZM3.041,7.763H5.4v3.908H3.041ZM31.325,19.716a5.921,5.921,0,0,0-5.92.035,4.327,4.327,0,0,1-2.424.666,4.328,4.328,0,0,1-2.424-.665,5.5,5.5,0,0,0-2.989-.809,5.5,5.5,0,0,0-2.989.809,4.327,4.327,0,0,1-2.424.666,4.327,4.327,0,0,1-2.424-.666,5.5,5.5,0,0,0-2.989-.809,5.422,5.422,0,0,0-2.885.747l-2.43-6.84H9.478l2.33,2.742a.589.589,0,0,0,.45.208H25.9a.59.59,0,0,0,.433-.189l2.553-2.76h5.488Zm0,0" transform="translate(0)" fill="#404cdc"/>
      <path id="Path_65926" data-name="Path 65926" d="M10.586,296.521a5.5,5.5,0,0,0,2.989-.809A4.328,4.328,0,0,1,16,295.047a4.329,4.329,0,0,1,2.425.665,5.5,5.5,0,0,0,2.989.809,5.5,5.5,0,0,0,2.989-.809,4.749,4.749,0,0,1,4.849,0,5.923,5.923,0,0,0,5.978,0,4.749,4.749,0,0,1,4.848,0,5.5,5.5,0,0,0,2.989.809.59.59,0,0,0,0-1.18,4.327,4.327,0,0,1-2.424-.666,5.923,5.923,0,0,0-5.977,0,4.75,4.75,0,0,1-4.849,0,5.923,5.923,0,0,0-5.978,0,4.33,4.33,0,0,1-2.424.665,4.332,4.332,0,0,1-2.425-.665A5.5,5.5,0,0,0,16,293.867a5.5,5.5,0,0,0-2.989.809,4.332,4.332,0,0,1-2.425.665.59.59,0,0,0,0,1.18Zm0,0" transform="translate(-9.259 -271.974)" fill="#404cdc"/>
      <path id="Path_65927" data-name="Path 65927" d="M10.586,336.522a5.5,5.5,0,0,0,2.989-.809A4.328,4.328,0,0,1,16,335.047a4.329,4.329,0,0,1,2.425.665,5.5,5.5,0,0,0,2.989.809,5.5,5.5,0,0,0,2.989-.809,4.749,4.749,0,0,1,4.849,0,5.923,5.923,0,0,0,5.978,0,4.749,4.749,0,0,1,4.848,0,5.5,5.5,0,0,0,2.989.809.59.59,0,1,0,0-1.18,4.327,4.327,0,0,1-2.424-.666,5.924,5.924,0,0,0-5.977,0,4.749,4.749,0,0,1-4.849,0,5.923,5.923,0,0,0-5.978,0,4.33,4.33,0,0,1-2.424.665,4.331,4.331,0,0,1-2.425-.665A5.5,5.5,0,0,0,16,333.867a5.5,5.5,0,0,0-2.989.809,4.331,4.331,0,0,1-2.425.665.59.59,0,1,0,0,1.18Zm0,0" transform="translate(-9.259 -309.025)" fill="#404cdc"/>
    </g>
  </g>
</svg>
