<svg xmlns="http://www.w3.org/2000/svg" width="54" height="54" viewBox="0 0 54 54">
  <g id="Group_14851" data-name="Group 14851" transform="translate(-817 -3598)">
    <g id="Group_12408" data-name="Group 12408" transform="translate(-6235 408)">
      <circle id="Ellipse_490" data-name="Ellipse 490" cx="27" cy="27" r="27" transform="translate(7052 3190)" fill="#f3f6ff"/>
    </g>
    <path id="Path_65924" data-name="Path 65924" d="M-20672.447-3629.885h8.27l.725,2.1V-3614l-.725,2.1h-16.031l-1.451-1.451v-7.689h8.922l.291-3.337h1.813l1.635-.87v-1.6l-1.635-.943h-1.812Z" transform="translate(21524 7250)" fill="#95dde6"/>
    <circle id="Ellipse_1895" data-name="Ellipse 1895" cx="4" cy="4" r="4" transform="translate(831 3638)" fill="#95dde6"/>
    <g id="solution_1_" data-name="solution (1)" transform="translate(826.979 3608.02)">
      <g id="Group_13741" data-name="Group 13741" transform="translate(14.757 11.339)">
        <g id="Group_13740" data-name="Group 13740">
          <path id="Path_65921" data-name="Path 65921" d="M225.03,160.049h-7.368a.567.567,0,0,0-.567.567v2.267a.567.567,0,0,0,.567.567h1.7a1.134,1.134,0,0,1,0,2.267h-1.7a.567.567,0,0,0-.567.567v2.834h-8.5a.567.567,0,0,0-.567.567v7.368a2.267,2.267,0,0,0,2.267,2.267H225.03a2.267,2.267,0,0,0,2.267-2.267V162.316A2.267,2.267,0,0,0,225.03,160.049ZM217.1,178.185h-6.8a1.133,1.133,0,0,1-1.134-1.133v-6.8H217.1v1.134h-1.133a2.267,2.267,0,1,0,0,4.534H217.1Zm9.068-1.133a1.133,1.133,0,0,1-1.134,1.133h-6.8v-2.834a.567.567,0,0,0-.567-.567h-1.7a1.134,1.134,0,1,1,0-2.267h1.7a.567.567,0,0,0,.567-.567v-1.7h1.7v1.134a2.267,2.267,0,0,0,4.534,0v-1.134h1.7Zm0-7.935H223.9a.567.567,0,0,0-.567.567v1.7a1.133,1.133,0,0,1-2.267,0v-1.7a.567.567,0,0,0-.567-.567h-2.267V166.85h1.134a2.267,2.267,0,0,0,0-4.534h-1.134v-1.134h6.8a1.133,1.133,0,0,1,1.134,1.134Z" transform="translate(-208.027 -160.049)" fill="#404cdc"/>
        </g>
      </g>
      <g id="Group_13743" data-name="Group 13743" transform="translate(0.022 0)">
        <g id="Group_13742" data-name="Group 13742" transform="translate(0 0)">
          <path id="Path_65922" data-name="Path 65922" d="M24.959,2.271H23.825V.57A.567.567,0,0,0,23.259,0H15.891a2.267,2.267,0,0,0-2.267,2.267V8.618L11.279,9.752a4.619,4.619,0,0,0-1.29-1.163,4.534,4.534,0,1,0-4.358-.162,4.545,4.545,0,0,0-2.4,2.92L.973,18.457a8.5,8.5,0,0,0,.364,6.1,7.352,7.352,0,0,1-.118,6.357L.081,33.189a.567.567,0,0,0,.507.82H6.823a.567.567,0,0,0,.567-.567,2.818,2.818,0,0,0-1.515-2.5l.271-.541a8.566,8.566,0,0,0,.761-5.332l-.421-2.312a.549.549,0,0,1,1.08-.2l.77,4.235a11.68,11.68,0,0,1,.188,2.085v4.566a.567.567,0,0,0,.567.567h6.234a.567.567,0,0,0,.567-.567,2.835,2.835,0,0,0-.019-.33,2.51,2.51,0,0,0-1.4-1.972,2.747,2.747,0,0,0-2.044-.181l.377-1.886a12.821,12.821,0,0,0,.248-2.508V21.491L12.4,13.9l3.933-1.877a2.118,2.118,0,0,0,1.254-1.82h5.677a.567.567,0,0,0,.567-.567V6.8h1.134a2.267,2.267,0,0,0,0-4.534ZM4.556,4.538a3.4,3.4,0,1,1,3.4,3.4A3.4,3.4,0,0,1,4.556,4.538Zm7.875,27.647a1.613,1.613,0,0,1,1.53-.033,1.424,1.424,0,0,1,.689.724H9.657v-4a12.794,12.794,0,0,0-.206-2.287l-.77-4.234a1.682,1.682,0,0,0-3.315.573l.005.029.421,2.312a7.429,7.429,0,0,1-.661,4.622l-.55,1.1a.567.567,0,0,0,.372.808,1.694,1.694,0,0,1,1.206,1.077H1.506l.727-1.455a8.483,8.483,0,0,0,.136-7.333A7.368,7.368,0,0,1,2.052,18.8l2.267-7.141A3.482,3.482,0,0,1,8.332,9.135a3.344,3.344,0,0,1,1.9,1.12L6.88,11.873A2.1,2.1,0,1,0,8.7,15.666l2.607-1.243.618,7.117v5.024A11.729,11.729,0,0,1,11.7,28.85l-.6,3.019a.567.567,0,0,0,.837.6Zm3.433-21.193L15.847,11,8.21,14.643a.97.97,0,0,1-.839-1.749l7.7-3.718a.991.991,0,0,1,1.389.908A.992.992,0,0,1,15.864,10.992Zm9.095-5.321h-1.7a.567.567,0,0,0-.567.567V9.072H17.336a2.118,2.118,0,0,0-2.578-.985V2.271a1.133,1.133,0,0,1,1.134-1.134h6.8v1.7a.567.567,0,0,0,.567.567h1.7a1.134,1.134,0,1,1,0,2.267Z" transform="translate(-0.022 0)" fill="#404cdc"/>
        </g>
      </g>
      <g id="Group_13745" data-name="Group 13745" transform="translate(14.924 13.606)">
        <g id="Group_13744" data-name="Group 13744">
          <path id="Path_65923" data-name="Path 65923" d="M218.306,193.349l-1.866,1.866v-3.166h-1.134v4.3l-.567.567-.567-.567v-2.032h-1.133v.9l-1.866-1.866-.8.8,3.967,3.967a.567.567,0,0,0,.8,0l3.967-3.967Z" transform="translate(-210.371 -192.049)" fill="#404cdc"/>
        </g>
      </g>
      <g id="Group_13747" data-name="Group 13747" transform="translate(17.591 13.606)">
        <g id="Group_13746" data-name="Group 13746">
          <rect id="Rectangle_3667" data-name="Rectangle 3667" width="1.134" height="1.134" fill="#404cdc"/>
        </g>
      </g>
      <g id="Group_13749" data-name="Group 13749" transform="translate(17.591 11.339)">
        <g id="Group_13748" data-name="Group 13748">
          <rect id="Rectangle_3668" data-name="Rectangle 3668" width="1.134" height="1.134" fill="#404cdc"/>
        </g>
      </g>
      <g id="Group_13751" data-name="Group 13751" transform="translate(19.858 11.339)">
        <g id="Group_13750" data-name="Group 13750">
          <rect id="Rectangle_3669" data-name="Rectangle 3669" width="1.134" height="1.134" fill="#404cdc"/>
        </g>
      </g>
    </g>
  </g>
</svg>
