<svg xmlns="http://www.w3.org/2000/svg" width="50.616" height="50.43" viewBox="0 0 50.616 50.43">
  <g id="Group_14858" data-name="Group 14858" transform="translate(-1049.691 -3809.518)">
    <ellipse id="Ellipse_1894" data-name="Ellipse 1894" cx="25.308" cy="25.215" rx="25.308" ry="25.215" transform="translate(1049.691 3809.518)" fill="#f3f6ff"/>
    <path id="Path_66008" data-name="Path 66008" d="M-20460.758-3421.479V-3404h8.486v-17.482Z" transform="translate(21524 7250)" fill="#95dde6"/>
    <g id="urban" transform="translate(1038.551 3819.322)">
      <g id="Group_13785" data-name="Group 13785" transform="translate(23.011)">
        <g id="Group_13784" data-name="Group 13784">
          <path id="Path_65978" data-name="Path 65978" d="M47.447,26.434h-.768V2.305a.461.461,0,0,0-.461-.461H37.611a.461.461,0,0,0-.461.461v2h-.922v-2a.461.461,0,0,0-.461-.461h-2V.461a.461.461,0,1,0-.922,0V1.844h-2a.461.461,0,0,0-.461.461v2H29a.461.461,0,0,0-.461.461V8.606H24.7a.461.461,0,0,0-.461.461V26.434h-.769a.461.461,0,0,0,0,.922H47.447a.461.461,0,0,0,0-.922ZM31.31,2.766h4V4.3h-4ZM29.773,26.434h-.307v-.768a.461.461,0,0,0-.922,0v.768h-.307V24.9h1.537ZM32.847,14.6V26.434H30.7v-2a.461.461,0,0,0-.461-.461H27.775a.461.461,0,0,0-.461.461v2H25.163V9.529h7.684Zm.461-5.994H29.466V5.225H37.15v8.914H33.769V12.6h1.383a.461.461,0,0,0,0-.922H33.769V10.143h1.383a.461.461,0,0,0,0-.922H33.769V9.068A.461.461,0,0,0,33.308,8.606Zm8.145,17.828H33.769V15.061h7.684Zm4.3,0H42.375V13.985a.461.461,0,0,0-.922,0v.154h-.922v-.154a.461.461,0,0,0-.922,0v.154H38.072V2.766h7.684V26.434Z" transform="translate(-23.011)" fill="#404cdc"/>
          <path id="Path_65979" data-name="Path 65979" d="M253.585,308.677a.461.461,0,0,0,.461-.461V299.61a.461.461,0,0,0-.922,0v8.606A.461.461,0,0,0,253.585,308.677Z" transform="translate(-240.829 -283.166)" fill="#404cdc"/>
          <path id="Path_65980" data-name="Path 65980" d="M288.1,308.677a.461.461,0,0,0,.461-.461V299.61a.461.461,0,1,0-.922,0v8.606A.461.461,0,0,0,288.1,308.677Z" transform="translate(-273.502 -283.166)" fill="#404cdc"/>
          <path id="Path_65981" data-name="Path 65981" d="M322.618,308.677a.461.461,0,0,0,.461-.461V299.61a.461.461,0,0,0-.922,0v8.606A.461.461,0,0,0,322.618,308.677Z" transform="translate(-306.174 -283.166)" fill="#404cdc"/>
          <path id="Path_65982" data-name="Path 65982" d="M334.124,82.077a.461.461,0,0,0,.461-.461V81a.461.461,0,0,0-.922,0v.615A.461.461,0,0,0,334.124,82.077Z" transform="translate(-317.065 -76.237)" fill="#404cdc"/>
          <path id="Path_65983" data-name="Path 65983" d="M368.641,82.077a.461.461,0,0,0,.461-.461V81a.461.461,0,1,0-.922,0v.615A.461.461,0,0,0,368.641,82.077Z" transform="translate(-349.738 -76.237)" fill="#404cdc"/>
          <path id="Path_65984" data-name="Path 65984" d="M403.158,82.077a.461.461,0,0,0,.461-.461V81a.461.461,0,0,0-.922,0v.615A.461.461,0,0,0,403.158,82.077Z" transform="translate(-382.41 -76.237)" fill="#404cdc"/>
          <path id="Path_65985" data-name="Path 65985" d="M334.124,139.6a.461.461,0,0,0,.461-.461v-.615a.461.461,0,1,0-.922,0v.615A.461.461,0,0,0,334.124,139.6Z" transform="translate(-317.065 -130.69)" fill="#404cdc"/>
          <path id="Path_65986" data-name="Path 65986" d="M368.641,139.6a.461.461,0,0,0,.461-.461v-.615a.461.461,0,1,0-.922,0v.615A.461.461,0,0,0,368.641,139.6Z" transform="translate(-349.738 -130.69)" fill="#404cdc"/>
          <path id="Path_65987" data-name="Path 65987" d="M403.158,139.6a.461.461,0,0,0,.461-.461v-.615a.461.461,0,0,0-.922,0v.615A.461.461,0,0,0,403.158,139.6Z" transform="translate(-382.41 -130.69)" fill="#404cdc"/>
          <path id="Path_65988" data-name="Path 65988" d="M334.124,197.133a.461.461,0,0,0,.461-.461v-.615a.461.461,0,0,0-.922,0v.615A.461.461,0,0,0,334.124,197.133Z" transform="translate(-317.065 -185.145)" fill="#404cdc"/>
          <path id="Path_65989" data-name="Path 65989" d="M368.641,197.133a.461.461,0,0,0,.461-.461v-.615a.461.461,0,0,0-.922,0v.615A.461.461,0,0,0,368.641,197.133Z" transform="translate(-349.738 -185.145)" fill="#404cdc"/>
          <path id="Path_65990" data-name="Path 65990" d="M403.158,197.133a.461.461,0,0,0,.461-.461v-.615a.461.461,0,0,0-.922,0v.615A.461.461,0,0,0,403.158,197.133Z" transform="translate(-382.41 -185.145)" fill="#404cdc"/>
          <path id="Path_65991" data-name="Path 65991" d="M92.506,220.144a.461.461,0,0,0,.461-.461v-.615a.461.461,0,0,0-.922,0v.615A.461.461,0,0,0,92.506,220.144Z" transform="translate(-88.357 -206.927)" fill="#404cdc"/>
          <path id="Path_65992" data-name="Path 65992" d="M127.023,220.144a.461.461,0,0,0,.461-.461v-.615a.461.461,0,0,0-.922,0v.615A.461.461,0,0,0,127.023,220.144Z" transform="translate(-121.029 -206.927)" fill="#404cdc"/>
          <path id="Path_65993" data-name="Path 65993" d="M161.54,220.144a.461.461,0,0,0,.461-.461v-.615a.461.461,0,0,0-.922,0v.615A.461.461,0,0,0,161.54,220.144Z" transform="translate(-153.702 -206.927)" fill="#404cdc"/>
          <path id="Path_65994" data-name="Path 65994" d="M92.506,277.672a.461.461,0,0,0,.461-.461V276.6a.461.461,0,1,0-.922,0v.615A.461.461,0,0,0,92.506,277.672Z" transform="translate(-88.357 -261.381)" fill="#404cdc"/>
          <path id="Path_65995" data-name="Path 65995" d="M127.023,277.672a.461.461,0,0,0,.461-.461V276.6a.461.461,0,1,0-.922,0v.615A.461.461,0,0,0,127.023,277.672Z" transform="translate(-121.029 -261.381)" fill="#404cdc"/>
          <path id="Path_65996" data-name="Path 65996" d="M161.54,277.672a.461.461,0,0,0,.461-.461V276.6a.461.461,0,1,0-.922,0v.615A.461.461,0,0,0,161.54,277.672Z" transform="translate(-153.702 -261.381)" fill="#404cdc"/>
          <path id="Path_65997" data-name="Path 65997" d="M92.506,335.2a.461.461,0,0,0,.461-.461v-.615a.461.461,0,1,0-.922,0v.615A.461.461,0,0,0,92.506,335.2Z" transform="translate(-88.357 -315.835)" fill="#404cdc"/>
          <path id="Path_65998" data-name="Path 65998" d="M127.023,335.2a.461.461,0,0,0,.461-.461v-.615a.461.461,0,1,0-.922,0v.615A.461.461,0,0,0,127.023,335.2Z" transform="translate(-121.029 -315.835)" fill="#404cdc"/>
          <path id="Path_65999" data-name="Path 65999" d="M161.54,335.2a.461.461,0,0,0,.461-.461v-.615a.461.461,0,1,0-.922,0v.615A.461.461,0,0,0,161.54,335.2Z" transform="translate(-153.702 -315.835)" fill="#404cdc"/>
          <path id="Path_66000" data-name="Path 66000" d="M92.506,392.728a.461.461,0,0,0,.461-.461v-.615a.461.461,0,0,0-.922,0v.615A.461.461,0,0,0,92.506,392.728Z" transform="translate(-88.357 -370.29)" fill="#404cdc"/>
          <path id="Path_66001" data-name="Path 66001" d="M127.023,392.728a.461.461,0,0,0,.461-.461v-.615a.461.461,0,0,0-.922,0v.615A.461.461,0,0,0,127.023,392.728Z" transform="translate(-121.029 -370.29)" fill="#404cdc"/>
          <path id="Path_66002" data-name="Path 66002" d="M161.54,392.728a.461.461,0,0,0,.461-.461v-.615a.461.461,0,0,0-.922,0v.615A.461.461,0,0,0,161.54,392.728Z" transform="translate(-153.702 -370.29)" fill="#404cdc"/>
          <path id="Path_66003" data-name="Path 66003" d="M403.158,254.661a.461.461,0,0,0,.461-.461v-.615a.461.461,0,0,0-.922,0v.615A.461.461,0,0,0,403.158,254.661Z" transform="translate(-382.41 -239.6)" fill="#404cdc"/>
          <path id="Path_66004" data-name="Path 66004" d="M403.158,312.189a.461.461,0,0,0,.461-.461v-.615a.461.461,0,0,0-.922,0v.615A.461.461,0,0,0,403.158,312.189Z" transform="translate(-382.41 -294.054)" fill="#404cdc"/>
          <path id="Path_66005" data-name="Path 66005" d="M403.158,369.717a.461.461,0,0,0,.461-.461v-.615a.461.461,0,0,0-.922,0v.615A.461.461,0,0,0,403.158,369.717Z" transform="translate(-382.41 -348.508)" fill="#404cdc"/>
          <path id="Path_66006" data-name="Path 66006" d="M403.158,427.245a.461.461,0,0,0,.461-.461v-.615a.461.461,0,0,0-.922,0v.615A.461.461,0,0,0,403.158,427.245Z" transform="translate(-382.41 -402.962)" fill="#404cdc"/>
          <path id="Path_66007" data-name="Path 66007" d="M177.195,127.023a.461.461,0,0,0-.461-.461h-3.688a.461.461,0,1,0,0,.922h3.688A.461.461,0,0,0,177.195,127.023Z" transform="translate(-164.592 -119.8)" fill="#404cdc"/>
        </g>
      </g>
    </g>
  </g>
</svg>
