<svg xmlns="http://www.w3.org/2000/svg" width="54" height="54" viewBox="0 0 54 54">
  <g id="Group_14860" data-name="Group 14860" transform="translate(-1508 -3804)">
    <g id="Group_13692" data-name="Group 13692" transform="translate(1194 1552)">
      <g id="Group_12398" data-name="Group 12398" transform="translate(0 16.199)">
        <g id="Group_7958" data-name="Group 7958" transform="translate(314 2236)">
          <circle id="Ellipse_97" data-name="Ellipse 97" cx="27" cy="27" r="27" transform="translate(0 -0.199)" fill="#f3f6ff"/>
        </g>
      </g>
    </g>
    <path id="Path_66022" data-name="Path 66022" d="M-19999.857-3422.73h21.934l-.172,9.529h-22.189Z" transform="translate(21524 7250)" fill="#95dde6"/>
    <g id="ticket_1_" data-name="ticket (1)" transform="translate(1518.523 3793.184)">
      <g id="Group_13789" data-name="Group 13789" transform="translate(11.788 23.941)">
        <g id="Group_13788" data-name="Group 13788" transform="translate(0 0)">
          <path id="Path_66013" data-name="Path 66013" d="M203.836,39.528h-.63a.958.958,0,0,1,0-1.915h.63a.488.488,0,0,0,.488-.488V34.2a.488.488,0,0,0-.488-.488h-.63a.959.959,0,0,1-.958-.958v-.177l.716-.655a.488.488,0,0,0,.041-.677l-1.9-2.222a.488.488,0,0,0-.688-.053l-.479.41a.958.958,0,1,1-1.246-1.454l.479-.41a.488.488,0,0,0,.053-.688l-1.9-2.222a.488.488,0,0,0-.688-.053l-.479.41a.958.958,0,0,1-1.35-.1l-.639-.745a.488.488,0,0,0-.688-.053l-8.433,7.226h-1.392a.488.488,0,1,0,0,.976h17.626v.494a1.935,1.935,0,0,0,1.933,1.933h.142v1.951h-.142a1.933,1.933,0,1,0,0,3.866h.142v1.951h-.142a1.935,1.935,0,0,0-1.933,1.933v1.106H197.9a.488.488,0,0,0,0,.976h3.861a.488.488,0,0,0,.488-.488V44.388a.959.959,0,0,1,.958-.958h.63a.488.488,0,0,0,.488-.488V40.016A.488.488,0,0,0,203.836,39.528Zm-17.3-8.244,7.2-6.167.321.375a1.933,1.933,0,0,0,2.726.21l.108-.093,1.269,1.481-.108.093a1.933,1.933,0,1,0,2.516,2.936l.108-.093,1.078,1.258H186.539Z" transform="translate(-183.159 -23.941)" fill="#404cdc"/>
        </g>
      </g>
      <g id="Group_13791" data-name="Group 13791" transform="translate(0 31.284)">
        <g id="Group_13790" data-name="Group 13790" transform="translate(0 0)">
          <path id="Path_66014" data-name="Path 66014" d="M22.248,152.241H3.051v-.494a1.935,1.935,0,0,0-1.933-1.933H.976v-1.951h.143a1.933,1.933,0,1,0,0-3.866H.976v-1.951h.143a1.935,1.935,0,0,0,1.933-1.933v-1.106H8.618a.488.488,0,1,0,0-.976H2.564a.488.488,0,0,0-.488.488v1.594a.959.959,0,0,1-.958.958H.488a.488.488,0,0,0-.488.488v2.927a.488.488,0,0,0,.488.488h.63a.958.958,0,0,1,0,1.915H.488a.488.488,0,0,0-.488.488V150.3a.488.488,0,0,0,.488.488h.63a.959.959,0,0,1,.958.958v.264l-.689.547a.488.488,0,0,0-.067.7l1.9,2.222a.488.488,0,0,0,.688.053l.479-.41a.957.957,0,0,1,1.35.1.959.959,0,0,1-.1,1.35l-.479.41a.488.488,0,0,0-.053.688l1.9,2.222a.488.488,0,0,0,.688.053l.479-.41a.957.957,0,0,1,1.35.1l.639.745a.488.488,0,0,0,.688.053l8.418-7.213.013-.013h2.965a.488.488,0,0,0,0-.976Zm-11.66,7.143-.321-.375a1.933,1.933,0,0,0-2.726-.21l-.108.093L6.162,157.41l.108-.093a1.933,1.933,0,0,0-2.516-2.936l-.108.093-1.078-1.258H17.785Z" transform="translate(0 -138.031)" fill="#404cdc"/>
        </g>
      </g>
      <g id="Group_13793" data-name="Group 13793" transform="translate(4.925 33.57)">
        <g id="Group_13792" data-name="Group 13792" transform="translate(0 0)">
          <path id="Path_66015" data-name="Path 66015" d="M99.138,173.562h-13.9a.488.488,0,0,0,0,.976H98.65v8.66H77.5v-8.66h4.016a.488.488,0,0,0,0-.976h-4.5a.488.488,0,0,0-.488.488v9.636a.488.488,0,0,0,.488.488H99.138a.488.488,0,0,0,.488-.488V174.05A.488.488,0,0,0,99.138,173.562Z" transform="translate(-76.523 -173.562)" fill="#404cdc"/>
        </g>
      </g>
      <g id="Group_13795" data-name="Group 13795" transform="translate(7.129 36.741)">
        <g id="Group_13794" data-name="Group 13794">
          <path id="Path_66016" data-name="Path 66016" d="M113.717,222.827h-2.694c-.178,0-.261.191-.261.369,0,.2.1.376.261.376h.936v3.649c0,.172.2.261.414.261s.414-.089.414-.261v-3.649h.93c.166,0,.261-.178.261-.376C113.978,223.018,113.9,222.827,113.717,222.827Z" transform="translate(-110.762 -222.827)" fill="#404cdc"/>
        </g>
      </g>
      <g id="Group_13797" data-name="Group 13797" transform="translate(10.797 36.741)">
        <g id="Group_13796" data-name="Group 13796">
          <path id="Path_66017" data-name="Path 66017" d="M168.169,222.827c-.21,0-.414.076-.414.255v4.139c0,.172.2.261.414.261s.414-.089.414-.261v-4.139C168.583,222.9,168.373,222.827,168.169,222.827Z" transform="translate(-167.755 -222.827)" fill="#404cdc"/>
        </g>
      </g>
      <g id="Group_13799" data-name="Group 13799" transform="translate(12.344 36.741)">
        <g id="Group_13798" data-name="Group 13798">
          <path id="Path_66018" data-name="Path 66018" d="M194.365,225.85c-.217,0-.395.064-.408.261-.019.267-.07.681-.65.681-.439,0-.681-.236-.681-.732v-1.777c0-.5.242-.732.669-.732a.59.59,0,0,1,.662.63c.006.191.178.261.414.261.28,0,.414-.076.414-.408,0-.739-.631-1.21-1.516-1.21a1.328,1.328,0,0,0-1.471,1.458v1.777a1.324,1.324,0,0,0,1.465,1.458c.892,0,1.522-.49,1.522-1.261C194.786,225.933,194.652,225.85,194.365,225.85Z" transform="translate(-191.799 -222.825)" fill="#404cdc"/>
        </g>
      </g>
      <g id="Group_13801" data-name="Group 13801" transform="translate(15.891 36.741)">
        <g id="Group_13800" data-name="Group 13800">
          <path id="Path_66019" data-name="Path 66019" d="M250.017,226.954l-1.388-2.114,1.14-1.427a.246.246,0,0,0,.051-.159.516.516,0,0,0-.478-.427.263.263,0,0,0-.229.121l-1.376,1.872v-1.739c0-.178-.21-.255-.414-.255s-.414.076-.414.255h0v4.139c0,.172.2.261.414.261s.414-.089.414-.261v-1.248l.344-.433,1.2,1.815a.323.323,0,0,0,.287.159.5.5,0,0,0,.5-.414A.248.248,0,0,0,250.017,226.954Z" transform="translate(-246.909 -222.827)" fill="#404cdc"/>
        </g>
      </g>
      <g id="Group_13803" data-name="Group 13803" transform="translate(19.407 36.741)">
        <g id="Group_13802" data-name="Group 13802" transform="translate(0 0)">
          <path id="Path_66020" data-name="Path 66020" d="M304.155,226.755h-1.8v-1.28h.968a.288.288,0,0,0,.261-.318c0-.172-.1-.331-.261-.331h-.968v-1.274h1.8c.166,0,.261-.172.261-.369,0-.172-.083-.357-.261-.357h-2.267c-.185,0-.363.089-.363.261v4.133c0,.172.178.261.363.261h2.267c.178,0,.261-.185.261-.357C304.416,226.927,304.321,226.755,304.155,226.755Z" transform="translate(-301.525 -222.826)" fill="#404cdc"/>
        </g>
      </g>
      <g id="Group_13805" data-name="Group 13805" transform="translate(22.476 36.741)">
        <g id="Group_13804" data-name="Group 13804">
          <path id="Path_66021" data-name="Path 66021" d="M352.171,222.827h-2.694c-.178,0-.261.191-.261.369,0,.2.1.376.261.376h.936v3.649c0,.172.2.261.414.261s.414-.089.414-.261v-3.649h.93c.166,0,.261-.178.261-.376C352.432,223.018,352.349,222.827,352.171,222.827Z" transform="translate(-349.216 -222.827)" fill="#404cdc"/>
        </g>
      </g>
    </g>
  </g>
</svg>
