<svg xmlns="http://www.w3.org/2000/svg" width="54" height="54" viewBox="0 0 54 54">
  <g id="Group_14855" data-name="Group 14855" transform="translate(-358 -3804)">
    <g id="Group_13696" data-name="Group 13696" transform="translate(44 1552)">
      <g id="Group_12398" data-name="Group 12398" transform="translate(0 16.199)">
        <g id="Group_7958" data-name="Group 7958" transform="translate(314 2236)">
          <circle id="Ellipse_97" data-name="Ellipse 97" cx="27" cy="27" r="27" transform="translate(0 -0.199)" fill="#f3f6ff"/>
        </g>
      </g>
    </g>
    <path id="Path_65945" data-name="Path 65945" d="M-21154.207-3416.393l4.324-.132v4.094l7.627.561-2.641,5.184s-1.98-.231-2.08-.231-2.023.858-2.023.858-1.84-.825-1.939-.858a14.4,14.4,0,0,0-1.52.4l-.857-.958-1.947-4.391.824-.132Z" transform="translate(21524 7250)" fill="#95dde6"/>
    <path id="Path_65946" data-name="Path 65946" d="M-21147.627-3424.872l3.15-.33v1.93h1.371v4.063H-21149v-3.733h1.373Z" transform="translate(21524 7250)" fill="#95dde6"/>
    <g id="port" transform="translate(368.227 3815.224)">
      <g id="Group_13759" data-name="Group 13759" transform="translate(2.923 19.977)">
        <g id="Group_13758" data-name="Group 13758">
          <path id="Path_65938" data-name="Path 65938" d="M48.977,328H48.49a.487.487,0,0,0-.487.487v.487a.487.487,0,0,0,.487.487h.487a.487.487,0,0,0,.487-.487v-.487A.487.487,0,0,0,48.977,328Z" transform="translate(-48.003 -328.001)" fill="#404cdc"/>
        </g>
      </g>
      <g id="Group_13761" data-name="Group 13761" transform="translate(25.822 25.824)">
        <g id="Group_13760" data-name="Group 13760">
          <path id="Path_65939" data-name="Path 65939" d="M424.977,424h-.487a.487.487,0,0,0-.487.487v.487a.487.487,0,0,0,.487.487h.487a.487.487,0,0,0,.487-.487v-.487A.487.487,0,0,0,424.977,424Z" transform="translate(-424.003 -424.001)" fill="#404cdc"/>
        </g>
      </g>
      <g id="Group_13763" data-name="Group 13763" transform="translate(22.899 25.824)">
        <g id="Group_13762" data-name="Group 13762">
          <path id="Path_65940" data-name="Path 65940" d="M376.977,424h-.487a.487.487,0,0,0-.487.487v.487a.487.487,0,0,0,.487.487h.487a.487.487,0,0,0,.487-.487v-.487A.487.487,0,0,0,376.977,424Z" transform="translate(-376.003 -424.001)" fill="#404cdc"/>
        </g>
      </g>
      <g id="Group_13765" data-name="Group 13765" transform="translate(19.976 25.824)">
        <g id="Group_13764" data-name="Group 13764">
          <path id="Path_65941" data-name="Path 65941" d="M328.977,424h-.487a.487.487,0,0,0-.487.487v.487a.487.487,0,0,0,.487.487h.487a.487.487,0,0,0,.487-.487v-.487A.487.487,0,0,0,328.977,424Z" transform="translate(-328.003 -424.001)" fill="#404cdc"/>
        </g>
      </g>
      <g id="Group_13767" data-name="Group 13767" transform="translate(17.052 25.824)">
        <g id="Group_13766" data-name="Group 13766">
          <path id="Path_65942" data-name="Path 65942" d="M280.977,424h-.487a.487.487,0,0,0-.487.487v.487a.487.487,0,0,0,.487.487h.487a.487.487,0,0,0,.487-.487v-.487A.487.487,0,0,0,280.977,424Z" transform="translate(-280.003 -424.001)" fill="#404cdc"/>
        </g>
      </g>
      <g id="Group_13769" data-name="Group 13769" transform="translate(6.334 0.002)">
        <g id="Group_13768" data-name="Group 13768" transform="translate(0 0)">
          <path id="Path_65943" data-name="Path 65943" d="M126.415,2.925h-3.9V.489a.487.487,0,0,0-.58-.478l-15.1,2.923,0,.009a.48.48,0,0,0-.4.469V5.361a.487.487,0,0,0,.487.487h0v3.41h-.974a.487.487,0,0,0-.487.487h0v1.462h-.974a.487.487,0,0,0-.487.487h0v3.9a.487.487,0,0,0,.487.487h5.847a.487.487,0,0,0,.487-.487h0v-3.9a.487.487,0,0,0-.487-.487h-.975V9.746a.487.487,0,0,0-.487-.487H107.9V5.848h9.176L114.3,23.875H113.26a.487.487,0,0,0-.487.487h0v4.385a.487.487,0,0,0,.487.487h13.155a.487.487,0,0,0,.487-.487h0V24.362a.487.487,0,0,0-.487-.487h-1.044L122.6,5.848h3.817a.487.487,0,0,0,.487-.487h0V3.412A.487.487,0,0,0,126.415,2.925ZM121.542,1.08V2.925h-9.536Zm-11.693,11.1v2.923h-4.872V12.182Zm-1.462-1.949v.974h-1.949v-.974Zm8.662,2.2,5.293,2.646-6.111,2.674Zm4.3-3.618L117.3,10.838l.537-3.491Zm-3.362-2.457.078-.506h3.549L121.943,8Zm7.942,18.495v3.41h-12.18V24.85Zm-1.542-.974h-9.1L116,19.229l8.341,4.39Zm-.224-1.455-7.342-3.864,6.322-2.766Zm-1.254-8.152-5.147-2.573,4.412-2.206Zm3.02-9.394H107.413V3.9h18.514Z" transform="translate(-104.003 -0.002)" fill="#404cdc"/>
        </g>
      </g>
      <g id="Group_13771" data-name="Group 13771" transform="translate(0 18.029)">
        <g id="Group_13770" data-name="Group 13770" transform="translate(0)">
          <path id="Path_65944" data-name="Path 65944" d="M13.719,300.615a.487.487,0,0,0-.413-.229H6.334v-3.9A.487.487,0,0,0,5.847,296H1.462a.487.487,0,0,0-.487.487h0v3.9H.487a.487.487,0,0,0-.443.691l2.372,5.14a1.074,1.074,0,0,1-.144.015,1.1,1.1,0,0,1-.819-.37,2.029,2.029,0,0,0-1.454-.6v.974a1.1,1.1,0,0,1,.819.37,2.049,2.049,0,0,0,2.9.009l.009-.009a1.091,1.091,0,0,1,1.637,0,2.05,2.05,0,0,0,2.9.009l.008-.008a1.1,1.1,0,0,1,1.641,0,2.053,2.053,0,0,0,2.9.006l.006-.006a1.1,1.1,0,0,1,.821-.37v-.974a2.032,2.032,0,0,0-1.454.6,1.1,1.1,0,0,1-.821.37,1.083,1.083,0,0,1-.116-.012l2.494-5.135A.487.487,0,0,0,13.719,300.615Zm-11.77-3.639h3.41v3.41H1.949Zm8.451,8.765a1.923,1.923,0,0,0-1.31-.483,2.03,2.03,0,0,0-1.454.6,1.092,1.092,0,0,1-1.639,0,2.029,2.029,0,0,0-1.454-.6,1.907,1.907,0,0,0-1.283.464L1.249,301.36H12.527Z" transform="translate(0 -296.001)" fill="#404cdc"/>
        </g>
      </g>
    </g>
  </g>
</svg>
