<svg xmlns="http://www.w3.org/2000/svg" width="54" height="54" viewBox="0 0 54 54">
  <g id="Group_14859" data-name="Group 14859" transform="translate(-1278 -3804)">
    <g id="Group_13691" data-name="Group 13691" transform="translate(964 1552)">
      <g id="Group_12398" data-name="Group 12398" transform="translate(0 16.199)">
        <g id="Group_7958" data-name="Group 7958" transform="translate(314 2236)">
          <circle id="Ellipse_97" data-name="Ellipse 97" cx="27" cy="27" r="27" transform="translate(0 -0.199)" fill="#f3f6ff"/>
        </g>
      </g>
    </g>
    <path id="Path_66012" data-name="Path 66012" d="M-20223.176-3432.645h-2.4l-4.594,1.932-3.391,3-2.061,5.365-.385,3.734,1.373,3.992,1.932,3.262,3.047,2.49,5.15,1.8h1.33Z" transform="translate(21524 7250)" fill="#95dde6"/>
    <g id="travel_1_" data-name="travel (1)" transform="translate(1287.645 3816.645)">
      <g id="Group_13787" data-name="Group 13787">
        <g id="Group_13786" data-name="Group 13786">
          <path id="Path_66009" data-name="Path 66009" d="M0,13.374A13.389,13.389,0,0,0,13.374,26.748h.5V0h-.5A13.389,13.389,0,0,0,0,13.374ZM11.58,1.122A14.755,14.755,0,0,0,7.636,6,6.852,6.852,0,0,1,4.963,4.3,12.352,12.352,0,0,1,11.58,1.122ZM4.262,5A7.715,7.715,0,0,0,7.215,6.908a16.275,16.275,0,0,0-1.258,5.971H1A12.331,12.331,0,0,1,4.262,5Zm0,16.744A12.329,12.329,0,0,1,1,13.869H5.956a16.119,16.119,0,0,0,1.265,5.968A7.724,7.724,0,0,0,4.262,21.746Zm.7.705a6.864,6.864,0,0,1,2.682-1.7,15.136,15.136,0,0,0,3.961,4.883A12.346,12.346,0,0,1,4.963,22.452Zm7.915,2.9a13.99,13.99,0,0,1-4.285-4.93,16.666,16.666,0,0,1,4.285-.6Zm0-6.525a17.511,17.511,0,0,0-4.721.683,15.151,15.151,0,0,1-1.212-5.643h5.933Zm0-5.95H6.946A15.149,15.149,0,0,1,8.158,7.236a17.511,17.511,0,0,0,4.721.683Zm0-5.957a16.669,16.669,0,0,1-4.285-.6,13.99,13.99,0,0,1,4.285-4.93Z" fill="#404cdc"/>
          <path id="Path_66010" data-name="Path 66010" d="M253.374,128h-10.9A2.48,2.48,0,0,0,240,130.477v15.851a2.481,2.481,0,0,0,1.981,2.427v2.031h2.972V148.8H250.9v1.981h2.972v-2.031a2.481,2.481,0,0,0,1.981-2.427V130.477A2.48,2.48,0,0,0,253.374,128Zm-8.421.991H250.9v10.4a2.972,2.972,0,0,1-5.944,0Zm-.991,20.8h-.991V148.8h.991Zm8.916,0h-.991V148.8h.991Zm1.981-3.467a1.488,1.488,0,0,1-1.486,1.486h-.5v-4.458h-.991v4.458h-7.925v-4.458h-.991v4.458h-.5a1.488,1.488,0,0,1-1.486-1.486V130.477a1.488,1.488,0,0,1,1.486-1.486h1.486v10.4a3.963,3.963,0,0,0,7.925,0v-10.4h1.486a1.488,1.488,0,0,1,1.486,1.486Z" transform="translate(-225.14 -120.075)" fill="#404cdc"/>
          <path id="Path_66011" data-name="Path 66011" d="M288.991,1.486a.5.5,0,0,1,.5-.5h.5V2.972h5.944V.991h.5a.5.5,0,0,1,.5.5V6.935h.991V1.486A1.488,1.488,0,0,0,296.421,0h-6.935A1.488,1.488,0,0,0,288,1.486V6.935h.991Zm1.981-.5h3.963v.991h-3.963Z" transform="translate(-270.168)" fill="#404cdc"/>
        </g>
      </g>
    </g>
  </g>
</svg>
