<svg xmlns="http://www.w3.org/2000/svg" width="50" height="47.313" viewBox="0 0 50 47.313">
  <g id="Group_13462" data-name="Group 13462" transform="translate(-749 -1843.4)">
    <g id="Group_12921" data-name="Group 12921" transform="translate(749 1843.4)">
      <path id="Path_64701" data-name="Path 64701" d="M8.149-4.54c1.841,0,6.53,6.65,6.53,8.951s-10.632,6.6-12.473,6.6S-2.636,7.006-2.636,4.7,6.308-4.54,8.149-4.54Z" transform="translate(3.379 25.449)" fill="#95dde6"/>
      <path id="Path_64702" data-name="Path 64702" d="M.758-7.042c1.841,0,13.207,19.653,13.207,21.954s-3.612.564-5.587-3.894S-1.217-2.314-1.217-4.615-1.083-7.042.758-7.042Z" transform="translate(25.991 10.448)" fill="#95dde6"/>
      <g id="promotion">
        <path id="Path_64695" data-name="Path 64695" d="M123.429,291.4a.977.977,0,1,0-1.334-.357A.977.977,0,0,0,123.429,291.4Zm0,0" transform="translate(-110.053 -261.296)" fill="#404cdc"/>
        <path id="Path_64696" data-name="Path 64696" d="M9.373,57.014l4.918,8.519a3.906,3.906,0,1,0,6.766-3.906l-2.93-5.075,2.537-1.465a.977.977,0,0,0,.357-1.334l-1.27-2.2,18.705-3.669a2.929,2.929,0,0,0,2.375-4.39l-3.246-5.621,2.074-3.141a.977.977,0,0,0,.031-1.027l-1.953-3.383a.979.979,0,0,0-.9-.486l-3.757.225-3.6-6.241a2.9,2.9,0,0,0-2.5-1.464h-.037a2.9,2.9,0,0,0-2.467,1.351L11.712,39.958,3.418,44.746A6.836,6.836,0,0,0,9.373,57.014Zm9.993,5.59a1.953,1.953,0,0,1-3.383,1.953L11.1,56.1l3.383-1.953L19.366,62.6Zm-2.215-7.744-.977-1.691,1.691-.977.977,1.691Zm19.2-23.038,1.35,2.338-1.2,1.823-2.326-4.029ZM26.1,24.777a.976.976,0,0,1,1.679.019L39.14,44.471a.976.976,0,0,1-.822,1.464,3.584,3.584,0,0,0-.536.091L25.768,25.215c.252-.324.285-.356.335-.438ZM24.468,26.87,35.757,46.423,18.72,49.765l-5.18-8.973ZM2.608,53.107a4.88,4.88,0,0,1,1.787-6.67l7.611-4.395L16.889,50.5,9.278,54.895a4.889,4.889,0,0,1-6.67-1.788Zm0,0" transform="translate(0 -20.172)" fill="#404cdc"/>
        <path id="Path_64697" data-name="Path 64697" d="M48.864,310.061a.977.977,0,0,0-1.334-.357l-1.691.977a.978.978,0,0,1-1.334-.357.977.977,0,0,0-1.691.977,2.934,2.934,0,0,0,4,1.072l1.691-.977a.977.977,0,0,0,.357-1.334Zm0,0" transform="translate(-38.514 -279.341)" fill="#404cdc"/>
        <path id="Path_64698" data-name="Path 64698" d="M442.219,42.6l-5.442,3.028a.977.977,0,0,0,.95,1.707l5.441-3.028a.977.977,0,0,0-.949-1.707Zm0,0" transform="translate(-393.67 -38.332)" fill="#404cdc"/>
        <path id="Path_64699" data-name="Path 64699" d="M445.066,137.665l-3.773-1.011a.976.976,0,1,0-.505,1.886l3.773,1.011a.976.976,0,1,0,.505-1.886Zm0,0" transform="translate(-397.088 -123.279)" fill="#404cdc"/>
        <path id="Path_64700" data-name="Path 64700" d="M384.538.724,383.526,4.5A.977.977,0,0,0,385.413,5l1.012-3.774a.977.977,0,1,0-1.886-.506Zm0,0" transform="translate(-346.042 0)" fill="#404cdc"/>
      </g>
    </g>
  </g>
</svg>
