<svg xmlns="http://www.w3.org/2000/svg" width="50" height="30.948" viewBox="0 0 50 30.948">
  <g id="Group_12929" data-name="Group 12929" transform="translate(-1238 -2432.772)">
    <path id="Path_64746" data-name="Path 64746" d="M-6002.664-17069.076l1.99.365.543,1.264-.543,1.266h-1.267l-.724-.812Z" transform="translate(7280.842 19523.971)" fill="#95dde6"/>
    <path id="Path_64747" data-name="Path 64747" d="M-6002.443-17068.988l1.99-.32,1.184,2.8-1.184.418h-1.267l-1.542-.418Z" transform="translate(7280.621 19529.361)" fill="#95dde6"/>
    <g id="Group_12928" data-name="Group 12928" transform="translate(1238 2432.772)">
      <path id="Path_64242" data-name="Path 64242" d="M-6003.533-17066.871l11.757,3.686,7.026-2.365,5.844-1.67.487.9v3.479l-1.6,1.043-1.947,1.32-3.34,1.395-3.826,1.975h-3.713l-11.1-6.08Z" transform="translate(6016.345 17079.561)" fill="#95dde6"/>
      <path id="mortarboard_2_" data-name="mortarboard (2)" d="M49.607,95.093,25.148,88.167a.541.541,0,0,0-.294,0L.394,95.093a.54.54,0,0,0-.047,1.024l11.812,4.555-.413,3.277a1.984,1.984,0,0,0,1,1.967c2.248,1.394,9.344,4.812,11.474,5.322a3.435,3.435,0,0,0,1.854,0c2.129-.509,9.225-3.927,11.475-5.322a1.984,1.984,0,0,0,1-1.966l-.427-3.383,2.627-1.013v10.273a2.018,2.018,0,0,0-.678,3.557q-.184.815-.4,1.627a.535.535,0,0,0-.054.2c-.282,1.026-.6,2.046-.962,3.047a.54.54,0,0,0,.449.719,19.964,19.964,0,0,0,4.374,0,.54.54,0,0,0,.449-.719,41.959,41.959,0,0,1-1.418-4.872,2.018,2.018,0,0,0-.678-3.557V99.137l7.829-3.019a.54.54,0,0,0-.048-1.024Zm-9.712,22.87q.366-1.077.675-2.173H42q.309,1.094.675,2.173A18.885,18.885,0,0,1,39.895,117.963Zm1.815-3.253H40.86q.118-.462.224-.925c.066.007.133.01.2.01s.135,0,.2-.01Q41.593,114.248,41.71,114.71Zm.516-2.937a.942.942,0,1,1-.942-.941A.943.943,0,0,1,42.226,111.773Zm-5.1-10.39-4.66,1.8a.54.54,0,1,0,.389,1.008l4.411-1.7.075.591-2.254.869a.54.54,0,1,0,.389,1.008l2-.77a.914.914,0,0,1-.475.8l-.018.011a70.267,70.267,0,0,1-11.173,5.2l-.023.006a2.355,2.355,0,0,1-1.288,0l-.023-.006a70.261,70.261,0,0,1-11.172-5.2l-.018-.011a.924.924,0,0,1-.468-.682l1.7.656a.54.54,0,0,0,.389-1.008l-1.979-.763.075-.591,4.136,1.6a.54.54,0,0,0,.389-1.008l-4.386-1.691.052-.416,11.609,4.477a.54.54,0,0,0,.389,0l11.884-4.583Zm3.744-3.038L25.11,95.084a.54.54,0,0,0-.219,1.058l14.121,2.92L25,104.466,2.247,95.692,25,89.249l22.754,6.443Z" transform="translate(-0.001 -88.147)" fill="#404cdc"/>
    </g>
  </g>
</svg>
