<svg xmlns="http://www.w3.org/2000/svg" width="50" height="44.071" viewBox="0 0 50 44.071">
  <g id="Group_12920" data-name="Group 12920" transform="translate(-642.258 -2422.599)">
    <g id="Group_12919" data-name="Group 12919" transform="translate(651.93 2429.467)">
      <path id="Path_64694" data-name="Path 64694" d="M-6591.471-17060.734h47.285v3.535h-47.285Z" transform="translate(6583.081 17073.838)" fill="#95dde6"/>
    </g>
    <g id="basket" transform="translate(642.258 2422.599)">
      <path id="Path_64685" data-name="Path 64685" d="M38.15,129.379a.462.462,0,0,0,.093-.01l1.318-.271a.462.462,0,0,0-.186-.9l-1.318.271a.462.462,0,0,0,.093.914Zm0,0" transform="translate(-35.37 -115.457)" fill="#404cdc"/>
      <path id="Path_64686" data-name="Path 64686" d="M87.274,156.318a.464.464,0,0,0,.094-.01l1.318-.271a.462.462,0,1,0-.186-.9l-1.318.271a.462.462,0,0,0,.093.914Zm0,0" transform="translate(-78.095 -139.722)" fill="#404cdc"/>
      <path id="Path_64687" data-name="Path 64687" d="M49.054,18.726V17.282a3.557,3.557,0,0,0-.873-2.334l-2.322-2.672a2.09,2.09,0,0,1-.513-1.372V7.75a1.3,1.3,0,0,0,1.241-1.3V1.3a1.3,1.3,0,0,0-1.3-1.3H36.965a1.3,1.3,0,0,0-1.3,1.3V6.452A1.3,1.3,0,0,0,36.8,7.743V10.9a2.092,2.092,0,0,1-.513,1.372l-2.217,2.55-.023-.037-.957-1.449a1.316,1.316,0,0,0,.751-1.187V9.426A1.317,1.317,0,0,0,32.53,8.111H22.508a.733.733,0,1,0,0,1.466h9.872V12H16.1V9.577h3.015a.733.733,0,0,0,0-1.466H15.953a1.317,1.317,0,0,0-1.316,1.315v2.727a1.316,1.316,0,0,0,.751,1.187l-.957,1.449c-.015.023-.028.047-.043.07a24.724,24.724,0,0,0-.586-2.736A5.8,5.8,0,0,0,8.825,7.87,9.009,9.009,0,0,0,7.72,7.82L8.811,5.81a.733.733,0,0,0-1.289-.7L6.734,6.562l-.556-2.7a.733.733,0,0,0-1.436.3l.556,2.7L4,5.835a.733.733,0,0,0-.907,1.152L4.89,8.4a8.927,8.927,0,0,0-1,.483A5.8,5.8,0,0,0,1,14.759a25.488,25.488,0,0,0,.875,3.934H1.222A1.223,1.223,0,0,0,0,19.915v3.793A1.223,1.223,0,0,0,1.222,24.93H2.976l.561,3.231a.733.733,0,1,0,1.445-.251l-.518-2.98H45.536L42.975,39.683A3.518,3.518,0,0,1,39.5,42.6h-29a3.518,3.518,0,0,1-3.473-2.922L5.564,31.262a.733.733,0,1,0-1.445.251l1.462,8.421A4.982,4.982,0,0,0,10.5,44.071h29a4.982,4.982,0,0,0,4.918-4.137l2.605-15h1.754A1.223,1.223,0,0,0,50,23.708V19.915a1.224,1.224,0,0,0-.946-1.189ZM37.13,1.466H45.12V6.287H37.13ZM34.563,17.282a2.09,2.09,0,0,1,.513-1.372L37.4,13.238a3.558,3.558,0,0,0,.873-2.334V7.753h5.608V10.9a3.56,3.56,0,0,0,.873,2.334l2.323,2.672a2.092,2.092,0,0,1,.513,1.372v1.411H34.563Zm-19.175-.795a1.609,1.609,0,0,1,.268-.89l1.406-2.128H31.422L32.828,15.6a1.609,1.609,0,0,1,.268.89v2.206H31.143V17a1.223,1.223,0,0,0-1.222-1.222H18.562A1.223,1.223,0,0,0,17.34,17v1.7H15.387Zm14.29.754v1.452H18.806V17.241Zm-25.06-7.08a7.683,7.683,0,0,1,1.95-.769,7.313,7.313,0,0,1,1.294-.108,7.44,7.44,0,0,1,.8.043,4.343,4.343,0,0,1,3.724,3.186,25.27,25.27,0,0,1,.858,6.179H3.417a24.452,24.452,0,0,1-.963-4.134,4.343,4.343,0,0,1,2.163-4.4Zm43.917,13.3H1.467v-3.3H14.438a.736.736,0,0,0,.216.032h19a.746.746,0,0,0,.179.023H48.321a.741.741,0,0,0,.213-.032Zm0,0" transform="translate(0 0)" fill="#404cdc"/>
      <path id="Path_64688" data-name="Path 64688" d="M104.248,294.932a.455.455,0,0,0,.087-.008.462.462,0,0,0,.367-.54l-1.186-6.218a.462.462,0,0,0-.907.173l1.187,6.219A.462.462,0,0,0,104.248,294.932Zm0,0" transform="translate(-92.314 -253.775)" fill="#404cdc"/>
      <path id="Path_64689" data-name="Path 64689" d="M197.626,294.933h.039a.462.462,0,0,0,.422-.5l-.519-6.218a.462.462,0,1,0-.92.077l.519,6.218A.462.462,0,0,0,197.626,294.933Zm0,0" transform="translate(-177.101 -253.777)" fill="#404cdc"/>
      <path id="Path_64690" data-name="Path 64690" d="M375.554,294.932a.462.462,0,0,0,.453-.375l1.187-6.218a.462.462,0,0,0-.907-.173l-1.186,6.218a.462.462,0,0,0,.367.54.453.453,0,0,0,.087.008Zm0,0" transform="translate(-337.488 -253.775)" fill="#404cdc"/>
      <path id="Path_64691" data-name="Path 64691" d="M292.362,294.93a.462.462,0,0,0,.46-.423l.519-6.218a.462.462,0,1,0-.92-.077l-.519,6.218a.462.462,0,0,0,.422.5Zm0,0" transform="translate(-262.887 -253.773)" fill="#404cdc"/>
    </g>
  </g>
</svg>
