<svg xmlns="http://www.w3.org/2000/svg" width="53.385" height="30" viewBox="0 0 53.385 30">
  <g id="Group_12918" data-name="Group 12918" transform="translate(-732 -3068)">
    <path id="Path_64683" data-name="Path 64683" d="M1.542,0C2.708,0,5.686.349,5.686.349L4.984,7.9,5.2,11.17v6.213s-.219,1.145-.219,1.367-.364,0-.364,0-.238,4.491-.529,4.577A39.629,39.629,0,0,1,0,22.525a47.061,47.061,0,0,0,.535-5.143C.535,15.666.8,8.705.8,8.705S.376,0,1.542,0Z" transform="matrix(-0.07, -0.998, 0.998, -0.07, 747.255, 3086.374)" fill="#95dde6"/>
    <g id="Clocks_1_" transform="translate(732 3068)">
      <path id="Clocks" d="M52.569,24.21a2.806,2.806,0,0,0-2.142-1.047H49.214v-.979a3.308,3.308,0,0,0-3.406-3.191h-1.6V17.185a3.155,3.155,0,0,0-.994-2.278,3.525,3.525,0,0,0-4.684,0,3.156,3.156,0,0,0-1,2.279v8.481H15.849V17.186a3.152,3.152,0,0,0-.994-2.278,3.525,3.525,0,0,0-4.684,0,3.153,3.153,0,0,0-1,2.278v1.808H7.382a3.317,3.317,0,0,0-2.246.857,2.944,2.944,0,0,0-.965,2.155v1.158H2.97A2.816,2.816,0,0,0,.818,24.214,3.665,3.665,0,0,0,0,26.56v4.885A3.661,3.661,0,0,0,.819,33.79a2.816,2.816,0,0,0,2.15,1.051h1.2V36a2.945,2.945,0,0,0,.967,2.156,3.313,3.313,0,0,0,2.245.857H9.175v1.808A3.152,3.152,0,0,0,10.17,43.1a3.441,3.441,0,0,0,4.684,0,3.151,3.151,0,0,0,.994-2.277V32.339H37.536v8.481A3.152,3.152,0,0,0,38.53,43.1a3.441,3.441,0,0,0,4.684,0,3.155,3.155,0,0,0,.994-2.277V39.012h1.6a3.308,3.308,0,0,0,3.406-3.191v-.979h1.213a2.811,2.811,0,0,0,2.143-1.047,3.646,3.646,0,0,0,.816-2.336V26.547A3.649,3.649,0,0,0,52.569,24.21ZM2.97,33.173a1.142,1.142,0,0,1-.868-.45,2.016,2.016,0,0,1-.433-1.278V26.56A2.017,2.017,0,0,1,2.1,25.282a1.142,1.142,0,0,1,.868-.45h1.2v8.341Zm4.413,4.171a1.667,1.667,0,0,1-1.117-.418A1.255,1.255,0,0,1,5.839,36V22.005a1.254,1.254,0,0,1,.425-.926,1.672,1.672,0,0,1,1.119-.419H9.175V37.344H7.382Zm6.8,3.476a1.458,1.458,0,0,1-.471,1.064,1.838,1.838,0,0,1-2.393,0,1.457,1.457,0,0,1-.472-1.064V17.185a1.458,1.458,0,0,1,.471-1.064,1.774,1.774,0,0,1,2.394,0,1.46,1.46,0,0,1,.471,1.065V40.819ZM15.849,30.67V27.334H37.536V30.67ZM42.541,40.819a1.458,1.458,0,0,1-.471,1.064,1.838,1.838,0,0,1-2.393,0,1.457,1.457,0,0,1-.472-1.064V17.186a1.458,1.458,0,0,1,.471-1.064,1.774,1.774,0,0,1,2.394,0,1.456,1.456,0,0,1,.471,1.064V40.819Zm5-5a1.643,1.643,0,0,1-1.738,1.523h-1.6V20.661h1.6a1.643,1.643,0,0,1,1.738,1.523V35.82Zm4.171-4.363a2.007,2.007,0,0,1-.429,1.268,1.132,1.132,0,0,1-.861.447H49.214V24.832h1.213a1.132,1.132,0,0,1,.861.447,2,2,0,0,1,.429,1.268Z" transform="translate(0 -14.017)" fill="#404cdc"/>
    </g>
  </g>
</svg>
