<svg xmlns="http://www.w3.org/2000/svg" width="50" height="50" viewBox="0 0 50 50">
  <g id="Group_12938" data-name="Group 12938" transform="translate(-1274 -3116)">
    <path id="Path_64757" data-name="Path 64757" d="M-69.8-49.3l4.721-.108,2.752,2.886-.108,3.831-1.349,3.237-4.37.782-3.318-2.374-.944-3.534.836-2.482Z" transform="translate(1366.199 3181.092)" fill="#95dde6"/>
    <path id="Path_64764" data-name="Path 64764" d="M-53.974-15h1.628l1.367.326,1.014,2.669-1.014,1.888-1.367.391-2.344-.391-.977-1.526.26-1.888Z" transform="translate(1336.926 3138.422)" fill="#95dde6"/>
    <path id="Path_64765" data-name="Path 64765" d="M-53.924-8.985l1.578-.148,1.149.9,1.233,1.526-1.014,1.888-1.367,1.172-3.06-.5-.26-2.195.26-1.888Z" transform="translate(1330.871 3147.385)" fill="#95dde6"/>
    <path id="Path_64758" data-name="Path 64758" d="M-38.259-15.8l3.213-.5,1.413,1.6.593,1.869-1.5,1.277-3.282.389-1.459-1.3V-14.39l.456-.638Z" transform="translate(1350.27 3139.697)" fill="#95dde6"/>
    <path id="Path_64763" data-name="Path 64763" d="M-27.181-6.5h1.27l1.768.638,1.113,2.633L-24.886-1.08l-2.686-.391-1.2-1.758V-4.693l.71-1.168Z" transform="translate(1324.961 3123.428)" fill="#95dde6"/>
    <path id="Path_64759" data-name="Path 64759" d="M-38.259-15.8l3.213-.5,1.413,1.6.593,1.869-1.5,1.277-1.707,1.3-3.034-2.217V-14.39l.456-.638Z" transform="translate(1320.192 3169.58)" fill="#95dde6"/>
    <path id="Path_64760" data-name="Path 64760" d="M-38.2-18.4l3.157.2,1.413,1.6-.362,1.706-.55.528v.912l-1.707,1.3-3.034-2.217v-1.915l.456-.638Z" transform="translate(1335.817 3178.115)" fill="#95dde6"/>
    <path id="Path_64761" data-name="Path 64761" d="M-38.2-18.4l3.157.2,1.413,1.6-.362,1.706-.55.528v.912l-1.707,1.3-3.034-2.217v-1.915l.456-.638Z" transform="translate(1350.856 3171.474)" fill="#95dde6"/>
    <path id="Path_64762" data-name="Path 64762" d="M-38.2-18.4l3.157.2,1.413,1.6-.362,1.706-.55.528v.912l-1.814.412-2.928-1.324v-1.915l.456-.638Z" transform="translate(1356.618 3156.826)" fill="#95dde6"/>
    <g id="social-media" transform="translate(1274 3116)">
      <path id="Path_64754" data-name="Path 64754" d="M46.339,21.338a3.669,3.669,0,0,0-3.589,2.93H41.195a16.149,16.149,0,0,0-4.23-10.2l1.1-1.1a3.659,3.659,0,1,0-1.036-1.036l-1.1,1.105a16.149,16.149,0,0,0-10.2-4.231V7.251a3.662,3.662,0,1,0-1.465,0V8.807a16.147,16.147,0,0,0-10.2,4.231l-1.105-1.105a3.658,3.658,0,1,0-1.036,1.036l1.1,1.1a16.149,16.149,0,0,0-4.23,10.2H7.251a3.662,3.662,0,1,0,0,1.465H8.807a16.151,16.151,0,0,0,4.23,10.2l-1.1,1.1a3.659,3.659,0,1,0,1.036,1.036l1.1-1.105a16.147,16.147,0,0,0,10.2,4.231V42.75a3.662,3.662,0,1,0,1.465,0V41.194a16.147,16.147,0,0,0,10.2-4.231l1.105,1.105a3.658,3.658,0,1,0,1.036-1.036l-1.1-1.1a16.15,16.15,0,0,0,4.23-10.2h1.556a3.662,3.662,0,1,0,3.588-4.395Zm-7.8-12.98a2.2,2.2,0,1,1-.644,1.554,2.184,2.184,0,0,1,.644-1.554ZM22.8,3.663A2.2,2.2,0,1,1,25,5.86,2.2,2.2,0,0,1,22.8,3.663Zm-14.445,7.8a2.2,2.2,0,1,1,1.554.644A2.183,2.183,0,0,1,8.359,11.466ZM3.663,27.2A2.2,2.2,0,1,1,5.86,25,2.2,2.2,0,0,1,3.663,27.2Zm7.8,14.445a2.2,2.2,0,1,1,.644-1.554A2.183,2.183,0,0,1,11.466,41.643Zm15.732,4.7a2.2,2.2,0,1,1-2.2-2.2A2.2,2.2,0,0,1,27.2,46.338Zm14.445-7.8a2.2,2.2,0,1,1-1.554-.644,2.184,2.184,0,0,1,1.554.644ZM25,39.747A14.746,14.746,0,1,1,39.747,25,14.763,14.763,0,0,1,25,39.747ZM46.339,27.2a2.2,2.2,0,1,1,2.2-2.2A2.2,2.2,0,0,1,46.339,27.2Zm0,0" transform="translate(-0.001 0)" fill="#404cdc"/>
      <path id="Path_64755" data-name="Path 64755" d="M210.334,157.007v-1.465a5.542,5.542,0,1,0-11.084,0v1.465a5.542,5.542,0,0,0,11.084,0Zm-9.619,0v-1.465a4.077,4.077,0,1,1,8.154,0v1.465a4.077,4.077,0,0,1-8.154,0Zm0,0" transform="translate(-179.792 -135.352)" fill="#404cdc"/>
      <path id="Path_64756" data-name="Path 64756" d="M133.281,120a13.143,13.143,0,0,0-8.231,2.858.732.732,0,1,0,.909,1.149,11.693,11.693,0,0,1,7.323-2.542,11.811,11.811,0,0,1,9.5,18.833,6.582,6.582,0,0,0-5.742-3.354h-7.52a6.582,6.582,0,0,0-5.742,3.354,11.805,11.805,0,0,1,.228-14.339.732.732,0,1,0-1.149-.909,13.267,13.267,0,0,0,.5,17.051.727.727,0,0,0,.127.141,13.261,13.261,0,0,0,19.589,0,.734.734,0,0,0,.127-.142,13.274,13.274,0,0,0-9.921-22.1Zm0,25.1a11.781,11.781,0,0,1-8.47-3.586,5.119,5.119,0,0,1,4.71-3.1h7.52a5.119,5.119,0,0,1,4.71,3.1A11.781,11.781,0,0,1,133.281,145.1Zm0,0" transform="translate(-108.281 -108.281)" fill="#404cdc"/>
    </g>
  </g>
</svg>
