<svg xmlns="http://www.w3.org/2000/svg" width="50" height="50" viewBox="0 0 50 50">
  <g id="Group_13458" data-name="Group 13458" transform="translate(-685.855 -2099.4)">
    <path id="Path_64384" data-name="Path 64384" d="M-6593.646-16709.062c.949,0,1.895-4.629,3.853-4.875,2.63-.32,6.534,3.539,6.534,3.539l2.664-1.1,6.289.707,3.145,2.2,3.066-2.2h2.516l2.2,1.02,1.887,5.742h-12.813s-2.123-.488-2.123,0-2.044,0-2.044,0-2.92-.84-3.7-.645-10.455.645-10.455.645-5.817,2.207-5.817-1.574.864-1.8.864-1.8S-6596.746-16709.062-6593.646-16709.062Z" transform="translate(7292.697 18852.729)" fill="#95dde6"/>
    <g id="apartment" transform="translate(685.855 2099.4)">
      <g id="Group_12923" data-name="Group 12923" transform="translate(0 0)">
        <g id="Group_12922" data-name="Group 12922" transform="translate(0 0)">
          <path id="Path_64703" data-name="Path 64703" d="M48.167,47.334H44.782a6.486,6.486,0,0,0,.052-.833A5.8,5.8,0,0,0,41.5,41.219V13.168a.787.787,0,0,0-.833-.833h-12.5V-.166A.787.787,0,0,0,27.333-1H4.833A.787.787,0,0,0,4-.166v47.5H-.167A.787.787,0,0,0-1,48.167.787.787,0,0,0-.167,49H48.167a.833.833,0,0,0,0-1.667Zm-8.333-6.608A6.017,6.017,0,0,0,39,40.667a5.628,5.628,0,0,0-1.829.307.809.809,0,0,0-.671-.307.787.787,0,0,0-.833.833v.255a5.836,5.836,0,0,0-.876.776q-.063.067-.124.136a5.28,5.28,0,0,0-2.586-1.792.841.841,0,0,0-.581-.208.986.986,0,0,0-.26.034,4.938,4.938,0,0,0-.573-.034,4.384,4.384,0,0,0-1.587.261c-.059.02-.118.04-.176.062A5.2,5.2,0,0,0,26.945,40l-.023-.006c-.062-.016-.124-.031-.186-.045s-.1-.021-.153-.03l-.067-.012-.162-.025-.073-.009-.15-.017-.11-.009L25.9,39.84c-.079,0-.158-.006-.238-.006q-.092,0-.183,0l-.119.006-.048,0a4.9,4.9,0,0,0-2.151.644V14H39.833V40.726ZM5.667.668H26.5V12.334H22.333a.787.787,0,0,0-.833.833V39.084a6.037,6.037,0,0,0-1.451-1.068l-.143-.073-.056-.028a5.769,5.769,0,0,0-1.918-.549l-.029,0q-.118-.012-.237-.019l-.063,0c-.09,0-.179-.007-.27-.007A5.654,5.654,0,0,0,14,38.428v-.26a.833.833,0,1,0-1.667,0v1.667a.947.947,0,0,0,.06.341,6.008,6.008,0,0,0-.81,2.242A5.66,5.66,0,0,0,9,43.389v-.221a.787.787,0,0,0-.833-.833.787.787,0,0,0-.833.833v1.667a.978.978,0,0,0,.037.271,5.812,5.812,0,0,0-.81,2.229H5.667V.668Zm6.287,43.351.05,0,.132-.009c.065,0,.131,0,.2,0a.787.787,0,0,0,.833-.833A4.126,4.126,0,0,1,17.333,39a4.065,4.065,0,0,1,4.083,3.583.9.9,0,0,0,.373.535l.035.023.039.023a.862.862,0,0,0,.1.046l0,0a.927.927,0,0,0,.119.038h0a.48.48,0,0,0,.166.021.806.806,0,0,0,.668-.354h0L23,42.834A3.355,3.355,0,0,1,25.667,41.5a3.24,3.24,0,0,1,1.63.452,5.061,5.061,0,0,0-1.623,3.457q-.007.128-.007.258a4.9,4.9,0,0,0,.287,1.667H8.25A4.2,4.2,0,0,1,11.954,44.018Zm15.967,3.316a3.557,3.557,0,0,1-.5-1.75,3.255,3.255,0,0,1,.988-2.358,3.374,3.374,0,0,1,.381-.305.837.837,0,0,0,.381-.086,3.278,3.278,0,0,1,4.667,1.75.756.756,0,0,0,.75.5.575.575,0,0,0,.254-.07.7.7,0,0,0,.5-.43,3.834,3.834,0,0,1,1.432-1.618.765.765,0,0,0,.334-.189,4.226,4.226,0,0,1,1.9-.442A4.126,4.126,0,0,1,43.167,46.5a2.836,2.836,0,0,1-.083.833H27.921Z" transform="translate(1 0.999)" fill="#404cdc"/>
          <path id="Path_64704" data-name="Path 64704" d="M272.9,220.867a.787.787,0,0,0-.833.833v1.667a.833.833,0,0,0,1.667,0V221.7A.787.787,0,0,0,272.9,220.867Z" transform="translate(-245.4 -199.2)" fill="#404cdc"/>
          <path id="Path_64705" data-name="Path 64705" d="M272.9,374.467a.787.787,0,0,0-.833.833v1.667a.833.833,0,1,0,1.667,0V375.3A.787.787,0,0,0,272.9,374.467Z" transform="translate(-245.4 -337.8)" fill="#404cdc"/>
          <path id="Path_64706" data-name="Path 64706" d="M272.9,272.067a.787.787,0,0,0-.833.833v1.667a.833.833,0,0,0,1.667,0V272.9A.787.787,0,0,0,272.9,272.067Z" transform="translate(-245.4 -245.4)" fill="#404cdc"/>
          <path id="Path_64707" data-name="Path 64707" d="M272.9,323.267a.787.787,0,0,0-.833.833v1.667a.833.833,0,1,0,1.667,0V324.1A.787.787,0,0,0,272.9,323.267Z" transform="translate(-245.4 -291.6)" fill="#404cdc"/>
          <path id="Path_64708" data-name="Path 64708" d="M272.9,169.667a.787.787,0,0,0-.833.833v1.667a.833.833,0,1,0,1.667,0V170.5A.787.787,0,0,0,272.9,169.667Z" transform="translate(-245.4 -153)" fill="#404cdc"/>
          <path id="Path_64709" data-name="Path 64709" d="M324.1,224.2a.787.787,0,0,0,.833-.833V221.7a.833.833,0,1,0-1.667,0v1.667A.787.787,0,0,0,324.1,224.2Z" transform="translate(-291.6 -199.2)" fill="#404cdc"/>
          <path id="Path_64710" data-name="Path 64710" d="M324.1,173a.787.787,0,0,0,.833-.833V170.5a.833.833,0,1,0-1.667,0v1.667A.787.787,0,0,0,324.1,173Z" transform="translate(-291.6 -153)" fill="#404cdc"/>
          <path id="Path_64711" data-name="Path 64711" d="M324.1,275.4a.787.787,0,0,0,.833-.833V272.9a.833.833,0,0,0-1.667,0v1.667A.787.787,0,0,0,324.1,275.4Z" transform="translate(-291.6 -245.4)" fill="#404cdc"/>
          <path id="Path_64712" data-name="Path 64712" d="M324.1,326.6a.787.787,0,0,0,.833-.833V324.1a.833.833,0,1,0-1.667,0v1.667A.787.787,0,0,0,324.1,326.6Z" transform="translate(-291.6 -291.6)" fill="#404cdc"/>
          <path id="Path_64713" data-name="Path 64713" d="M324.1,377.8a.787.787,0,0,0,.833-.833V375.3a.833.833,0,1,0-1.667,0v1.667A.787.787,0,0,0,324.1,377.8Z" transform="translate(-291.6 -337.8)" fill="#404cdc"/>
          <path id="Path_64714" data-name="Path 64714" d="M375.3,275.4a.787.787,0,0,0,.833-.833V272.9a.833.833,0,0,0-1.667,0v1.667A.787.787,0,0,0,375.3,275.4Z" transform="translate(-337.8 -245.4)" fill="#404cdc"/>
          <path id="Path_64715" data-name="Path 64715" d="M375.3,224.2a.787.787,0,0,0,.833-.833V221.7a.833.833,0,1,0-1.667,0v1.667A.787.787,0,0,0,375.3,224.2Z" transform="translate(-337.8 -199.2)" fill="#404cdc"/>
          <path id="Path_64716" data-name="Path 64716" d="M375.3,377.8a.787.787,0,0,0,.833-.833V375.3a.833.833,0,0,0-1.667,0v1.667A.787.787,0,0,0,375.3,377.8Z" transform="translate(-337.8 -337.8)" fill="#404cdc"/>
          <path id="Path_64717" data-name="Path 64717" d="M375.3,326.6a.787.787,0,0,0,.833-.833V324.1a.833.833,0,1,0-1.667,0v1.667A.787.787,0,0,0,375.3,326.6Z" transform="translate(-337.8 -291.6)" fill="#404cdc"/>
          <path id="Path_64718" data-name="Path 64718" d="M375.3,173a.787.787,0,0,0,.833-.833V170.5a.833.833,0,0,0-1.667,0v1.667A.787.787,0,0,0,375.3,173Z" transform="translate(-337.8 -153)" fill="#404cdc"/>
          <path id="Path_64719" data-name="Path 64719" d="M85.167,292.467a.787.787,0,0,0,.833-.833v-1.667a.833.833,0,0,0-1.667,0v1.667A.787.787,0,0,0,85.167,292.467Z" transform="translate(-76.001 -260.801)" fill="#404cdc"/>
          <path id="Path_64720" data-name="Path 64720" d="M85.167,343.667a.787.787,0,0,0,.833-.833v-1.667a.833.833,0,1,0-1.667,0v1.667A.787.787,0,0,0,85.167,343.667Z" transform="translate(-76.001 -307.001)" fill="#404cdc"/>
          <path id="Path_64721" data-name="Path 64721" d="M85.167,394.867a.787.787,0,0,0,.833-.833v-1.667a.833.833,0,1,0-1.667,0v1.667A.787.787,0,0,0,85.167,394.867Z" transform="translate(-76.001 -353.201)" fill="#404cdc"/>
          <path id="Path_64722" data-name="Path 64722" d="M85.167,36.467A.787.787,0,0,0,86,35.634V33.967a.833.833,0,1,0-1.667,0v1.667A.787.787,0,0,0,85.167,36.467Z" transform="translate(-76.001 -29.801)" fill="#404cdc"/>
          <path id="Path_64723" data-name="Path 64723" d="M85.167,87.667A.787.787,0,0,0,86,86.834V85.167a.833.833,0,0,0-1.667,0v1.667A.787.787,0,0,0,85.167,87.667Z" transform="translate(-76.001 -76.001)" fill="#404cdc"/>
          <path id="Path_64724" data-name="Path 64724" d="M85.167,138.867a.787.787,0,0,0,.833-.833v-1.667a.833.833,0,0,0-1.667,0v1.667A.787.787,0,0,0,85.167,138.867Z" transform="translate(-76.001 -122.201)" fill="#404cdc"/>
          <path id="Path_64725" data-name="Path 64725" d="M85.167,190.067a.787.787,0,0,0,.833-.833v-1.667a.833.833,0,0,0-1.667,0v1.667A.787.787,0,0,0,85.167,190.067Z" transform="translate(-76.001 -168.401)" fill="#404cdc"/>
          <path id="Path_64726" data-name="Path 64726" d="M85.167,241.267a.787.787,0,0,0,.833-.833v-1.667a.833.833,0,1,0-1.667,0v1.667A.787.787,0,0,0,85.167,241.267Z" transform="translate(-76.001 -214.601)" fill="#404cdc"/>
          <path id="Path_64727" data-name="Path 64727" d="M136.367,87.667a.787.787,0,0,0,.833-.833V85.167a.833.833,0,1,0-1.667,0v1.667A.787.787,0,0,0,136.367,87.667Z" transform="translate(-122.201 -76.001)" fill="#404cdc"/>
          <path id="Path_64728" data-name="Path 64728" d="M136.367,36.467a.787.787,0,0,0,.833-.833V33.967a.833.833,0,1,0-1.667,0v1.667A.787.787,0,0,0,136.367,36.467Z" transform="translate(-122.201 -29.801)" fill="#404cdc"/>
          <path id="Path_64729" data-name="Path 64729" d="M136.367,190.067a.787.787,0,0,0,.833-.833v-1.667a.833.833,0,0,0-1.667,0v1.667A.787.787,0,0,0,136.367,190.067Z" transform="translate(-122.201 -168.401)" fill="#404cdc"/>
          <path id="Path_64730" data-name="Path 64730" d="M136.367,138.867a.787.787,0,0,0,.833-.833v-1.667a.833.833,0,0,0-1.667,0v1.667A.787.787,0,0,0,136.367,138.867Z" transform="translate(-122.201 -122.201)" fill="#404cdc"/>
          <path id="Path_64731" data-name="Path 64731" d="M136.367,241.267a.787.787,0,0,0,.833-.833v-1.667a.833.833,0,1,0-1.667,0v1.667A.787.787,0,0,0,136.367,241.267Z" transform="translate(-122.201 -214.601)" fill="#404cdc"/>
          <path id="Path_64732" data-name="Path 64732" d="M136.367,292.467a.787.787,0,0,0,.833-.833v-1.667a.833.833,0,0,0-1.667,0v1.667A.787.787,0,0,0,136.367,292.467Z" transform="translate(-122.201 -260.801)" fill="#404cdc"/>
          <path id="Path_64733" data-name="Path 64733" d="M136.367,343.667a.787.787,0,0,0,.833-.833v-1.667a.833.833,0,1,0-1.667,0v1.667A.787.787,0,0,0,136.367,343.667Z" transform="translate(-122.201 -307.001)" fill="#404cdc"/>
          <path id="Path_64734" data-name="Path 64734" d="M187.567,138.867a.787.787,0,0,0,.833-.833v-1.667a.833.833,0,0,0-1.667,0v1.667A.787.787,0,0,0,187.567,138.867Z" transform="translate(-168.401 -122.201)" fill="#404cdc"/>
          <path id="Path_64735" data-name="Path 64735" d="M187.567,87.667a.787.787,0,0,0,.833-.833V85.167a.833.833,0,1,0-1.667,0v1.667A.787.787,0,0,0,187.567,87.667Z" transform="translate(-168.401 -76.001)" fill="#404cdc"/>
          <path id="Path_64736" data-name="Path 64736" d="M187.567,36.467a.787.787,0,0,0,.833-.833V33.967a.833.833,0,1,0-1.667,0v1.667A.787.787,0,0,0,187.567,36.467Z" transform="translate(-168.401 -29.801)" fill="#404cdc"/>
          <path id="Path_64737" data-name="Path 64737" d="M187.567,343.667a.787.787,0,0,0,.833-.833v-1.667a.833.833,0,1,0-1.667,0v1.667A.787.787,0,0,0,187.567,343.667Z" transform="translate(-168.401 -307.001)" fill="#404cdc"/>
          <path id="Path_64738" data-name="Path 64738" d="M187.567,292.467a.787.787,0,0,0,.833-.833v-1.667a.833.833,0,0,0-1.667,0v1.667A.787.787,0,0,0,187.567,292.467Z" transform="translate(-168.401 -260.801)" fill="#404cdc"/>
          <path id="Path_64739" data-name="Path 64739" d="M187.567,241.267a.787.787,0,0,0,.833-.833v-1.667a.833.833,0,1,0-1.667,0v1.667A.787.787,0,0,0,187.567,241.267Z" transform="translate(-168.401 -214.601)" fill="#404cdc"/>
          <path id="Path_64740" data-name="Path 64740" d="M187.567,190.067a.787.787,0,0,0,.833-.833v-1.667a.833.833,0,0,0-1.667,0v1.667A.787.787,0,0,0,187.567,190.067Z" transform="translate(-168.401 -168.401)" fill="#404cdc"/>
          <path id="Path_64741" data-name="Path 64741" d="M238.767,87.667a.787.787,0,0,0,.833-.833V85.167a.833.833,0,1,0-1.667,0v1.667A.787.787,0,0,0,238.767,87.667Z" transform="translate(-214.601 -76.001)" fill="#404cdc"/>
          <path id="Path_64742" data-name="Path 64742" d="M238.767,36.467a.787.787,0,0,0,.833-.833V33.967a.833.833,0,1,0-1.667,0v1.667A.787.787,0,0,0,238.767,36.467Z" transform="translate(-214.601 -29.801)" fill="#404cdc"/>
        </g>
      </g>
    </g>
  </g>
</svg>
