<svg xmlns="http://www.w3.org/2000/svg" width="24" height="40" viewBox="0 0 24 40">
  <g id="Group_13460" data-name="Group 13460" transform="translate(-1247 -1559.4)">
    <path id="Path_64745" data-name="Path 64745" d="M-1.863,9.745l1.5-1.981,4.842.792.7,6.075H-1.863Z" transform="translate(1257.851 1582.51)" fill="#95dde6"/>
    <g id="suitcase" transform="translate(1247 1559.4)">
      <g id="Group_12925" data-name="Group 12925" transform="translate(7.816 12.191)">
        <g id="Group_12924" data-name="Group 12924" transform="translate(0)">
          <path id="Path_64743" data-name="Path 64743" d="M186.87,153.6H179.9a.7.7,0,1,0,0,1.394h6.972a.7.7,0,1,0,0-1.394Z" transform="translate(-179.2 -153.6)" fill="#404cdc"/>
        </g>
      </g>
      <g id="Group_12927" data-name="Group 12927" transform="translate(0 0)">
        <g id="Group_12926" data-name="Group 12926" transform="translate(0)">
          <path id="Path_64744" data-name="Path 64744" d="M122.4,8h-3V2h1a1,1,0,1,0,0-2h-12a1,1,0,1,0,0,2h1V8h-3a4,4,0,0,0-4,4V34a4,4,0,0,0,4,4v1a1,1,0,1,0,2,0V38h12v1a1,1,0,1,0,2,0V38a4,4,0,0,0,4-4V12A4,4,0,0,0,122.4,8Zm-11-6h6V8h-6Zm7,34h-8V30a2,2,0,0,1,2-2h4a2,2,0,0,1,2,2Zm6-2a2,2,0,0,1-2,2h-2V30a4,4,0,0,0-4-4h-4a4,4,0,0,0-4,4v6h-2a2,2,0,0,1-2-2V12a2,2,0,0,1,2-2h16a2,2,0,0,1,2,2Z" transform="translate(-102.4 0)" fill="#404cdc"/>
        </g>
      </g>
    </g>
  </g>
</svg>
