<svg xmlns="http://www.w3.org/2000/svg" width="84" height="84" viewBox="0 0 84 84">
  <g id="Group_13501" data-name="Group 13501" transform="translate(14139 5365)">
    <circle id="Ellipse_100" data-name="Ellipse 100" cx="42" cy="42" r="42" transform="translate(-14139 -5365)" fill="#2631b8"/>
    <g id="Group_9917" data-name="Group 9917" transform="translate(-14118 -5349.833)">
      <path id="Path_51136" data-name="Path 51136" d="M.757.181H28.981l1.352,4.456H0Z" transform="translate(1.166 1.197)" fill="#95dde6"/>
      <path id="Path_51137" data-name="Path 51137" d="M.757.181H26.245L25.139,6.59,0,6.971Z" transform="translate(1.166 45.53)" fill="#95dde6"/>
      <g id="surface1">
        <path id="Path_51123" data-name="Path 51123" d="M588.962,363.484l-1.212,1.325,5.512,5.053A6.306,6.306,0,0,1,595.3,374.5v22h1.8v-22a8.108,8.108,0,0,0-2.622-5.963Zm0,0" transform="translate(-553.958 -342.578)" fill="#fff"/>
        <path id="Path_51124" data-name="Path 51124" d="M28.11,0H4.744A4.5,4.5,0,0,0,.25,4.494V49.429a4.5,4.5,0,0,0,4.494,4.494H27.211V52.315a20.432,20.432,0,0,1,3.444-11.374.9.9,0,0,0-.112-1.134l-6.291-6.291a2.915,2.915,0,0,1,.214-4.314,3.027,3.027,0,0,1,4.024.31l8.871,8.871,1.271-1.271L32.6,31.083V4.494A4.5,4.5,0,0,0,28.11,0Zm2.7,29.285L29.76,28.239a4.837,4.837,0,0,0-6.438-.426,4.713,4.713,0,0,0-.341,6.973l5.779,5.779a22.221,22.221,0,0,0-3.34,11.56H4.744a2.7,2.7,0,0,1-2.7-2.7v-2.7H24.515v-1.8H2.047V7.19H30.806Zm0-23.893H2.047v-.9a2.7,2.7,0,0,1,2.7-2.7H28.11a2.7,2.7,0,0,1,2.7,2.7Zm0,0" transform="translate(-0.25)" fill="#fff"/>
        <path id="Path_51125" data-name="Path 51125" d="M64.547,163.44h3.595a1.8,1.8,0,0,0,1.8-1.8v-3.595a1.8,1.8,0,0,0-1.8-1.8H64.547a1.8,1.8,0,0,0-1.8,1.8v3.595A1.8,1.8,0,0,0,64.547,163.44Zm0-5.392h3.595v3.595H64.547Zm0,0" transform="translate(-59.155 -147.263)" fill="#fff"/>
        <path id="Path_51126" data-name="Path 51126" d="M220.8,163.44h3.595a1.8,1.8,0,0,0,1.8-1.8v-3.595a1.8,1.8,0,0,0-1.8-1.8H220.8a1.8,1.8,0,0,0-1.8,1.8v3.595A1.8,1.8,0,0,0,220.8,163.44Zm0-5.392h3.595v3.595H220.8Zm0,0" transform="translate(-206.418 -147.263)" fill="#fff"/>
        <path id="Path_51127" data-name="Path 51127" d="M377.047,163.44h3.595a1.8,1.8,0,0,0,1.8-1.8v-3.595a1.8,1.8,0,0,0-1.8-1.8h-3.595a1.8,1.8,0,0,0-1.8,1.8v3.595A1.8,1.8,0,0,0,377.047,163.44Zm0-5.392h3.595v3.595h-3.595Zm0,0" transform="translate(-353.681 -147.263)" fill="#fff"/>
        <path id="Path_51128" data-name="Path 51128" d="M64.547,319.69h3.595a1.8,1.8,0,0,0,1.8-1.8V314.3a1.8,1.8,0,0,0-1.8-1.8H64.547a1.8,1.8,0,0,0-1.8,1.8v3.595A1.8,1.8,0,0,0,64.547,319.69Zm0-5.392h3.595v3.595H64.547Zm0,0" transform="translate(-59.155 -294.526)" fill="#fff"/>
        <path id="Path_51129" data-name="Path 51129" d="M64.547,475.94h3.595a1.8,1.8,0,0,0,1.8-1.8v-3.595a1.8,1.8,0,0,0-1.8-1.8H64.547a1.8,1.8,0,0,0-1.8,1.8v3.595A1.8,1.8,0,0,0,64.547,475.94Zm0-5.392h3.595v3.595H64.547Zm0,0" transform="translate(-59.155 -441.789)" fill="#fff"/>
        <path id="Path_51130" data-name="Path 51130" d="M220.8,319.69h3.595a1.8,1.8,0,0,0,1.8-1.8V314.3a1.8,1.8,0,0,0-1.8-1.8H220.8a1.8,1.8,0,0,0-1.8,1.8v3.595A1.8,1.8,0,0,0,220.8,319.69Zm0-5.392h3.595v3.595H220.8Zm0,0" transform="translate(-206.418 -294.526)" fill="#fff"/>
        <path id="Path_51131" data-name="Path 51131" d="M377.047,319.69h3.595a1.8,1.8,0,0,0,1.8-1.8V314.3a1.8,1.8,0,0,0-1.8-1.8h-3.595a1.8,1.8,0,0,0-1.8,1.8v3.595A1.8,1.8,0,0,0,377.047,319.69Zm0-5.392h3.595v3.595h-3.595Zm0,0" transform="translate(-353.681 -294.526)" fill="#fff"/>
        <path id="Path_51132" data-name="Path 51132" d="M220.8,475.94h3.595a1.8,1.8,0,0,0,1.8-1.8v-3.595a1.8,1.8,0,0,0-1.8-1.8H220.8a1.8,1.8,0,0,0-1.8,1.8v3.595A1.8,1.8,0,0,0,220.8,475.94Zm0-5.392h3.595v3.595H220.8Zm0,0" transform="translate(-206.418 -441.789)" fill="#fff"/>
        <path id="Path_51133" data-name="Path 51133" d="M64.547,632.19h3.595a1.8,1.8,0,0,0,1.8-1.8V626.8a1.8,1.8,0,0,0-1.8-1.8H64.547a1.8,1.8,0,0,0-1.8,1.8v3.595A1.8,1.8,0,0,0,64.547,632.19Zm0-5.392h3.595v3.595H64.547Zm0,0" transform="translate(-59.155 -589.051)" fill="#fff"/>
        <path id="Path_51134" data-name="Path 51134" d="M220.8,632.19h3.595a1.8,1.8,0,0,0,1.8-1.8V626.8a1.8,1.8,0,0,0-1.8-1.8H220.8a1.8,1.8,0,0,0-1.8,1.8v3.595A1.8,1.8,0,0,0,220.8,632.19Zm0-5.392h3.595v3.595H220.8Zm0,0" transform="translate(-206.418 -589.051)" fill="#fff"/>
        <path id="Path_51135" data-name="Path 51135" d="M265.875,843.75h1.8v1.8h-1.8Zm0,0" transform="translate(-250.597 -795.22)" fill="#404cdc"/>
      </g>
    </g>
  </g>
</svg>
