<svg xmlns="http://www.w3.org/2000/svg" width="84" height="84" viewBox="0 0 84 84">
  <g id="Group_13502" data-name="Group 13502" transform="translate(14405 5296)">
    <circle id="Ellipse_99" data-name="Ellipse 99" cx="42" cy="42" r="42" transform="translate(-14405 -5296)" fill="#2631b8"/>
    <g id="Group_9915" data-name="Group 9915" transform="translate(-14387.89 -5278.889)">
      <rect id="Rectangle_2926" data-name="Rectangle 2926" width="7.778" height="6.222" transform="translate(1.556 4.667)" fill="#95dde6"/>
      <path id="Path_51121" data-name="Path 51121" d="M9.333,0c5.155,0,10.149,4.179,10.149,9.333s-4.994,9.333-10.149,9.333A9.333,9.333,0,0,1,9.333,0Z" transform="translate(6.222 12.444)" fill="#95dde6"/>
      <g id="_1260111" data-name="1260111" transform="translate(0 0)">
        <path id="Path_51107" data-name="Path 51107" d="M144,368h-1.669v3.339H127.3v1.669h15.025v2.5a2.5,2.5,0,0,1-2.5,2.5H121.46a2.513,2.513,0,0,1-2.17-1.252l-1.446.835a4.191,4.191,0,0,0,3.616,2.087h18.364A4.179,4.179,0,0,0,144,375.513Zm0,0" transform="translate(-105.6 -329.602)" fill="#fff"/>
        <path id="Path_51108" data-name="Path 51108" d="M232.5,432h1.67v1.669H232.5Zm0,0" transform="translate(-208.292 -386.924)" fill="#fff"/>
        <path id="Path_51109" data-name="Path 51109" d="M51.212,22.538V20.869H48.665a10.853,10.853,0,0,0-9.975-9.975V8.347H37.021v2.547a10.849,10.849,0,0,0-1.67.26V6.678H48.708V5.008H35.352V4.174a2.5,2.5,0,0,1,2.5-2.5H56.22a2.5,2.5,0,0,1,1.656.626l1.1-1.252A4.169,4.169,0,0,0,56.22,0H37.856a4.179,4.179,0,0,0-4.174,4.174v7.513a10.866,10.866,0,0,0-6.636,9.182H24.5v1.669h2.549a10.8,10.8,0,0,0,9.973,9.979v2.543h1.669V32.517a10.8,10.8,0,0,0,9.973-9.979ZM37.021,29.216v1.631a9.147,9.147,0,0,1-3.339-.964v-1.5a4.174,4.174,0,0,1,8.347,0v1.5a9.157,9.157,0,0,1-3.339.966V29.216Zm-1.67-9.182a2.5,2.5,0,1,1,2.5,2.5A2.5,2.5,0,0,1,35.352,20.034Zm8.625,8.515c-.09.083-.186.15-.278.227v-.394A5.843,5.843,0,0,0,40.545,23.2a4.174,4.174,0,1,0-5.378,0,5.843,5.843,0,0,0-3.154,5.182v.4c-.093-.076-.189-.147-.278-.227a9.187,9.187,0,0,1-3.017-6.014h1.625V20.869H28.716a9.191,9.191,0,0,1,8.305-8.305v1.627h1.669V12.564A9.191,9.191,0,0,1,47,20.869H45.369v1.669h1.625a9.187,9.187,0,0,1-3.017,6.014Zm0,0" transform="translate(-21.996 0)" fill="#fff"/>
        <path id="Path_51110" data-name="Path 51110" d="M291.7,43.686a.835.835,0,0,0,.835-.835V32.835A.835.835,0,0,0,291.7,32H273.335a.835.835,0,0,0-.835.835V42.852a.835.835,0,0,0,.835.835ZM274.17,33.669h16.695v8.347H274.17Zm0,0" transform="translate(-244.119 -28.661)" fill="#fff"/>
        <path id="Path_51111" data-name="Path 51111" d="M304.5,64h3.339v1.669H304.5Zm0,0" transform="translate(-272.78 -57.322)" fill="#fff"/>
        <path id="Path_51112" data-name="Path 51112" d="M352.5,64h8.347v1.669H352.5Zm0,0" transform="translate(-315.771 -57.322)" fill="#fff"/>
        <path id="Path_51113" data-name="Path 51113" d="M304.5,96h13.356v1.669H304.5Zm0,0" transform="translate(-272.78 -85.983)" fill="#fff"/>
        <path id="Path_51114" data-name="Path 51114" d="M262.884,160a2.646,2.646,0,0,0-1.753.668l-7.282,6.42V160h-1.67v8.348h.241l-4.749,4.19a5.843,5.843,0,0,0-5.509,5.827v1.473a2.17,2.17,0,0,1-1.208,1.954.835.835,0,0,0,.373,1.582h5.843A5.843,5.843,0,0,0,253,177.864l11.875-13.458A2.652,2.652,0,0,0,262.884,160Zm-15.713,21.7h-3.817a3.851,3.851,0,0,0,.479-1.866v-1.473a4.179,4.179,0,0,1,3.84-4.16l3.659,3.659A4.179,4.179,0,0,1,247.172,181.7Zm16.45-18.4-11.479,13.009-2.918-2.917,13.009-11.479a.983.983,0,0,1,1.387,1.387Zm0,0" transform="translate(-215.451 -143.305)" fill="#fff"/>
        <path id="Path_51115" data-name="Path 51115" d="M1.335,332.521H19.7a.835.835,0,0,0,.835-.835v-6.678a.835.835,0,0,0-.835-.835H13.856V320H12.186v4.174H1.335a.835.835,0,0,0-.835.835v6.678A.835.835,0,0,0,1.335,332.521Zm.835-6.678H18.864v5.008H2.169Zm0,0" transform="translate(-0.5 -286.61)" fill="#fff"/>
        <path id="Path_51116" data-name="Path 51116" d="M32.5,392h4.174v1.67H32.5Zm0,0" transform="translate(-29.161 -351.097)" fill="#fff"/>
        <path id="Path_51117" data-name="Path 51117" d="M88.5,392h7.513v1.67H88.5Zm0,0" transform="translate(-79.318 -351.097)" fill="#fff"/>
        <path id="Path_51118" data-name="Path 51118" d="M1.335,40.347H9.682a.835.835,0,0,0,.835-.835V32.835A.835.835,0,0,0,9.682,32H1.335a.835.835,0,0,0-.835.835v6.678A.835.835,0,0,0,1.335,40.347Zm.835-6.678H8.847v5.008H2.169Zm0,0" transform="translate(-0.5 -28.661)" fill="#fff"/>
        <path id="Path_51119" data-name="Path 51119" d="M32.5,64h3.339v1.669H32.5Zm0,0" transform="translate(-29.161 -57.322)" fill="#fff"/>
      </g>
    </g>
  </g>
</svg>
