<svg xmlns="http://www.w3.org/2000/svg" width="84" height="84" viewBox="0 0 84 84">
  <g id="Group_13500" data-name="Group 13500" transform="translate(13855 5296)">
    <circle id="Ellipse_101" data-name="Ellipse 101" cx="42" cy="42" r="42" transform="translate(-13855 -5296)" fill="#2631b8"/>
    <g id="Group_9920" data-name="Group 9920" transform="translate(-13830.112 -5277.334)">
      <path id="Path_51139" data-name="Path 51139" d="M-14999.416-7154.958l-1.148-11.793s2.436-5.445,2.854-6.285,4.1-2.369,5.191-2.437,8.627,1.321,8.627,2.437v6.285Z" transform="translate(15010.955 7177.587)" fill="#95dde6"/>
      <g id="_1001421" data-name="1001421" transform="translate(0 0)">
        <g id="Group_9919" data-name="Group 9919">
          <path id="Path_51138" data-name="Path 51138" d="M100.516,18.378a10.565,10.565,0,1,0-17.678-7.851l-.045,1.085c0,.026,0,.052,0,.078V41.618a2.525,2.525,0,1,1-5.05,0,1.87,1.87,0,1,0-3.741,0,6.266,6.266,0,0,0,12.532,0V38.889a12.614,12.614,0,0,0,17.476.29,1.87,1.87,0,1,0-2.546-2.741,8.885,8.885,0,0,1-14.93-6.511v-18.2l.045-1.083c0-.026,0-.052,0-.078A6.827,6.827,0,1,1,94,17.369l-.674.027a1.87,1.87,0,0,0,.076,3.739q.42,0,.831-.032l1.418-.058a8.9,8.9,0,0,1,8.646,8.881,1.87,1.87,0,0,0,3.741,0A12.643,12.643,0,0,0,100.516,18.378Z" transform="translate(-74 0)" fill="#fff"/>
        </g>
      </g>
    </g>
  </g>
</svg>
