<svg xmlns="http://www.w3.org/2000/svg" width="48" height="48" viewBox="0 0 48 48">
  <g id="Group_56380" data-name="Group 56380" transform="translate(-301 -740)">
    <g id="Group_56379" data-name="Group 56379">
      <g id="Group_56339" data-name="Group 56339" transform="translate(-500 324)">
        <g id="Group_56338" data-name="Group 56338" transform="translate(801 416)">
          <g id="Group_56364" data-name="Group 56364" transform="translate(-4505 -3701)">
            <rect id="Rectangle_25" data-name="Rectangle 25" width="48" height="48" transform="translate(4505 3701)" fill="none"/>
            <g id="rating_4_" data-name="rating (4)" transform="translate(4507.283 3703.283)">
              <g id="Group_56364-2" data-name="Group 56364" transform="translate(1.38 1.452)">
                <path id="Path_355" data-name="Path 355" d="M388.867,16.949l1.456,2.95,3.255.473-2.355,2.3.556,3.242-2.911-1.531-2.912,1.531.556-3.242-2.355-2.3,3.255-.473Zm0,0" transform="translate(-352.994 -16.949)" fill="#95dde6"/>
                <path id="Path_356" data-name="Path 356" d="M19.543,45.484,20.6,47.629l2.368.344-1.713,1.67.4,2.358-2.118-1.113L17.426,52l.4-2.358-1.713-1.67,2.368-.344Zm0,0" transform="translate(-16.117 -43.041)" fill="#95dde6"/>
                <path id="Path_357" data-name="Path 357" d="M144.559,45.484l1.058,2.145,2.368.344-1.713,1.67.4,2.358-2.117-1.113L142.441,52l.4-2.358-1.713-1.67,2.367-.344Zm0,0" transform="translate(-130.539 -43.041)" fill="#95dde6"/>
                <path id="Path_358" data-name="Path 358" d="M269.57,45.484l1.059,2.145,2.367.344-1.713,1.67.4,2.358-2.117-1.113L267.453,52l.4-2.358-1.713-1.67,2.367-.344Zm0,0" transform="translate(-244.956 -43.041)" fill="#95dde6"/>
              </g>
              <path id="Path_361" data-name="Path 361" d="M301.586,482H317v4.583H301.586Zm0,0" transform="translate(-276.115 -443.202)" fill="#95dde6"/>
              <path id="Path_363" data-name="Path 363" d="M293.678,152.261V147.6h2.087v4.659h1.285V141.209a1.464,1.464,0,0,1,2.929,0v4.5h1.285v-4.5a2.749,2.749,0,0,0-5.5,0v5.109h-3.372v1.231H289.02v1.42h-3.372v6.3h1.285v-5.019h2.088v2.008H290.3v-3.428h2.088v3.428Zm0,0" transform="translate(-261.543 -126.809)" fill="#404cdc"/>
              <path id="Path_364" data-name="Path 364" d="M289.181,356.709l-2.248-5.4v-1.539h-1.285v1.8l2.248,5.4v.92h-1.526v5.781h1.285v-4.5h4.068v-1.285h-2.543Zm0,0" transform="translate(-261.417 -320.29)" fill="#404cdc"/>
              <path id="Path_365" data-name="Path 365" d="M383.5,238.409v-6.98h-3.656v-5.476h-1.285v6.761h3.657v5.327l-3.372,5.4v1.232h-7.253v1.285h8.779v4.5h1.285v-5.782h-1.526V243.8Zm0,0" transform="translate(-340.128 -207.073)" fill="#404cdc"/>
              <path id="Path_366" data-name="Path 366" d="M370.366,11.586l3.765-1.979,3.765,1.979-.719-4.192,3.046-2.969-4.209-.612L374.13,0l-1.882,3.814-4.209.612,3.046,2.969Zm.434-6.264,2.3-.334L374.13,2.9l1.029,2.085,2.3.334L375.8,6.945l.393,2.292L374.13,8.155l-2.058,1.082.393-2.292Zm0,0" transform="translate(-336.877 0)" fill="#404cdc"/>
              <path id="Path_367" data-name="Path 367" d="M6.292,31.545l-1.485-3.01-1.485,3.01L0,32.027,2.4,34.37l-.567,3.308,2.97-1.562,2.971,1.562L7.21,34.37l2.4-2.343ZM6.07,35.329l-1.264-.664-1.264.664.241-1.408-1.023-1,1.413-.205.632-1.281.632,1.281,1.413.205-1.023,1Zm0,0" transform="translate(0 -26.091)" fill="#404cdc"/>
              <path id="Path_368" data-name="Path 368" d="M131.3,31.545l-1.485-3.01-1.485,3.01-3.321.482,2.4,2.343-.567,3.308,2.971-1.562,2.97,1.562-.567-3.308,2.4-2.343Zm-.221,3.784-1.264-.664-1.264.664.242-1.408-1.023-1,1.413-.205.632-1.281.632,1.281,1.413.205-1.023,1Zm0,0" transform="translate(-114.417 -26.091)" fill="#404cdc"/>
              <path id="Path_369" data-name="Path 369" d="M254.829,36.116l2.971,1.562-.567-3.308,2.4-2.343-3.321-.482-1.485-3.01-1.485,3.01-3.321.482,2.4,2.343-.567,3.308Zm-.632-3.4.632-1.281.632,1.281,1.413.205-1.023,1,.242,1.408-1.264-.664-1.264.664.242-1.408-1.023-1Zm0,0" transform="translate(-228.835 -26.092)" fill="#404cdc"/>
              <path id="Path_370" data-name="Path 370" d="M240.641,431.547h1.285v1.285h-1.285Zm0,0" transform="translate(-220.206 -395.06)" fill="#404cdc"/>
              <path id="Path_371" data-name="Path 371" d="M240.641,366.984h1.285v4.245h-1.285Zm0,0" transform="translate(-220.206 -335.929)" fill="#404cdc"/>
              <path id="Path_372" data-name="Path 372" d="M240.641,461.551h1.285v1.285h-1.285Zm0,0" transform="translate(-220.206 -422.494)" fill="#404cdc"/>
              <path id="Path_373" data-name="Path 373" d="M200.637,422.992h1.285v3.426h-1.285Zm0,0" transform="translate(-183.599 -387.238)" fill="#404cdc"/>
              <path id="Path_374" data-name="Path 374" d="M200.637,478h1.285v1.285h-1.285Zm0,0" transform="translate(-183.599 -437.531)" fill="#404cdc"/>
            </g>
          </g>
        </g>
      </g>
    </g>
  </g>
</svg>
