<svg xmlns="http://www.w3.org/2000/svg" width="48" height="48" viewBox="0 0 48 48">
  <g id="Group_56382" data-name="Group 56382" transform="translate(-1227 -495)">
    <g id="Group_56342" data-name="Group 56342" transform="translate(1207 465)">
      <g id="Group_56338" data-name="Group 56338" transform="translate(20 30)">
        <g id="Group_56362" data-name="Group 56362">
          <rect id="Rectangle_24" data-name="Rectangle 24" width="48" height="48" fill="none"/>
          <g id="Group_56362-2" data-name="Group 56362" transform="translate(2.28 2.28)">
            <g id="Path_353" data-name="Path 353" transform="translate(23.087 7.608)" fill="#95dde6">
              <path d="M 6.806530475616455 16.87911224365234 C 4.989890098571777 16.87911224365234 4.263580322265625 16.69689178466797 3.928200244903564 16.15699195861816 C 3.520670175552368 15.50095272064209 3.500820398330688 14.16100215911865 3.500820398330688 11.84914207458496 C 3.500820398330688 11.58988285064697 3.500820398330688 10.90121269226074 1.378950238227844 7.521562576293945 C 0.5737229585647583 6.239037036895752 -0.2400753200054169 5.043251991271973 -0.5494519472122192 4.593142032623291 L 0.7861362099647522 -0.6858389377593994 C 2.351600170135498 -1.96037769317627 4.797775745391846 -3.672607660293579 5.591710090637207 -3.672607660293579 C 7.404650211334229 -3.672607660293579 9.516839981079102 -2.908037662506104 11.10403060913086 -1.677267551422119 C 12.92557048797607 -0.264767587184906 13.92874050140381 1.624052405357361 13.92874050140381 3.641242504119873 C 13.92874050140381 5.328452587127686 12.17258071899414 8.829792022705078 11.49590015411377 10.03654193878174 L 11.48358058929443 10.05852222442627 L 11.47352027893066 10.08165264129639 C 11.46588039398193 10.09920215606689 10.69830989837646 11.85684204101563 9.697040557861328 13.58656215667725 C 7.928530216217041 16.64167213439941 7.037500381469727 16.87911224365234 6.806530475616455 16.87911224365234 Z" stroke="none"/>
              <path d="M 5.594010353088379 -3.172607421875 C 5.558794498443604 -3.170476913452148 4.967729568481445 -3.114156723022461 3.004060745239258 -1.733587265014648 C 2.256180763244629 -1.207794189453125 1.579764366149902 -0.6791648864746094 1.229475975036621 -0.3996515274047852 L -0.009273529052734375 4.496569633483887 C 0.3619918823242188 5.039792060852051 1.077749252319336 6.101487159729004 1.802410125732422 7.255702495574951 C 3.739630699157715 10.34125232696533 4.000820159912109 11.30921268463135 4.000820159912109 11.84914207458496 C 4.000820159912109 13.71496200561523 4.000820159912109 15.3263521194458 4.352920532226563 15.89316272735596 C 4.539051055908203 16.19278717041016 5.013589859008789 16.37863540649414 6.799704551696777 16.37911224365234 C 6.848055362701416 16.36898422241211 7.646519660949707 16.15776443481445 9.321240425109863 13.2372522354126 C 10.27906036376953 11.56692218780518 11.00780010223389 9.898802757263184 11.01498031616211 9.882292747497559 L 11.03511047363281 9.83601188659668 L 11.05979061126709 9.7919921875 C 11.97568988800049 8.158632278442383 13.42874050140381 5.044412612915039 13.42874050140381 3.641242027282715 C 13.42874050140381 1.258322715759277 11.9979305267334 -0.3513774871826172 10.79763984680176 -1.282137870788574 C 9.294512748718262 -2.447729110717773 7.300896167755127 -3.171987533569336 5.594010353088379 -3.172607421875 M 5.591710090637207 -4.172607421875 C 9.325580596923828 -4.172607421875 14.42874050140381 -1.176637649536133 14.42874050140381 3.641242027282715 C 14.42874050140381 5.828562259674072 11.93202018737793 10.28109264373779 11.93202018737793 10.28109264373779 C 11.93202018737793 10.28109264373779 8.845230102539063 17.37911224365234 6.806530475616455 17.37911224365234 C 3.072660446166992 17.37911224365234 3.000820159912109 16.66702270507813 3.000820159912109 11.84914207458496 C 3.000820159912109 10.56277275085449 -1.089839935302734 4.690492630004883 -1.089839935302734 4.690492630004883 L 0.3418207168579102 -0.9682178497314453 C 0.3418207168579102 -0.9682178497314453 4.228710174560547 -4.172607421875 5.591710090637207 -4.172607421875 Z" stroke="none" fill="#95dde6"/>
            </g>
            <g id="scalable">
              <path id="Path_337" data-name="Path 337" d="M49.331,29.466l-17.922.008V28.052l17.922-.008a.712.712,0,0,0,.712-.712V3.135a.712.712,0,0,0-.712-.712h-24.2a.712.712,0,0,0-.712.712l.044,19.293H23.044L23,3.135A2.138,2.138,0,0,1,25.135,1h24.2a2.138,2.138,0,0,1,2.135,2.135v24.2A2.138,2.138,0,0,1,49.331,29.466Z" transform="translate(-7.343 -1)" fill="#404cdc"/>
              <path id="Path_338" data-name="Path 338" d="M23.061,53.773H3.135A2.138,2.138,0,0,1,1,51.638v-18.5A2.138,2.138,0,0,1,3.135,31H23.061A2.138,2.138,0,0,1,25.2,33.135v18.5A2.138,2.138,0,0,1,23.061,53.773Z" transform="translate(-1 -9.65)" fill="none" stroke="#404cdc" stroke-width="1"/>
              <path id="Path_339" data-name="Path 339" d="M15.4,35A6.412,6.412,0,0,0,9,41.4v.137a6.43,6.43,0,0,0,1.4,4l1.443,1.8v1.174a3.558,3.558,0,1,0,7.117,0V47.348l1.443-1.8a6.432,6.432,0,0,0,1.4-4V41.4A6.412,6.412,0,0,0,15.4,35Zm0,15.657a2.138,2.138,0,0,1-2.135-2.135V47.81h4.27v.712A2.138,2.138,0,0,1,15.4,50.657ZM14.693,41.4a.712.712,0,1,1,.712.712A.712.712,0,0,1,14.693,41.4Zm5.693.137a5,5,0,0,1-1.092,3.112l-1.386,1.732H16.117V43.409a2.135,2.135,0,1,0-1.423,0v2.978H12.9l-1.385-1.732a5,5,0,0,1-1.092-3.112V41.4a4.982,4.982,0,1,1,9.963,0Z" transform="translate(-3.307 -10.804)" fill="#404cdc"/>
              <path id="Path_340" data-name="Path 340" d="M40.359,54.89l-4.773-4.773h13.1a2.138,2.138,0,0,0,2.135-2.135V43h1.423v4.982a3.562,3.562,0,0,1-3.558,3.558H39.022l2.343,2.343Z" transform="translate(-10.972 -13.11)" fill="#404cdc"/>
              <path id="Path_341" data-name="Path 341" d="M37,49h1.423v1.423H37Z" transform="translate(-11.38 -14.84)" fill="#404cdc"/>
              <path id="Path_342" data-name="Path 342" d="M41,49h1.423v1.423H41Z" transform="translate(-12.534 -14.84)" fill="#404cdc"/>
              <path id="Path_343" data-name="Path 343" d="M50.693,48.693H45V47.27h5.693V43h1.423v4.27A1.425,1.425,0,0,1,50.693,48.693Z" transform="translate(-13.687 -13.11)" fill="#404cdc"/>
              <path id="Path_344" data-name="Path 344" d="M2.423,22.183H1V17.2a3.562,3.562,0,0,1,3.558-3.558H12.8L10.46,11.3l1.006-1.006,4.773,4.773H4.558A2.138,2.138,0,0,0,2.423,17.2Z" transform="translate(-1 -3.68)" fill="#404cdc"/>
              <path id="Path_345" data-name="Path 345" d="M19,19h1.423v1.423H19Z" transform="translate(-6.19 -6.19)" fill="#404cdc"/>
              <path id="Path_346" data-name="Path 346" d="M15,19h1.423v1.423H15Z" transform="translate(-5.037 -6.19)" fill="#404cdc"/>
              <path id="Path_347" data-name="Path 347" d="M6.423,24.693H5v-4.27A1.425,1.425,0,0,1,6.423,19h4.27v1.423H6.423Z" transform="translate(-2.153 -6.19)" fill="#404cdc"/>
              <path id="Path_348" data-name="Path 348" d="M39.576,5H39.5a8.5,8.5,0,0,0-6.456,14.038l2.223,2.594V23.5a4.27,4.27,0,0,0,8.54,0V21.632l2.223-2.594A8.5,8.5,0,0,0,39.576,5ZM39.54,26.35A2.85,2.85,0,0,1,36.693,23.5V22.08h5.693V23.5A2.85,2.85,0,0,1,39.54,26.35Zm-1.185-12.1h2.37l-.428,6.4H38.782Zm6.6,3.861-2.181,2.544H41.724l.427-6.4H43.1a2.135,2.135,0,1,0,0-4.27h-.092a2.139,2.139,0,0,0-2.13,1.993l-.057.853H38.26l-.057-.853a2.139,2.139,0,0,0-2.13-1.994h-.092a2.135,2.135,0,0,0,0,4.27h.947l.427,6.4H36.309l-2.181-2.544A7.081,7.081,0,0,1,39.5,6.423h.073a7.081,7.081,0,0,1,5.376,11.689Zm-2.706-5.284.051-.759a.713.713,0,0,1,.71-.664H43.1a.712.712,0,0,1,0,1.423Zm-5.413,0h-.852a.712.712,0,1,1,0-1.423h.092a.713.713,0,0,1,.71.665Z" transform="translate(-9.65 -2.153)" fill="#404cdc"/>
            </g>
          </g>
        </g>
      </g>
    </g>
    <g id="Group_56342-2" data-name="Group 56342" transform="translate(1207 465)">
      <g id="Group_56338-2" data-name="Group 56338" transform="translate(20 30)">
        <g id="Group_56362-3" data-name="Group 56362">
          <rect id="Rectangle_24-2" data-name="Rectangle 24" width="48" height="48" fill="none"/>
          <g id="Group_56362-4" data-name="Group 56362" transform="translate(2.28 2.28)">
            <g id="Path_353-2" data-name="Path 353" transform="translate(23.087 7.608)" fill="#95dde6">
              <path d="M 6.806530475616455 16.87911224365234 C 4.989890098571777 16.87911224365234 4.263580322265625 16.69689178466797 3.928200244903564 16.15699195861816 C 3.520670175552368 15.50095272064209 3.500820398330688 14.16100215911865 3.500820398330688 11.84914207458496 C 3.500820398330688 11.58988285064697 3.500820398330688 10.90121269226074 1.378950238227844 7.521562576293945 C 0.5737229585647583 6.239037036895752 -0.2400753200054169 5.043251991271973 -0.5494519472122192 4.593142032623291 L 0.7861362099647522 -0.6858389377593994 C 2.351600170135498 -1.96037769317627 4.797775745391846 -3.672607660293579 5.591710090637207 -3.672607660293579 C 7.404650211334229 -3.672607660293579 9.516839981079102 -2.908037662506104 11.10403060913086 -1.677267551422119 C 12.92557048797607 -0.264767587184906 13.92874050140381 1.624052405357361 13.92874050140381 3.641242504119873 C 13.92874050140381 5.328452587127686 12.17258071899414 8.829792022705078 11.49590015411377 10.03654193878174 L 11.48358058929443 10.05852222442627 L 11.47352027893066 10.08165264129639 C 11.46588039398193 10.09920215606689 10.69830989837646 11.85684204101563 9.697040557861328 13.58656215667725 C 7.928530216217041 16.64167213439941 7.037500381469727 16.87911224365234 6.806530475616455 16.87911224365234 Z" stroke="none"/>
              <path d="M 5.594010353088379 -3.172607421875 C 5.558794498443604 -3.170476913452148 4.967729568481445 -3.114156723022461 3.004060745239258 -1.733587265014648 C 2.256180763244629 -1.207794189453125 1.579764366149902 -0.6791648864746094 1.229475975036621 -0.3996515274047852 L -0.009273529052734375 4.496569633483887 C 0.3619918823242188 5.039792060852051 1.077749252319336 6.101487159729004 1.802410125732422 7.255702495574951 C 3.739630699157715 10.34125232696533 4.000820159912109 11.30921268463135 4.000820159912109 11.84914207458496 C 4.000820159912109 13.71496200561523 4.000820159912109 15.3263521194458 4.352920532226563 15.89316272735596 C 4.539051055908203 16.19278717041016 5.013589859008789 16.37863540649414 6.799704551696777 16.37911224365234 C 6.848055362701416 16.36898422241211 7.646519660949707 16.15776443481445 9.321240425109863 13.2372522354126 C 10.27906036376953 11.56692218780518 11.00780010223389 9.898802757263184 11.01498031616211 9.882292747497559 L 11.03511047363281 9.83601188659668 L 11.05979061126709 9.7919921875 C 11.97568988800049 8.158632278442383 13.42874050140381 5.044412612915039 13.42874050140381 3.641242027282715 C 13.42874050140381 1.258322715759277 11.9979305267334 -0.3513774871826172 10.79763984680176 -1.282137870788574 C 9.294512748718262 -2.447729110717773 7.300896167755127 -3.171987533569336 5.594010353088379 -3.172607421875 M 5.591710090637207 -4.172607421875 C 9.325580596923828 -4.172607421875 14.42874050140381 -1.176637649536133 14.42874050140381 3.641242027282715 C 14.42874050140381 5.828562259674072 11.93202018737793 10.28109264373779 11.93202018737793 10.28109264373779 C 11.93202018737793 10.28109264373779 8.845230102539063 17.37911224365234 6.806530475616455 17.37911224365234 C 3.072660446166992 17.37911224365234 3.000820159912109 16.66702270507813 3.000820159912109 11.84914207458496 C 3.000820159912109 10.56277275085449 -1.089839935302734 4.690492630004883 -1.089839935302734 4.690492630004883 L 0.3418207168579102 -0.9682178497314453 C 0.3418207168579102 -0.9682178497314453 4.228710174560547 -4.172607421875 5.591710090637207 -4.172607421875 Z" stroke="none" fill="#95dde6"/>
            </g>
            <g id="scalable-2" data-name="scalable">
              <path id="Path_337-2" data-name="Path 337" d="M49.331,29.466l-17.922.008V28.052l17.922-.008a.712.712,0,0,0,.712-.712V3.135a.712.712,0,0,0-.712-.712h-24.2a.712.712,0,0,0-.712.712l.044,19.293H23.044L23,3.135A2.138,2.138,0,0,1,25.135,1h24.2a2.138,2.138,0,0,1,2.135,2.135v24.2A2.138,2.138,0,0,1,49.331,29.466Z" transform="translate(-7.343 -1)" fill="#404cdc"/>
              <path id="Path_338-2" data-name="Path 338" d="M23.061,53.773H3.135A2.138,2.138,0,0,1,1,51.638v-18.5A2.138,2.138,0,0,1,3.135,31H23.061A2.138,2.138,0,0,1,25.2,33.135v18.5A2.138,2.138,0,0,1,23.061,53.773Z" transform="translate(-1 -9.65)" fill="none" stroke="#404cdc" stroke-width="1"/>
              <path id="Path_339-2" data-name="Path 339" d="M15.4,35A6.412,6.412,0,0,0,9,41.4v.137a6.43,6.43,0,0,0,1.4,4l1.443,1.8v1.174a3.558,3.558,0,1,0,7.117,0V47.348l1.443-1.8a6.432,6.432,0,0,0,1.4-4V41.4A6.412,6.412,0,0,0,15.4,35Zm0,15.657a2.138,2.138,0,0,1-2.135-2.135V47.81h4.27v.712A2.138,2.138,0,0,1,15.4,50.657ZM14.693,41.4a.712.712,0,1,1,.712.712A.712.712,0,0,1,14.693,41.4Zm5.693.137a5,5,0,0,1-1.092,3.112l-1.386,1.732H16.117V43.409a2.135,2.135,0,1,0-1.423,0v2.978H12.9l-1.385-1.732a5,5,0,0,1-1.092-3.112V41.4a4.982,4.982,0,1,1,9.963,0Z" transform="translate(-3.307 -10.804)" fill="#404cdc"/>
              <path id="Path_340-2" data-name="Path 340" d="M40.359,54.89l-4.773-4.773h13.1a2.138,2.138,0,0,0,2.135-2.135V43h1.423v4.982a3.562,3.562,0,0,1-3.558,3.558H39.022l2.343,2.343Z" transform="translate(-10.972 -13.11)" fill="#404cdc"/>
              <path id="Path_341-2" data-name="Path 341" d="M37,49h1.423v1.423H37Z" transform="translate(-11.38 -14.84)" fill="#404cdc"/>
              <path id="Path_342-2" data-name="Path 342" d="M41,49h1.423v1.423H41Z" transform="translate(-12.534 -14.84)" fill="#404cdc"/>
              <path id="Path_343-2" data-name="Path 343" d="M50.693,48.693H45V47.27h5.693V43h1.423v4.27A1.425,1.425,0,0,1,50.693,48.693Z" transform="translate(-13.687 -13.11)" fill="#404cdc"/>
              <path id="Path_344-2" data-name="Path 344" d="M2.423,22.183H1V17.2a3.562,3.562,0,0,1,3.558-3.558H12.8L10.46,11.3l1.006-1.006,4.773,4.773H4.558A2.138,2.138,0,0,0,2.423,17.2Z" transform="translate(-1 -3.68)" fill="#404cdc"/>
              <path id="Path_345-2" data-name="Path 345" d="M19,19h1.423v1.423H19Z" transform="translate(-6.19 -6.19)" fill="#404cdc"/>
              <path id="Path_346-2" data-name="Path 346" d="M15,19h1.423v1.423H15Z" transform="translate(-5.037 -6.19)" fill="#404cdc"/>
              <path id="Path_347-2" data-name="Path 347" d="M6.423,24.693H5v-4.27A1.425,1.425,0,0,1,6.423,19h4.27v1.423H6.423Z" transform="translate(-2.153 -6.19)" fill="#404cdc"/>
              <path id="Path_348-2" data-name="Path 348" d="M39.576,5H39.5a8.5,8.5,0,0,0-6.456,14.038l2.223,2.594V23.5a4.27,4.27,0,0,0,8.54,0V21.632l2.223-2.594A8.5,8.5,0,0,0,39.576,5ZM39.54,26.35A2.85,2.85,0,0,1,36.693,23.5V22.08h5.693V23.5A2.85,2.85,0,0,1,39.54,26.35Zm-1.185-12.1h2.37l-.428,6.4H38.782Zm6.6,3.861-2.181,2.544H41.724l.427-6.4H43.1a2.135,2.135,0,1,0,0-4.27h-.092a2.139,2.139,0,0,0-2.13,1.993l-.057.853H38.26l-.057-.853a2.139,2.139,0,0,0-2.13-1.994h-.092a2.135,2.135,0,0,0,0,4.27h.947l.427,6.4H36.309l-2.181-2.544A7.081,7.081,0,0,1,39.5,6.423h.073a7.081,7.081,0,0,1,5.376,11.689Zm-2.706-5.284.051-.759a.713.713,0,0,1,.71-.664H43.1a.712.712,0,0,1,0,1.423Zm-5.413,0h-.852a.712.712,0,1,1,0-1.423h.092a.713.713,0,0,1,.71.665Z" transform="translate(-9.65 -2.153)" fill="#404cdc"/>
            </g>
          </g>
        </g>
      </g>
    </g>
  </g>
</svg>
