<svg xmlns="http://www.w3.org/2000/svg" width="48" height="48" viewBox="0 0 48 48">
  <g id="Group_56383" data-name="Group 56383" transform="translate(-1227 -740)">
    <g id="Group_56341" data-name="Group 56341" transform="translate(1207 710)">
      <path id="Path_441" data-name="Path 441" d="M44.976,55.259,42.5,57.043l3.47,7.436-19.135-.595V42.271h20.82v8.824l-1.686-2.082-1.388-.892H42.5Z" fill="#95dde6"/>
    </g>
    <g id="Group_56341-2" data-name="Group 56341" transform="translate(1207 710)">
      <path id="Path_441-2" data-name="Path 441" d="M44.976,55.259,42.5,57.043l3.47,7.436-19.135-.595V42.271h20.82v8.824l-1.686-2.082-1.388-.892H42.5Z" fill="#95dde6"/>
      <g id="Group_56338" data-name="Group 56338" transform="translate(20 30)">
        <g id="Group_56367" data-name="Group 56367" transform="translate(-1735 -768)">
          <g id="dating-app" transform="translate(1727.122 773)">
            <g id="Group_56371" data-name="Group 56371">
              <g id="Group_56368" data-name="Group 56368" transform="translate(17.825 12.931)">
                <path id="Path_432" data-name="Path 432" d="M70.656,211.748l-3.363-3.363c-2.847-2.847.565-6.259,3.412-3.412,2.854-2.854,6.217.509,3.363,3.363Z" transform="translate(-66.221 -202.054)" fill="#fff"/>
              </g>
              <g id="Group_56369" data-name="Group 56369" transform="translate(13.878)">
                <path id="Path_437" data-name="Path 437" d="M134.167,419.024a2.372,2.372,0,1,0,2.372,2.372A2.374,2.374,0,0,0,134.167,419.024Zm0,3.229a.857.857,0,1,1,.857-.857A.858.858,0,0,1,134.167,422.253Z" transform="translate(-122.768 -388.035)" fill="#404cdc"/>
                <path id="Path_438" data-name="Path 438" d="M61.242,191.64a3.965,3.965,0,0,0-2.176.874,3.361,3.361,0,0,0-4.541.025,3.1,3.1,0,0,0-.887,2.356,4.2,4.2,0,0,0,1.335,2.721l3.507,3.507a.765.765,0,0,0,1.071,0l3.558-3.558c1.817-1.817,1.616-3.919.478-5.057A3.046,3.046,0,0,0,61.242,191.64Zm1.7,3.121a2.774,2.774,0,0,1-.906,1.733l-3.023,3.023-2.972-2.972c-1.168-1.168-1.067-2.316-.447-2.935a1.58,1.58,0,0,1,1.2-.446,2.728,2.728,0,0,1,1.731.893.757.757,0,0,0,1.071,0c.817-.817,2.078-1.315,2.915-.478A1.51,1.51,0,0,1,62.945,194.761Z" transform="translate(-50.636 -177.488)" fill="#404cdc"/>
                <circle id="Ellipse_2321" data-name="Ellipse 2321" cx="0.754" cy="0.754" r="0.754" transform="translate(16.861 3.128)" fill="#404cdc"/>
                <path id="Path_439" data-name="Path 439" d="M62.747,42.619h9.567a.757.757,0,0,0,0-1.515H62.747a.757.757,0,1,0,0,1.515Z" transform="translate(-58.362 -38.004)" fill="#404cdc"/>
                <path id="Path_440" data-name="Path 440" d="M50.8,32.208l-1.328-2.663a8.009,8.009,0,0,0-.051-7.06l-4.313-8.648a2.258,2.258,0,0,0-1.35-1.142,2.447,2.447,0,0,0-1.788.121,2.339,2.339,0,0,0-1.18,1.226,2.431,2.431,0,0,0-1.742.13,2.337,2.337,0,0,0-1.19,1.26A2.414,2.414,0,0,0,36.7,15.38V2.981A3.03,3.03,0,0,0,33.635,0H16.947a3.03,3.03,0,0,0-3.069,2.981V35.019A3.03,3.03,0,0,0,16.947,38H33.635A3.03,3.03,0,0,0,36.7,35.019V33.052a10.051,10.051,0,0,0,3.155,1.482L41,36.82a.785.785,0,0,0,1.025.346L50.445,33.2a.736.736,0,0,0,.356-1ZM30.063,15.856l2.107,4.224a3.168,3.168,0,0,0-1.092.577l-.029.025a2.741,2.741,0,0,0-.6,3.684L33.2,28.811H15.413V7.54H35.169v8.016l-.849-1.7a2.4,2.4,0,0,0-3.142-1.031,2.271,2.271,0,0,0-1.115,3.034ZM16.947,1.491H33.635a1.515,1.515,0,0,1,1.535,1.491V6.05H15.413V2.981a1.515,1.515,0,0,1,1.535-1.491ZM33.635,36.509H16.947a1.515,1.515,0,0,1-1.535-1.491V30.3H34.119c.085.138.165.281.257.414a9.463,9.463,0,0,0,.793.988v3.315a1.515,1.515,0,0,1-1.535,1.491Zm8.411-1.01-.963-1.93a.764.764,0,0,0-.528-.4,8.238,8.238,0,0,1-4.9-3.27l-3.9-6.308-.015-.023a1.3,1.3,0,0,1,.342-1.781,1.543,1.543,0,0,1,.773-.326L35.6,26.951a.786.786,0,0,0,1.078.318.741.741,0,0,0,.3-.968L31.443,15.207c-.449-.9,1.05-1.6,1.5-.7l4.005,8.031a.785.785,0,0,0,1.045.335.742.742,0,0,0,.374-1l-1.936-3.882a.8.8,0,0,1,.385-1.078.851.851,0,0,1,1.11.375l1.936,3.882A.785.785,0,0,0,40.9,21.5a.742.742,0,0,0,.374-1l-1.964-3.937c-.445-.893,1.047-1.6,1.5-.7l1.964,3.937a.777.777,0,0,0,1.457-.3.723.723,0,0,0-.068-.434l-1.93-3.871c-.444-.891,1.057-1.585,1.5-.7l4.313,8.648a6.589,6.589,0,0,1-.1,6.071.726.726,0,0,0-.007.664l1.155,2.317Z" transform="translate(-13.878 0)" fill="#404cdc"/>
              </g>
            </g>
          </g>
          <g id="Group_56370" data-name="Group 56370" transform="translate(-2785 -3195)">
            <rect id="Rectangle_23" data-name="Rectangle 23" width="48" height="48" transform="translate(4520 3963)" fill="none"/>
          </g>
        </g>
      </g>
    </g>
  </g>
</svg>
