<svg xmlns="http://www.w3.org/2000/svg" width="48" height="48" viewBox="0 0 48 48">
  <g id="Group_56377" data-name="Group 56377" transform="translate(-301 -240)">
    <g id="Group_56376" data-name="Group 56376">
      <g id="Group_56338" data-name="Group 56338" transform="translate(301 240)">
        <g id="Group_56351" data-name="Group 56351">
          <rect id="Rectangle_20" data-name="Rectangle 20" width="48" height="48" fill="none"/>
          <g id="shield_1_" data-name="shield (1)" transform="translate(4.566 2.283)">
            <path id="Path_219" data-name="Path 219" d="M82.234,77.588A30.225,30.225,0,0,1,70.788,67.045a26.689,26.689,0,0,1-4.124-14.161V49.012a1.367,1.367,0,0,1,.849-1.272,11.9,11.9,0,0,0,6.363-5.931,1.344,1.344,0,0,1,1.216-.773h15.7a1.344,1.344,0,0,1,1.216.773,11.9,11.9,0,0,0,6.363,5.931,1.367,1.367,0,0,1,.849,1.272v3.872A26.689,26.689,0,0,1,95.1,67.045,30.227,30.227,0,0,1,83.651,77.588l-.079.042a1.336,1.336,0,0,1-1.258,0Z" transform="translate(-62.967 -37.514)" fill="#95dde6"/>
            <path id="Path_224" data-name="Path 224" d="M240.053,235.043v1.78a.625.625,0,1,0,1.251,0v-1.78a1.465,1.465,0,1,0-1.251,0Z" transform="translate(-220.679 -212.026)" fill="#404cdc"/>
            <path id="Path_225" data-name="Path 225" d="M75.283,71.479h0l.079.042a1.955,1.955,0,0,0,1.841,0l.079-.042A30.849,30.849,0,0,0,88.966,60.72a27.306,27.306,0,0,0,4.221-14.494v-3.87a1.99,1.99,0,0,0-1.245-1.862,11.2,11.2,0,0,1-6.027-5.61,1.978,1.978,0,0,0-1.782-1.135h-15.7a1.978,1.978,0,0,0-1.782,1.135,11.2,11.2,0,0,1-6.027,5.61,1.99,1.99,0,0,0-1.245,1.862v3.87A27.3,27.3,0,0,0,63.6,60.72,30.848,30.848,0,0,0,75.283,71.479ZM60.632,46.226v-3.87a.727.727,0,0,1,.453-.681,12.453,12.453,0,0,0,6.7-6.245.72.72,0,0,1,.651-.411h15.7a.72.72,0,0,1,.651.411,12.455,12.455,0,0,0,6.7,6.245.727.727,0,0,1,.453.681v3.87a26.025,26.025,0,0,1-4.026,13.813A29.589,29.589,0,0,1,76.7,70.354l-.079.042a.717.717,0,0,1-.675,0l-.079-.042A29.589,29.589,0,0,1,64.657,60.039,26.025,26.025,0,0,1,60.632,46.226Z" transform="translate(-56.307 -30.853)" fill="#404cdc"/>
            <path id="Path_226" data-name="Path 226" d="M69.644,245.538a.626.626,0,0,0-.749.472,30.544,30.544,0,0,1-15.939,20.047l-1.911,1a.424.424,0,0,1-.394,0l-1.911-1a30.535,30.535,0,0,1-15.946-20.082.626.626,0,0,0-1.222.274,31.781,31.781,0,0,0,16.586,20.914l1.911,1a1.678,1.678,0,0,0,1.56,0l1.911-1a31.791,31.791,0,0,0,16.578-20.878A.625.625,0,0,0,69.644,245.538Z" transform="translate(-30.873 -223.841)" fill="#404cdc"/>
            <path id="Path_227" data-name="Path 227" d="M62.049,7.155a6.962,6.962,0,0,1-6.395-5.7A1.691,1.691,0,0,0,53.993,0H33.126a1.691,1.691,0,0,0-1.661,1.456,6.962,6.962,0,0,1-6.395,5.7,1.663,1.663,0,0,0-1.486,1.663v6.715a28.742,28.742,0,0,0,.15,2.932.626.626,0,0,0,.622.561.635.635,0,0,0,.065,0,.625.625,0,0,0,.559-.686,27.5,27.5,0,0,1-.144-2.8V8.818A.42.42,0,0,1,25.2,8.4a8.208,8.208,0,0,0,7.5-6.77.428.428,0,0,1,.421-.378H53.993a.428.428,0,0,1,.421.378,8.208,8.208,0,0,0,7.5,6.77.42.42,0,0,1,.365.419v6.715a27.506,27.506,0,0,1-.141,2.775.626.626,0,0,0,1.246.126,28.75,28.75,0,0,0,.147-2.9V8.818A1.663,1.663,0,0,0,62.049,7.155Z" transform="translate(-23.584)" fill="#404cdc"/>
            <path id="Path_228" data-name="Path 228" d="M166.192,97.911a1.991,1.991,0,0,0,1.989-1.989V86.969a1.991,1.991,0,0,0-1.989-1.989h-1.028V82a6.11,6.11,0,0,0-12.22,0V84.98h-1.028a1.991,1.991,0,0,0-1.989,1.989v8.953a1.991,1.991,0,0,0,1.989,1.989ZM154.195,82a4.86,4.86,0,0,1,9.719,0V84.98h-9.719Zm-3.017,13.927V86.969a.739.739,0,0,1,.738-.738h14.277a.739.739,0,0,1,.738.738v8.953a.739.739,0,0,1-.738.738H151.916A.739.739,0,0,1,151.178,95.922Z" transform="translate(-139.054 -69.024)" fill="#404cdc"/>
          </g>
        </g>
      </g>
    </g>
  </g>
</svg>
