<svg xmlns="http://www.w3.org/2000/svg" width="48" height="48" viewBox="0 0 48 48">
  <g id="Group_56381" data-name="Group 56381" transform="translate(-1227 -240)">
    <g id="Group_56343" data-name="Group 56343" transform="translate(1207 220)">
      <g id="Group_56338" data-name="Group 56338" transform="translate(20 20)">
        <g id="Group_56366" data-name="Group 56366" transform="translate(-1133 -342)">
          <rect id="Rectangle_26" data-name="Rectangle 26" width="48" height="48" transform="translate(1133 342)" fill="none"/>
          <g id="return-on-investment" transform="translate(1135.28 348.84)">
            <path id="Path_413" data-name="Path 413" d="M4.861,241.671H9.7a.861.861,0,0,0,.861-.861V229.357A.861.861,0,0,0,9.7,228.5H4.861a.861.861,0,0,0-.861.861V240.81a.861.861,0,0,0,.861.861Zm0,0" transform="translate(-3.656 -208.906)" fill="#95dde6"/>
            <path id="Path_414" data-name="Path 414" d="M57.177,228.5H56.043a.945.945,0,0,1,.945.945v11.284a.945.945,0,0,1-.945.945h1.134a.945.945,0,0,0,.946-.945V229.441A.946.946,0,0,0,57.177,228.5Zm0,0" transform="translate(-51.218 -208.906)" fill="#95dde6"/>
            <path id="Path_415" data-name="Path 415" d="M4.945,241.671H6.08a.945.945,0,0,1-.945-.945V229.441a.945.945,0,0,1,.945-.945H4.945a.945.945,0,0,0-.945.945v11.284a.945.945,0,0,0,.945.945Zm0,0" transform="translate(-3.656 -208.906)" fill="#95dde6"/>
            <path id="Path_416" data-name="Path 416" d="M6.045,238.36H1.205A1.207,1.207,0,0,1,0,237.154V225.7A1.207,1.207,0,0,1,1.205,224.5H6.045A1.207,1.207,0,0,1,7.25,225.7v11.453A1.207,1.207,0,0,1,6.045,238.36ZM1.205,225.185a.517.517,0,0,0-.517.517v11.453a.517.517,0,0,0,.517.517H6.045a.517.517,0,0,0,.517-.517V225.7a.517.517,0,0,0-.517-.517Zm0,0" transform="translate(0 -205.251)" fill="#404cdc"/>
            <path id="Path_417" data-name="Path 417" d="M17.915,248.591a.345.345,0,0,1-.344-.344v-2.27a.344.344,0,0,1,.689,0v2.27A.344.344,0,0,1,17.915,248.591Zm0,0" transform="translate(-16.057 -224.554)" fill="#fff"/>
            <path id="Path_420" data-name="Path 420" d="M102.5,248H88.148a2.235,2.235,0,0,1-1.16-.324l-5.033-3.053H76.548a.344.344,0,0,1-.344-.344v-8.358a.344.344,0,0,1,.344-.344h5.364a6.2,6.2,0,0,1,4.313-1.728H96.816a2.719,2.719,0,1,1,0,5.439H92.583a.909.909,0,1,0,0,1.817h9.14a2,2,0,0,0,1.425-.59l5.085-5.085a2.814,2.814,0,1,1,3.98,3.98l-7.8,7.8A2.687,2.687,0,0,1,102.5,248Zm-25.61-4.066h5.16a.345.345,0,0,1,.179.05l5.115,3.1a1.547,1.547,0,0,0,.8.224H102.5a2,2,0,0,0,1.426-.591l7.8-7.8a2.126,2.126,0,0,0-3.006-3.006L103.635,241a2.687,2.687,0,0,1-1.912.792h-9.14a1.6,1.6,0,1,1,0-3.195h4.233a2.031,2.031,0,1,0,0-4.061H86.224A5.519,5.519,0,0,0,82.3,236.16a.345.345,0,0,1-.244.1h-5.16Zm0,0" transform="translate(-69.712 -213.794)" fill="#404cdc"/>
            <path id="Path_421" data-name="Path 421" d="M214.644,4.583l-1.832.087,1.15,1.15a10.816,10.816,0,0,0,0,15.293l1.238-1.238a9.064,9.064,0,0,1,0-12.816l1.1,1.1.175-3.663Zm0,0" transform="translate(-192.681 -4.151)" fill="#95dde6"/>
            <path id="Path_422" data-name="Path 422" d="M409.23,57.019l1.831-.087-1.15-1.15a10.815,10.815,0,0,0,0-15.293l-1.238,1.238a9.064,9.064,0,0,1,0,12.816l-1.1-1.1-.175,3.663Zm0,0" transform="translate(-372.391 -37.045)" fill="#95dde6"/>
            <path id="Path_423" data-name="Path 423" d="M270.947,41.342a7.3,7.3,0,1,0-7.149,7.453A7.3,7.3,0,0,0,270.947,41.342Zm0,0" transform="translate(-234.327 -31.29)" fill="#95dde6"/>
            <g id="Group_56366-2" data-name="Group 56366" transform="translate(17.735 0)">
              <path id="Path_426" data-name="Path 426" d="M315.485,71.043a.408.408,0,0,1,.411.411v.21a3.479,3.479,0,0,1,1.481.526.512.512,0,0,1,.287.459.526.526,0,0,1-.535.525.551.551,0,0,1-.287-.086,3.461,3.461,0,0,0-.984-.42V74.5c1.453.363,2.074.946,2.074,1.969,0,1.051-.822,1.749-2.035,1.864v.573a.408.408,0,0,1-.411.411.416.416,0,0,1-.42-.411v-.593a4.13,4.13,0,0,1-1.959-.745.526.526,0,0,1-.258-.459.525.525,0,0,1,.841-.42,3.386,3.386,0,0,0,1.414.64V75.449c-1.4-.363-2.045-.889-2.045-1.969a1.92,1.92,0,0,1,2.007-1.825v-.2A.416.416,0,0,1,315.485,71.043ZM315.1,74.3V72.61c-.612.058-.918.382-.918.8C314.185,73.815,314.367,74.063,315.1,74.3Zm.755,1.328v1.74c.612-.067.946-.373.946-.831C316.8,76.118,316.593,75.86,315.857,75.63Zm0,0" transform="translate(-303.716 -64.968)" fill="#404cdc"/>
              <path id="Path_427" data-name="Path 427" d="M259.99,45.477a7.647,7.647,0,1,1,7.647-7.647A7.655,7.655,0,0,1,259.99,45.477Zm0-14.6a6.958,6.958,0,1,0,6.958,6.958A6.966,6.966,0,0,0,259.99,30.873Zm0,0" transform="translate(-248.422 -27.627)" fill="#404cdc"/>
              <path id="Path_428" data-name="Path 428" d="M210.309,17.8a.345.345,0,0,1-.243-.1,11.16,11.16,0,0,1-.242-15.533l-.91-.91a.344.344,0,0,1,.227-.587L212.8.492a.344.344,0,0,1,.361.36l-.175,3.663a.344.344,0,0,1-.588.227l-.851-.851a8.72,8.72,0,0,0,.241,12.081.344.344,0,0,1,0,.487L210.552,17.7a.344.344,0,0,1-.244.1Zm-.359-16.48.6.6a.344.344,0,0,1,0,.487,10.472,10.472,0,0,0-.237,14.558l.752-.751A9.409,9.409,0,0,1,211.3,3.156a.355.355,0,0,1,.487,0l.549.549.12-2.507Zm0,0" transform="translate(-206.797 -0.492)" fill="#404cdc"/>
              <path id="Path_429" data-name="Path 429" d="M403.742,53.8a.344.344,0,0,1-.344-.361l.175-3.663a.344.344,0,0,1,.588-.227l.851.851a8.72,8.72,0,0,0-.241-12.081.344.344,0,0,1,0-.487l1.238-1.238a.344.344,0,0,1,.487,0,11.159,11.159,0,0,1,.242,15.533l.91.91a.344.344,0,0,1-.227.588l-3.663.175h-.016Zm.482-3.213-.119,2.507,2.507-.12-.6-.6a.344.344,0,0,1,0-.487,10.471,10.471,0,0,0,.237-14.558l-.752.752a9.409,9.409,0,0,1-.237,13.055.354.354,0,0,1-.487,0Zm0,0" transform="translate(-386.47 -33.392)" fill="#404cdc"/>
            </g>
          </g>
        </g>
      </g>
    </g>
    <g id="Group_56343-2" data-name="Group 56343" transform="translate(1207 220)">
      <g id="Group_56338-2" data-name="Group 56338" transform="translate(20 20)">
        <g id="Group_56366-3" data-name="Group 56366" transform="translate(-1133 -342)">
          <rect id="Rectangle_26-2" data-name="Rectangle 26" width="48" height="48" transform="translate(1133 342)" fill="none"/>
          <g id="return-on-investment-2" data-name="return-on-investment" transform="translate(1135.28 348.84)">
            <path id="Path_413-2" data-name="Path 413" d="M4.861,241.671H9.7a.861.861,0,0,0,.861-.861V229.357A.861.861,0,0,0,9.7,228.5H4.861a.861.861,0,0,0-.861.861V240.81a.861.861,0,0,0,.861.861Zm0,0" transform="translate(-3.656 -208.906)" fill="#95dde6"/>
            <path id="Path_414-2" data-name="Path 414" d="M57.177,228.5H56.043a.945.945,0,0,1,.945.945v11.284a.945.945,0,0,1-.945.945h1.134a.945.945,0,0,0,.946-.945V229.441A.946.946,0,0,0,57.177,228.5Zm0,0" transform="translate(-51.218 -208.906)" fill="#95dde6"/>
            <path id="Path_415-2" data-name="Path 415" d="M4.945,241.671H6.08a.945.945,0,0,1-.945-.945V229.441a.945.945,0,0,1,.945-.945H4.945a.945.945,0,0,0-.945.945v11.284a.945.945,0,0,0,.945.945Zm0,0" transform="translate(-3.656 -208.906)" fill="#95dde6"/>
            <path id="Path_416-2" data-name="Path 416" d="M6.045,238.36H1.205A1.207,1.207,0,0,1,0,237.154V225.7A1.207,1.207,0,0,1,1.205,224.5H6.045A1.207,1.207,0,0,1,7.25,225.7v11.453A1.207,1.207,0,0,1,6.045,238.36ZM1.205,225.185a.517.517,0,0,0-.517.517v11.453a.517.517,0,0,0,.517.517H6.045a.517.517,0,0,0,.517-.517V225.7a.517.517,0,0,0-.517-.517Zm0,0" transform="translate(0 -205.251)" fill="#404cdc"/>
            <path id="Path_417-2" data-name="Path 417" d="M17.915,248.591a.345.345,0,0,1-.344-.344v-2.27a.344.344,0,0,1,.689,0v2.27A.344.344,0,0,1,17.915,248.591Zm0,0" transform="translate(-16.057 -224.554)" fill="#fff"/>
            <path id="Path_420-2" data-name="Path 420" d="M102.5,248H88.148a2.235,2.235,0,0,1-1.16-.324l-5.033-3.053H76.548a.344.344,0,0,1-.344-.344v-8.358a.344.344,0,0,1,.344-.344h5.364a6.2,6.2,0,0,1,4.313-1.728H96.816a2.719,2.719,0,1,1,0,5.439H92.583a.909.909,0,1,0,0,1.817h9.14a2,2,0,0,0,1.425-.59l5.085-5.085a2.814,2.814,0,1,1,3.98,3.98l-7.8,7.8A2.687,2.687,0,0,1,102.5,248Zm-25.61-4.066h5.16a.345.345,0,0,1,.179.05l5.115,3.1a1.547,1.547,0,0,0,.8.224H102.5a2,2,0,0,0,1.426-.591l7.8-7.8a2.126,2.126,0,0,0-3.006-3.006L103.635,241a2.687,2.687,0,0,1-1.912.792h-9.14a1.6,1.6,0,1,1,0-3.195h4.233a2.031,2.031,0,1,0,0-4.061H86.224A5.519,5.519,0,0,0,82.3,236.16a.345.345,0,0,1-.244.1h-5.16Zm0,0" transform="translate(-69.712 -213.794)" fill="#404cdc"/>
            <path id="Path_421-2" data-name="Path 421" d="M214.644,4.583l-1.832.087,1.15,1.15a10.816,10.816,0,0,0,0,15.293l1.238-1.238a9.064,9.064,0,0,1,0-12.816l1.1,1.1.175-3.663Zm0,0" transform="translate(-192.681 -4.151)" fill="#95dde6"/>
            <path id="Path_422-2" data-name="Path 422" d="M409.23,57.019l1.831-.087-1.15-1.15a10.815,10.815,0,0,0,0-15.293l-1.238,1.238a9.064,9.064,0,0,1,0,12.816l-1.1-1.1-.175,3.663Zm0,0" transform="translate(-372.391 -37.045)" fill="#95dde6"/>
            <path id="Path_423-2" data-name="Path 423" d="M270.947,41.342a7.3,7.3,0,1,0-7.149,7.453A7.3,7.3,0,0,0,270.947,41.342Zm0,0" transform="translate(-234.327 -31.29)" fill="#95dde6"/>
            <g id="Group_56366-4" data-name="Group 56366" transform="translate(17.735 0)">
              <path id="Path_426-2" data-name="Path 426" d="M315.485,71.043a.408.408,0,0,1,.411.411v.21a3.479,3.479,0,0,1,1.481.526.512.512,0,0,1,.287.459.526.526,0,0,1-.535.525.551.551,0,0,1-.287-.086,3.461,3.461,0,0,0-.984-.42V74.5c1.453.363,2.074.946,2.074,1.969,0,1.051-.822,1.749-2.035,1.864v.573a.408.408,0,0,1-.411.411.416.416,0,0,1-.42-.411v-.593a4.13,4.13,0,0,1-1.959-.745.526.526,0,0,1-.258-.459.525.525,0,0,1,.841-.42,3.386,3.386,0,0,0,1.414.64V75.449c-1.4-.363-2.045-.889-2.045-1.969a1.92,1.92,0,0,1,2.007-1.825v-.2A.416.416,0,0,1,315.485,71.043ZM315.1,74.3V72.61c-.612.058-.918.382-.918.8C314.185,73.815,314.367,74.063,315.1,74.3Zm.755,1.328v1.74c.612-.067.946-.373.946-.831C316.8,76.118,316.593,75.86,315.857,75.63Zm0,0" transform="translate(-303.716 -64.968)" fill="#404cdc"/>
              <path id="Path_427-2" data-name="Path 427" d="M259.99,45.477a7.647,7.647,0,1,1,7.647-7.647A7.655,7.655,0,0,1,259.99,45.477Zm0-14.6a6.958,6.958,0,1,0,6.958,6.958A6.966,6.966,0,0,0,259.99,30.873Zm0,0" transform="translate(-248.422 -27.627)" fill="#404cdc"/>
              <path id="Path_428-2" data-name="Path 428" d="M210.309,17.8a.345.345,0,0,1-.243-.1,11.16,11.16,0,0,1-.242-15.533l-.91-.91a.344.344,0,0,1,.227-.587L212.8.492a.344.344,0,0,1,.361.36l-.175,3.663a.344.344,0,0,1-.588.227l-.851-.851a8.72,8.72,0,0,0,.241,12.081.344.344,0,0,1,0,.487L210.552,17.7a.344.344,0,0,1-.244.1Zm-.359-16.48.6.6a.344.344,0,0,1,0,.487,10.472,10.472,0,0,0-.237,14.558l.752-.751A9.409,9.409,0,0,1,211.3,3.156a.355.355,0,0,1,.487,0l.549.549.12-2.507Zm0,0" transform="translate(-206.797 -0.492)" fill="#404cdc"/>
              <path id="Path_429-2" data-name="Path 429" d="M403.742,53.8a.344.344,0,0,1-.344-.361l.175-3.663a.344.344,0,0,1,.588-.227l.851.851a8.72,8.72,0,0,0-.241-12.081.344.344,0,0,1,0-.487l1.238-1.238a.344.344,0,0,1,.487,0,11.159,11.159,0,0,1,.242,15.533l.91.91a.344.344,0,0,1-.227.588l-3.663.175h-.016Zm.482-3.213-.119,2.507,2.507-.12-.6-.6a.344.344,0,0,1,0-.487,10.471,10.471,0,0,0,.237-14.558l-.752.752a9.409,9.409,0,0,1-.237,13.055.354.354,0,0,1-.487,0Zm0,0" transform="translate(-386.47 -33.392)" fill="#404cdc"/>
            </g>
          </g>
        </g>
      </g>
    </g>
  </g>
</svg>
