<svg xmlns="http://www.w3.org/2000/svg" width="84" height="84" viewBox="0 0 84 84">
  <g id="Group_9923" data-name="Group 9923" transform="translate(-933 -3547)">
    <circle id="Ellipse_521" data-name="Ellipse 521" cx="42" cy="42" r="42" transform="translate(933 3547)" fill="#2631b8"/>
    <g id="Group_9922" data-name="Group 9922" transform="translate(953.221 3565.666)">
      <path id="Path_51140" data-name="Path 51140" d="M-15539.665-6903.962l-12.627-19.708,18.883,10.375-4,5.328Z" transform="translate(15561.175 6927.295)" fill="#95dde6"/>
      <path id="Path_51141" data-name="Path 51141" d="M-15551.795-6891.084v-3.64l11.193-15.632,3.521,2.346,4.012,5.57-.943,2.237Z" transform="translate(15561.449 6934.691)" fill="#95dde6"/>
      <path id="_104089" data-name="104089" d="M51.372,19.288,18.837.691A5.241,5.241,0,0,0,11,5.241V42.435a5.241,5.241,0,0,0,7.842,4.55l32.534-18.6a5.241,5.241,0,0,0,0-9.1Zm-14.1-4.4-4.467,6.222L22.121,6.229ZM16.031,44.48a2.045,2.045,0,0,1-.83-.261,2.069,2.069,0,0,1-1.027-1.784V5.241a2.053,2.053,0,0,1,1.854-2.049L30.85,23.838Zm6.09-3.033L32.806,26.563l4.467,6.222ZM49.794,25.628,40.047,31.2l-5.285-7.362,5.285-7.362,9.747,5.571a2.062,2.062,0,0,1,0,3.581Z" transform="translate(-10.995)" fill="#fff"/>
    </g>
  </g>
</svg>
