<svg xmlns="http://www.w3.org/2000/svg" width="84" height="84" viewBox="0 0 84 84">
  <g id="Group_14856" data-name="Group 14856" transform="translate(14634 5334)">
    <circle id="Ellipse_98" data-name="Ellipse 98" cx="42" cy="42" r="42" transform="translate(-14634 -5334)" fill="#2631b8"/>
    <g id="Group_9913" data-name="Group 9913" transform="translate(-14618.445 -5318.444)">
      <circle id="Ellipse_526" data-name="Ellipse 526" cx="4.667" cy="4.667" r="4.667" transform="translate(26.444 6.222)" fill="#95dde6"/>
      <path id="Path_51106" data-name="Path 51106" d="M-15804.439-7143.963l-7.652-17.71-2.428-5.682,2.428-2.392,8.463,17.37,2,5.461Z" transform="translate(15847.938 7182.588)" fill="#95dde6"/>
      <g id="_1352610" data-name="1352610" transform="translate(0 0)">
        <path id="Path_51098" data-name="Path 51098" d="M48.359,10.746H36.717a5.359,5.359,0,0,0-1.791-3.994V3.582a3.582,3.582,0,1,0-7.164,0v3.17a5.358,5.358,0,0,0-1.791,3.994H10.746V8.955A5.373,5.373,0,0,0,0,8.955v39.4a5.378,5.378,0,0,0,5.373,5.373H48.359a5.378,5.378,0,0,0,5.373-5.373V16.12A5.379,5.379,0,0,0,48.359,10.746ZM43.971,36.538l-4.555-9.773L34.093,15.354a5.416,5.416,0,0,0,1.408-1.2l9.021,19.344a2.686,2.686,0,0,1-.548,3.045Zm-25.254,0a2.686,2.686,0,0,1-.547-3.049L27.187,14.15a5.417,5.417,0,0,0,1.408,1.208l-5.319,11.4ZM30.269,16.012a5.375,5.375,0,0,0,2.158,0l4.956,10.625a16.728,16.728,0,0,1-12.07,0Zm-.716-12.43a1.791,1.791,0,0,1,3.582,0v2.1a5.271,5.271,0,0,0-3.582,0Zm1.791,3.582a3.582,3.582,0,1,1-3.582,3.582A3.582,3.582,0,0,1,31.344,7.164ZM5.373,5.373A3.582,3.582,0,0,1,8.955,8.955V40.783a5.341,5.341,0,0,0-7.164,0V8.955A3.582,3.582,0,0,1,5.373,5.373ZM51.941,48.359a3.582,3.582,0,0,1-3.582,3.582H5.373a3.582,3.582,0,0,1-3.582-3.582V44.777a3.582,3.582,0,1,1,7.164,0,.9.9,0,0,0,1.791,0V12.537H25.96l-9.416,20.19a4.469,4.469,0,0,0,1.387,5.489l-.794,1.7a.9.9,0,1,0,1.623.756l1.892-4.058,3.9-8.356a18.5,18.5,0,0,0,13.587,0l3.9,8.356,1.892,4.058a.9.9,0,1,0,1.623-.756l-.794-1.7a4.469,4.469,0,0,0,1.388-5.487L36.727,12.537H48.359a3.582,3.582,0,0,1,3.582,3.582Zm0,0" fill="#fff"/>
        <path id="Path_51099" data-name="Path 51099" d="M290.526,95.55a.706.706,0,0,0,.162.08.568.568,0,0,0,.161.054,1.3,1.3,0,0,0,.179.018,1.072,1.072,0,0,0,.169-.018.536.536,0,0,0,.171-.054.511.511,0,0,0,.152-.08.92.92,0,0,0,.144-.108.9.9,0,1,0-1.272,0A1.52,1.52,0,0,0,290.526,95.55Zm0,0" transform="translate(-259.685 -84.06)" fill="#fff"/>
        <path id="Path_51100" data-name="Path 51100" d="M217.739,395.859a.9.9,0,0,0-.194-.292l-2.687-2.687a.9.9,0,0,0-1.266,1.266l1.159,1.159H199.373l1.158-1.158a.9.9,0,0,0-1.266-1.266l-2.687,2.686a.876.876,0,0,0-.179.269.852.852,0,0,0-.031.089.905.905,0,0,0-.044.222.5.5,0,0,0,0,.089.9.9,0,0,0,.055.283.035.035,0,0,0,.005.023.911.911,0,0,0,.179.264c.007.008.01.019.018.027l2.687,2.687a.9.9,0,0,0,1.266-1.266l-1.162-1.158h15.378l-1.158,1.158a.9.9,0,1,0,1.266,1.266l2.687-2.687a.9.9,0,0,0,.194-.976Zm0,0" transform="translate(-175.718 -351.425)" fill="#fff"/>
        <path id="Path_51101" data-name="Path 51101" d="M120.361,141.013a.9.9,0,0,0,.9-.9v-1.791h1.791a.9.9,0,0,0,0-1.791h-2.687a.9.9,0,0,0-.9.9v2.687A.9.9,0,0,0,120.361,141.013Zm0,0" transform="translate(-106.928 -122.206)" fill="#fff"/>
        <path id="Path_51102" data-name="Path 51102" d="M438.781,136.535h-2.686a.9.9,0,1,0,0,1.791h1.791v1.791a.9.9,0,0,0,1.791,0V137.43A.9.9,0,0,0,438.781,136.535Zm0,0" transform="translate(-389.527 -122.206)" fill="#fff"/>
        <path id="Path_51103" data-name="Path 51103" d="M123.047,437.886h-1.791v-1.791a.9.9,0,0,0-1.791,0v2.686a.9.9,0,0,0,.9.9h2.687a.9.9,0,0,0,0-1.791Zm0,0" transform="translate(-106.928 -389.527)" fill="#fff"/>
        <path id="Path_51104" data-name="Path 51104" d="M438.781,435.2a.9.9,0,0,0-.9.9v1.791h-1.791a.9.9,0,1,0,0,1.791h2.686a.9.9,0,0,0,.9-.9v-2.686A.9.9,0,0,0,438.781,435.2Zm0,0" transform="translate(-389.527 -389.527)" fill="#fff"/>
      </g>
    </g>
  </g>
</svg>
