<svg xmlns="http://www.w3.org/2000/svg" width="48" height="48" viewBox="0 0 48 48">
  <g id="Group_56378" data-name="Group 56378" transform="translate(-301 -495)">
    <g id="Group_56340" data-name="Group 56340" transform="translate(-500 79)">
      <g id="Group_56338" data-name="Group 56338" transform="translate(801 416)">
        <g id="Group_56352" data-name="Group 56352">
          <rect id="Rectangle_22" data-name="Rectangle 22" width="48" height="48" fill="none"/>
          <g id="target-audience_2_" data-name="target-audience (2)" transform="translate(2.305 2.305)">
            <g id="Group_56346" data-name="Group 56346" transform="translate(10.939 14.446)">
              <circle id="Ellipse_2318" data-name="Ellipse 2318" cx="2.488" cy="2.488" r="2.488" transform="translate(9.043 0.265)" fill="#95dde6"/>
              <path id="Path_229" data-name="Path 229" d="M210.191,254.324v1.891a1.753,1.753,0,0,1-1.754,1.754h-6.183a1.753,1.753,0,0,1-1.754-1.754v-1.891a4.823,4.823,0,0,1,4.824-4.824h.044a4.824,4.824,0,0,1,4.824,4.824Z" transform="translate(-193.814 -242.018)" fill="#95dde6"/>
              <circle id="Ellipse_2319" data-name="Ellipse 2319" cx="2.139" cy="2.139" r="2.139" transform="translate(16.684)" fill="#95dde6"/>
              <path id="Path_230" data-name="Path 230" d="M303.472,242.691v1.4a1.519,1.519,0,0,1-1.544,1.484h-5v-1.288a4.806,4.806,0,0,0-1.394-3.392,4.166,4.166,0,0,1,1.063-1.4,4.078,4.078,0,0,1,2.668-.991h.044A4.2,4.2,0,0,1,303.472,242.691Z" transform="translate(-280.497 -231.99)" fill="#95dde6"/>
              <path id="Path_231" data-name="Path 231" d="M132.473,240.949a4.808,4.808,0,0,0-1.338,3.335v1.288h-5.092a1.519,1.519,0,0,1-1.544-1.484v-1.4a4.2,4.2,0,0,1,4.167-4.191h.044a4.078,4.078,0,0,1,2.714,1.031,4.159,4.159,0,0,1,1.017,1.361Z" transform="translate(-124.5 -231.99)" fill="#95dde6"/>
              <circle id="Ellipse_2320" data-name="Ellipse 2320" cx="2.139" cy="2.139" r="2.139" transform="translate(2.014)" fill="#95dde6"/>
            </g>
            <g id="Group_56347" data-name="Group 56347">
              <path id="Path_240" data-name="Path 240" d="M38.36,6.581A22.49,22.49,0,0,0,13,2.087a.658.658,0,1,0,.555,1.194,21.183,21.183,0,1,1-2.606,1.445.658.658,0,0,0-.718-1.1A22.473,22.473,0,1,0,38.36,6.581Z" fill="#404cdc"/>
              <path id="Path_241" data-name="Path 241" d="M78.1,61.978h2.531a.663.663,0,0,0,.657-.707A18.677,18.677,0,0,0,64.019,44.023a.663.663,0,0,0-.706.657v3.347a.67.67,0,0,1-1.341,0V44.683a.663.663,0,0,0-.708-.657A18.677,18.677,0,0,0,44.042,61.271a.663.663,0,0,0,.657.707h2.444a.67.67,0,1,1,0,1.34H44.7a.663.663,0,0,0-.657.707A18.677,18.677,0,0,0,61.264,81.269a.663.663,0,0,0,.708-.657V78.147a.67.67,0,0,1,1.34,0v2.468a.663.663,0,0,0,.706.657,18.633,18.633,0,0,0,9.114-3.159.659.659,0,1,0-.74-1.091,17.314,17.314,0,0,1-7.762,2.87V78.147a1.988,1.988,0,1,0-3.976,0v1.74A17.45,17.45,0,0,1,45.423,64.636h1.72a1.988,1.988,0,1,0,0-3.976h-1.72A17.45,17.45,0,0,1,60.653,45.408v2.619a1.988,1.988,0,0,0,3.977,0V45.4A17.442,17.442,0,0,1,79.907,60.66H78.1a1.988,1.988,0,0,0,0,3.976h1.808a17.311,17.311,0,0,1-5.223,10.531.659.659,0,1,0,.913.951,18.623,18.623,0,0,0,5.691-12.093.663.663,0,0,0-.657-.707H78.1a.67.67,0,1,1,0-1.34Z" transform="translate(-40.194 -40.177)" fill="#404cdc"/>
              <path id="Path_242" data-name="Path 242" d="M226.286,163.143a3.143,3.143,0,1,0-3.143,3.143A3.146,3.146,0,0,0,226.286,163.143Zm-4.976,0a1.833,1.833,0,1,1,1.833,1.833A1.835,1.835,0,0,1,221.31,163.143Z" transform="translate(-200.672 -145.943)" fill="#404cdc"/>
              <path id="Path_243" data-name="Path 243" d="M312.587,159.794a2.794,2.794,0,1,0-2.794,2.794A2.8,2.8,0,0,0,312.587,159.794Zm-4.278,0a1.484,1.484,0,1,1,1.484,1.484A1.486,1.486,0,0,1,308.31,159.794Z" transform="translate(-280.032 -143.209)" fill="#404cdc"/>
              <path id="Path_244" data-name="Path 244" d="M142.794,162.587A2.794,2.794,0,1,0,140,159.794,2.8,2.8,0,0,0,142.794,162.587Zm0-4.278a1.484,1.484,0,1,1-1.484,1.484A1.486,1.486,0,0,1,142.794,158.31Z" transform="translate(-127.702 -143.209)" fill="#404cdc"/>
              <path id="Path_245" data-name="Path 245" d="M118.442,234.8a.653.653,0,0,0-.433-.821.662.662,0,0,0-.829.429,9.4,9.4,0,0,0-.222,2.836,2.183,2.183,0,0,0,2.22,2.139h4.483a2.424,2.424,0,0,0,2.432,2.357h6.245a2.424,2.424,0,0,0,2.432-2.357h4.395a2.183,2.183,0,0,0,2.22-2.139v-1.4a4.863,4.863,0,0,0-4.87-4.845h-.044a4.853,4.853,0,0,0-3.94,2.039,5.54,5.54,0,0,0-3.292-1.078h-.044a5.54,5.54,0,0,0-3.349,1.122A4.839,4.839,0,0,0,121.872,231h-.044a4.857,4.857,0,0,0-2.422.65.651.651,0,0,0-.239.9.665.665,0,0,0,.9.236,3.522,3.522,0,0,1,1.756-.472h.044a3.51,3.51,0,0,1,3,1.708,5.418,5.418,0,0,0-1.216,3.421v.633h-4.481a.866.866,0,0,1-.9-.829A8.993,8.993,0,0,1,118.442,234.8Zm18.027-2.488h.044a3.546,3.546,0,0,1,3.548,3.536v1.4a.866.866,0,0,1-.9.829h-4.393v-.633a5.42,5.42,0,0,0-1.266-3.484A3.52,3.52,0,0,1,136.469,232.31Zm-7.232.96a4.194,4.194,0,0,1,4.21,4.169v1.891a1.106,1.106,0,0,1-1.11,1.1h-6.245a1.106,1.106,0,0,1-1.11-1.1v-1.891a4.194,4.194,0,0,1,4.21-4.169Z" transform="translate(-106.743 -210.689)" fill="#404cdc"/>
            </g>
          </g>
        </g>
      </g>
    </g>
  </g>
</svg>
