<svg xmlns="http://www.w3.org/2000/svg" width="84" height="84" viewBox="0 0 84 84">
  <g id="Group_13499" data-name="Group 13499" transform="translate(14956 5297)">
    <g id="Group_13490" data-name="Group 13490" transform="translate(0 -1)">
      <circle id="Ellipse_97" data-name="Ellipse 97" cx="42" cy="42" r="42" transform="translate(-14956 -5296)" fill="#2631b8"/>
      <g id="Group_9911" data-name="Group 9911" transform="translate(-14934.222 -5280.444)">
        <g id="_993515" data-name="993515" transform="translate(0 0)">
          <path id="Path_51079" data-name="Path 51079" d="M32,20h8.167V30.889H32Z" transform="translate(-12.037 -3.699)" fill="#95dde6"/>
          <circle id="Ellipse_522" data-name="Ellipse 522" cx="1.556" cy="1.556" r="1.556" transform="translate(24.344 6.592)" fill="#95dde6"/>
          <ellipse id="Ellipse_523" data-name="Ellipse 523" cx="2.333" cy="1.556" rx="2.333" ry="1.556" transform="translate(30.566 11.259)" fill="#95dde6"/>
          <ellipse id="Ellipse_524" data-name="Ellipse 524" cx="1.556" cy="2.333" rx="1.556" ry="2.333" transform="translate(35.233 22.148)" fill="#95dde6"/>
          <ellipse id="Ellipse_525" data-name="Ellipse 525" cx="1.556" cy="2.333" rx="1.556" ry="2.333" transform="translate(25.899 33.037)" fill="#95dde6"/>
          <path id="Union_44" data-name="Union 44" d="M20070.494,6038.514a14.926,14.926,0,0,1,.842-1.774l1.592.877a14.068,14.068,0,0,0-.75,1.562Zm1.834-3.412c.338-.524.7-1.048,1.049-1.558l1.492,1.033c-.344.5-.691,1-1.02,1.512Zm2.111-3.075c.359-.514.7-1.018,1-1.5l1.537.963c-.322.509-.676,1.033-1.049,1.572Zm1.891-3.054c.287-.529.555-1.068.816-1.613l1.639.781c-.273.57-.555,1.134-.852,1.688Zm1.563-3.261c.236-.56.463-1.119.676-1.684l1.693.64q-.325.877-.7,1.754Zm2.771-10.4c.051-.554.07-1.094.07-1.6v-.166l1.814-.015.006.181c0,.555-.031,1.144-.08,1.749Zm-.342-5.231,1.764-.408a16.661,16.661,0,0,1,.338,1.915l-1.8.217A17.173,17.173,0,0,0,20080.322,6010.078Zm-1.17-3.281,1.633-.8a18.371,18.371,0,0,1,.756,1.8l-1.713.6A14.322,14.322,0,0,0,20079.152,6006.8Zm-1.865-2.953,1.422-1.129a17.392,17.392,0,0,1,1.123,1.588l-1.531.968A16.462,16.462,0,0,0,20077.287,6003.843Zm-2.459-2.5,1.16-1.4c.5.413.977.852,1.43,1.31l-1.295,1.275A16.157,16.157,0,0,0,20074.828,6001.343Zm-2.914-1.966.863-1.6c.568.313,1.129.645,1.658,1l-1.014,1.507C20072.943,5999.967,20072.434,5999.66,20071.914,5999.377Zm-3.24-1.371.545-1.729c.619.2,1.23.418,1.814.67l-.711,1.668A17.223,17.223,0,0,0,20068.674,5998.007Zm-3.451-.761.23-1.8c.641.081,1.281.191,1.906.328l-.395,1.774C20066.4,5997.422,20065.807,5997.321,20065.223,5997.246Z" transform="translate(-20042.625 -5995.26)" fill="#fff"/>
          <path id="Path_51097" data-name="Path 51097" d="M47.2,23.781A2.718,2.718,0,0,0,44.649,25.6H39.037v-3.63h3.63a.907.907,0,0,0,.907-.907v-3.8a2.722,2.722,0,1,0-1.815,0v2.889H39.037V18.337a.907.907,0,0,0-.907-.907H36.315v-4.7a2.722,2.722,0,1,0-1.815,0v4.7H30.87V2.943a.907.907,0,0,0-.907-.907C18.769,2.035,10,10.14,10,20.486c0,4.915,1.951,11.422,5.092,16.98.564,1,1.3,2.047,2.079,3.158,1.647,2.348,3.48,4.988,3.679,7.286a2.579,2.579,0,0,0-1.09,2.154,2.7,2.7,0,0,0,.6,1.685,2.8,2.8,0,0,0-.833,2.009A2.725,2.725,0,0,0,22.25,56.48H37.676A2.74,2.74,0,0,0,40.4,53.694a2.71,2.71,0,0,0-.835-1.955,2.8,2.8,0,0,0,.6-1.739,2.6,2.6,0,0,0-2.722-2.595H30.87V30.133h1.815v2.722a.907.907,0,0,0,.907.907h2.722v1.075a2.722,2.722,0,1,0,1.815,0V32.855a.907.907,0,0,0-.907-.907H34.5V30.133h3.63a.907.907,0,0,0,.907-.907V27.411h5.612a2.717,2.717,0,1,0,2.555-3.63ZM42.667,13.8a.907.907,0,1,1-.907.907A.907.907,0,0,1,42.667,13.8ZM18.657,39.582c-.753-1.074-1.464-2.088-1.985-3.009-2.95-5.222-4.857-11.537-4.857-16.087,0-9.049,7.5-16.2,17.241-16.616v6.339c-.241.018-.487.04-.75.072a.907.907,0,0,0-.778.713l-.276,1.315q-.342.081-.681.183l-.9-1.008a.906.906,0,0,0-1.031-.23,13.653,13.653,0,0,0-2.855,1.667.908.908,0,0,0-.316,1.008L21.88,15.2c-.171.161-.338.329-.5.5l-1.268-.416A.913.913,0,0,0,19.1,15.6a13.618,13.618,0,0,0-1.668,2.856.907.907,0,0,0,.23,1.031l1.009.9q-.1.336-.182.674l-1.411.282a.907.907,0,0,0-.73.89v3.094a.907.907,0,0,0,.73.89l1.411.282q.08.338.182.674l-1.009.9a.908.908,0,0,0-.23,1.031A13.625,13.625,0,0,0,19.1,31.966a.912.912,0,0,0,1.008.315l1.268-.417c.162.171.329.338.5.5l-.416,1.267a.908.908,0,0,0,.315,1.008,13.623,13.623,0,0,0,2.856,1.669.909.909,0,0,0,1.031-.23l.9-1.008q.34.1.681.183l.276,1.314a.907.907,0,0,0,.778.714c.263.032.509.054.75.072V47.406h-6.43c-.371-2.674-2.265-5.395-3.969-7.824Zm3.14-15.8a8.176,8.176,0,0,0,7.259,8.113v3.12l-.15-.714a.908.908,0,0,0-.727-.707,9.839,9.839,0,0,1-1.581-.426.922.922,0,0,0-.307-.053.907.907,0,0,0-.676.3l-.853.952a11.758,11.758,0,0,1-1.366-.8l.394-1.2a.908.908,0,0,0-.276-.977,9.942,9.942,0,0,1-1.161-1.161.912.912,0,0,0-.975-.275l-1.2.394a11.793,11.793,0,0,1-.8-1.366l.953-.853a.909.909,0,0,0,.249-.983,9.87,9.87,0,0,1-.426-1.581.907.907,0,0,0-.716-.728l-1.269-.253V22.978l1.269-.253A.907.907,0,0,0,20.151,22a9.9,9.9,0,0,1,.426-1.582.908.908,0,0,0-.249-.983l-.952-.852a11.913,11.913,0,0,1,.8-1.366l1.2.394a.912.912,0,0,0,.975-.275,10.148,10.148,0,0,1,1.162-1.164.906.906,0,0,0,.275-.974L23.4,14a11.827,11.827,0,0,1,1.366-.8l.853.952a.911.911,0,0,0,.983.249,9.814,9.814,0,0,1,1.581-.426.907.907,0,0,0,.727-.706l.15-.714v3.12A8.176,8.176,0,0,0,21.8,23.781ZM29.056,17.5V30.06a6.343,6.343,0,0,1,0-12.559Zm8.62,37.163H22.25a.924.924,0,0,1-.907-.971.908.908,0,0,1,.907-.907H37.676a.924.924,0,0,1,.907.971A.908.908,0,0,1,37.676,54.665Zm-.232-5.444a.831.831,0,0,1,.907.844.908.908,0,0,1-.907.907H22.482A.924.924,0,0,1,21.575,50a.82.82,0,0,1,.907-.78Zm-.222-12.736a.907.907,0,1,1-.907.907A.907.907,0,0,1,37.222,36.485ZM35.407,9.263a.907.907,0,1,1-.907.907.907.907,0,0,1,.907-.907Zm1.815,19.056H30.87V19.244h6.352Zm9.982-.907a.907.907,0,1,1,.907-.907A.907.907,0,0,1,47.2,27.411Z" transform="translate(-10 -2.035)" fill="#fff"/>
        </g>
      </g>
    </g>
  </g>
</svg>
