<svg xmlns="http://www.w3.org/2000/svg" width="74.929" height="71.523" viewBox="0 0 74.929 71.523">
  <g id="Group_14849" data-name="Group 14849" transform="translate(-923 -3957.6)">
    <path id="cordova" d="M68.117,71.523H55.984l.851-10.218h-5.96l-.851,10.218H24.905l-.852-10.218h-5.96l.852,10.218H6.811L0,27.246,17.029,0H57.9L74.929,27.246Zm-13.623-57.9H43.546l.73,5.109H30.653l.73-5.109H20.435L13.623,27.247l3.406,27.246H57.9l3.406-27.246L54.494,13.623Zm-5.96,31.828c-.94,0-1.7-2.836-1.7-6.335s.762-6.335,1.7-6.335,1.7,2.836,1.7,6.335S49.474,45.451,48.533,45.451Zm-21.5.528c-.94,0-1.7-2.836-1.7-6.335s.763-6.335,1.7-6.335,1.7,2.836,1.7,6.335S27.974,45.979,27.034,45.979Z" transform="translate(923 3957.6)" fill="#444"/>
  </g>
</svg>
