<svg xmlns="http://www.w3.org/2000/svg" width="86.223" height="75.469" viewBox="0 0 86.223 75.469">
  <g id="Group_14851" data-name="Group 14851" transform="translate(-1492 -3955.599)">
    <g id="appcelerator" transform="translate(1491.062 3955.233)">
      <path id="Path_50984" data-name="Path 50984" d="M86.76,71.359,46.633,1.859a2.98,2.98,0,0,0-5.165,0L1.339,71.359a2.983,2.983,0,0,0,2.582,4.476H84.178a2.983,2.983,0,0,0,2.581-4.476" transform="translate(0 0)" fill="#b01c33"/>
      <path id="Path_50985" data-name="Path 50985" d="M103.7,110.6a9.029,9.029,0,0,1-7.633,3.778c-2.644,0-5.516-.832-5.516-4.76,0-4.08,2.645-5.214,7.785-5.214H103.7Zm19.8,3.153-9.671-4.234,1.064,2.818-3.942.734V93.6c0-8.461-6.876-9.974-12.619-9.974a113.127,113.127,0,0,0-12.317.755v5.742l.529.529a95.9,95.9,0,0,1,10.5-.756c4.232,0,6.649,1.964,6.649,5.365v3.4h-7.33c-6.726,0-13.146,2.87-13.146,11.41,0,8.46,4.91,10.578,10.124,10.578a12.179,12.179,0,0,0,10.2-5.289h.3l-.15,4.007.527.527,11.578-2.045-.107,3.011,7.806-7.108Z" transform="translate(-54.47 -55.115)" fill="#fff"/>
    </g>
  </g>
</svg>
