<svg xmlns="http://www.w3.org/2000/svg" width="55.026" height="77.669" viewBox="0 0 55.026 77.669">
  <g id="Group_14852" data-name="Group 14852" transform="translate(-357 -3954.6)">
    <g id="Group_14847" data-name="Group 14847">
      <path id="Path_50977" data-name="Path 50977" d="M226.815,267.689l-5.008-56.167h55.026L271.82,267.68l-22.534,6.247Z" transform="translate(135.193 3758.342)" fill="#e44d26"/>
      <path id="Path_50978" data-name="Path 50978" d="M441.807,301.283l18.208-5.048,4.284-47.989H441.807Z" transform="translate(-57.294 3726.21)" fill="#f16529"/>
      <path id="Path_50979" data-name="Path 50979" d="M320.957,317.273h-9.115l-.63-7.054h9.745V303.33H303.683l.165,1.848,1.693,18.983h15.415Zm0,17.89-.03.008-7.672-2.072-.491-5.494h-6.915l.965,10.816,14.111,3.917.032-.009Z" transform="translate(63.556 3678.015)" fill="#ebebeb"/>
      <path id="Path_50980" data-name="Path 50980" d="M262.745,89.47h3.5v3.459h3.2V89.47h3.5V99.944h-3.5V96.436h-3.2v3.507h-3.5Zm14.807,3.473h-3.082V89.47h9.666v3.473h-3.083v7h-3.5v-7Zm8.118-3.473h3.65l2.245,3.68,2.243-3.68h3.652V99.944h-3.487V94.752l-2.409,3.724h-.06l-2.41-3.724v5.191h-3.425V89.47Zm13.533,0h3.5v7.012h4.923v3.462H299.2Z" transform="translate(99.375 3865.13)"/>
      <path id="Path_50981" data-name="Path 50981" d="M441.617,317.273v6.888H450.1l-.8,8.934-7.683,2.073v7.167l14.122-3.914.1-1.164,1.619-18.135.168-1.85H441.617Zm0-13.943v6.889h16.639l.138-1.548.314-3.492.165-1.848Z" transform="translate(-57.128 3678.015)" fill="#fff"/>
    </g>
  </g>
</svg>
