<svg xmlns="http://www.w3.org/2000/svg" width="73.576" height="80.394" viewBox="0 0 73.576 80.394">
  <g id="Group_14848" data-name="Group 14848" transform="translate(-636 -3953.599)">
    <g id="phonegap" transform="translate(635.137 3952.738)">
      <path id="Path_50982" data-name="Path 50982" d="M70.8,12.376a7.872,7.872,0,0,0-5.708-7.528S46.134,1.991,37.829.954s-7.791,7.008-7.791,7.008,1.887,58.677,2.082,65.945c.223,8.659,8.305,7.265,8.305,7.265l28.563-4.939c5.194-1.04,5.451-7.525,5.451-7.525S71.066,19.17,70.8,12.376C70.562,6.153,71.066,19.17,70.8,12.376ZM64.411,62.22l-21.238,2.2s-6.185.943-6.324-6.571c-.1-5.537-1.327-37.251-1.327-37.251S35.1,14.783,41.46,15.26c6.5.482,22.061,1.667,22.061,1.667a6,6,0,0,1,4.349,5.741c.2,5.162,1.994,33.826,1.994,33.826S70.334,61.2,64.411,62.22ZM12.418,53.671l-3.924.279a3.528,3.528,0,0,1-4.049-3.795c-.064-3.192-.461-21.308-.461-21.308s-.273-3.352,3.8-3.079c1.032.067,2.495.161,4.111.257-.056-3-.1-5.631-.142-7.63-2.24-.169-4.336-.351-5.834-.509C.538,17.294.867,21.809.867,21.809s.649,33.226.77,37.3c.148,4.856,5.376,4.068,5.376,4.068l5.582-.6c-.048-2.409-.113-5.48-.177-8.908Zm15.605-30.2a4.578,4.578,0,0,0-.2-1.155c-1.718-.139-6.03-1.262-7.413.2-.876.919-.515,2.857-.493,3.958l3.128.177a3.6,3.6,0,0,1,2.782,3.3c.123,2.98.107,19.673.107,19.673s.3,2.723-3.484,3.3l-1.986.148c.011.592.021,1.069.027,1.423.083,4.76,5.146,3.235,8.321,2.927.273-5.049-.212-10.251-.324-15.3-.137-6.215-.188-12.44-.469-18.65-.019-.423.171,3.8,0,0Z" transform="translate(0)"/>
      <path id="Path_50983" data-name="Path 50983" d="M61.15,78.486l-5.722.552s-5.336.766-5.451-5.381c-.083-4.537-.619-30.254-.619-30.254s-.37-4.754,5.105-4.374c1.407.1,3.342.255,5.449.424-.158-4.934-.284-8.825-.349-10.83-2.883-.282-5.6-.565-7.611-.8-7.236-.821-6.78,5.576-6.78,5.576s.86,47.172,1.029,52.937c.2,6.89,7.236,5.783,7.236,5.783l8.1-1.037c-.08-2.682-.217-7.188-.389-12.6Zm11.642-42.11a3.678,3.678,0,0,0-2.993.777,4.006,4.006,0,0,0-.761,3.076c2.87.249,4.952.434,4.952.434a5,5,0,0,1,3.749,4.693c.166,4.226,1.193,27.191,1.193,27.191s.4,3.862-4.7,4.7l-3.859.37c.512,6.032,8.313,3.487,12.3,3.074-.41-9.072-1.68-37.128-1.967-43.715q-3.96-.31-7.922-.595c-.2-.016,2.007.142,0,0Z" transform="translate(-31.484 -19.112)"/>
    </g>
  </g>
</svg>
