<svg xmlns="http://www.w3.org/2000/svg" width="81.164" height="72.217" viewBox="0 0 81.164 72.217">
  <g id="Group_14850" data-name="Group 14850" transform="translate(-1207 -3957.6)">
    <path id="xamarin" d="M23.419,0a6.44,6.44,0,0,0-5.441,3.147L.815,32.961a6.485,6.485,0,0,0,0,6.294L17.978,69.07a6.439,6.439,0,0,0,5.441,3.147H57.745a6.44,6.44,0,0,0,5.441-3.147L80.349,39.255a6.486,6.486,0,0,0,0-6.294L63.186,3.147A6.438,6.438,0,0,0,57.745,0Zm.312,17.442a.728.728,0,0,1,.144,0h5.921a.781.781,0,0,1,.647.384l10.044,17.9a.763.763,0,0,1,.1.289.776.776,0,0,1,.1-.289l10.02-17.9a.783.783,0,0,1,.671-.384h5.921a.809.809,0,0,1,.671,1.129l-9.8,17.538,9.8,17.514a.81.81,0,0,1-.671,1.153H51.368a.783.783,0,0,1-.671-.408l-10.02-17.9a.768.768,0,0,1-.1-.288.77.77,0,0,1-.1.289l-10.044,17.9a.782.782,0,0,1-.647.408H23.874a.81.81,0,0,1-.671-1.153l9.8-17.514L23.2,18.571a.807.807,0,0,1,.527-1.129Z" transform="translate(1207 3957.6)" fill="#3498db"/>
  </g>
</svg>
