<svg xmlns="http://www.w3.org/2000/svg" width="108.026" height="20.055" viewBox="0 0 108.026 20.055">
  <path id="behance-4" d="M9.284,0a9.739,9.739,0,0,1,2.551.283,5.539,5.539,0,0,1,1.984.78,3.277,3.277,0,0,1,1.276,1.489A5.627,5.627,0,0,1,15.52,4.82a3.958,3.958,0,0,1-.709,2.48,5.133,5.133,0,0,1-1.984,1.629,4.739,4.739,0,0,1,2.693,1.843,5.583,5.583,0,0,1,.921,3.118,5.649,5.649,0,0,1-.567,2.551,4.715,4.715,0,0,1-1.559,1.772,7.306,7.306,0,0,1-2.268.992,10.575,10.575,0,0,1-2.551.354H0V0ZM8.717,7.937A3.225,3.225,0,0,0,10.63,7.37,2.066,2.066,0,0,0,11.339,5.6a2.7,2.7,0,0,0-.213-1.134,2.01,2.01,0,0,0-.638-.709A3.56,3.56,0,0,0,9.567,3.4a5.728,5.728,0,0,0-1.134-.071H4.323V7.937H8.717ZM8.929,16.3a6.3,6.3,0,0,0,1.2-.141,2.5,2.5,0,0,0,.992-.426,2.527,2.527,0,0,0,.709-.78,3.388,3.388,0,0,0,.283-1.276,2.733,2.733,0,0,0-.85-2.2A3.738,3.738,0,0,0,9,10.843H4.323V16.3Zm13.677-.071a3.465,3.465,0,0,0,2.551.85,3.875,3.875,0,0,0,2.055-.567,2.835,2.835,0,0,0,1.063-1.276h3.472A6.909,6.909,0,0,1,29.2,18.921a7.57,7.57,0,0,1-4.11,1.135,8.333,8.333,0,0,1-3.047-.568,5.661,5.661,0,0,1-2.268-1.558,5.621,5.621,0,0,1-1.417-2.339,8.335,8.335,0,0,1-.5-3.047,8.21,8.21,0,0,1,.5-2.976,7.638,7.638,0,0,1,1.488-2.409A7.2,7.2,0,0,1,22.111,5.6a7.953,7.953,0,0,1,2.976-.567,6.611,6.611,0,0,1,3.189.709,5.752,5.752,0,0,1,2.2,1.913,8.58,8.58,0,0,1,1.276,2.693,14.868,14.868,0,0,1,.142,3.118H21.614a4.072,4.072,0,0,0,.992,2.764Zm4.465-7.441a3.069,3.069,0,0,0-2.2-.78,3.369,3.369,0,0,0-1.559.354,3.71,3.71,0,0,0-.992.78,1.892,1.892,0,0,0-.5.992,4.869,4.869,0,0,0-.142.921h6.378a3.759,3.759,0,0,0-.992-2.268ZM37.418,0V7.37h.071A4.171,4.171,0,0,1,39.4,5.6a5.359,5.359,0,0,1,2.268-.567,6.372,6.372,0,0,1,2.551.425,3.848,3.848,0,0,1,1.559,1.2A4.832,4.832,0,0,1,46.56,8.5a12.188,12.188,0,0,1,.213,2.409V19.63h-3.9V11.622A4.963,4.963,0,0,0,42.308,9a2.075,2.075,0,0,0-1.913-.85,2.72,2.72,0,0,0-2.268.922,5.2,5.2,0,0,0-.709,3.117V19.63h-3.9V0ZM49.607,7.512a5.219,5.219,0,0,1,1.559-1.489,6.943,6.943,0,0,1,2.126-.78,13.043,13.043,0,0,1,2.339-.213c.709,0,1.417.071,2.2.142a5.85,5.85,0,0,1,1.984.567,4.143,4.143,0,0,1,1.489,1.2A3.542,3.542,0,0,1,61.867,9v7.441a14.986,14.986,0,0,0,.142,1.843,2.971,2.971,0,0,0,.5,1.346H58.536a1.729,1.729,0,0,1-.283-.637,2.413,2.413,0,0,1-.071-.709,5.432,5.432,0,0,1-2.2,1.346,7.928,7.928,0,0,1-2.551.354A5.709,5.709,0,0,1,51.52,19.7a4.608,4.608,0,0,1-1.559-.78A4.082,4.082,0,0,1,48.9,17.576a5.126,5.126,0,0,1-.354-1.914,4.112,4.112,0,0,1,.425-1.984A4.641,4.641,0,0,1,50.032,12.4a5.257,5.257,0,0,1,1.559-.709,13.278,13.278,0,0,1,1.772-.354l1.7-.213q.85-.106,1.488-.213a3.7,3.7,0,0,0,1.063-.5,1.012,1.012,0,0,0,.354-.921,1.877,1.877,0,0,0-.213-.992,2.157,2.157,0,0,0-.567-.567,2.527,2.527,0,0,0-.78-.283,4.316,4.316,0,0,0-.992-.072,2.641,2.641,0,0,0-1.772.5,2.381,2.381,0,0,0-.78,1.63h-3.9a4.226,4.226,0,0,1,.638-2.2Zm7.724,5.528c-.212.071-.5.142-.78.213s-.567.072-.921.142c-.283.071-.637.071-.921.142l-.85.213a1.661,1.661,0,0,0-.709.354,1.91,1.91,0,0,0-.5.567,1.381,1.381,0,0,0-.212.921,1.511,1.511,0,0,0,.213.85,1.9,1.9,0,0,0,.5.567,2.52,2.52,0,0,0,.78.283,3.773,3.773,0,0,0,.921.071,3.894,3.894,0,0,0,1.772-.354,2.847,2.847,0,0,0,.922-.921,2.109,2.109,0,0,0,.354-1.063,4.063,4.063,0,0,0,.071-.85V12.685a2.833,2.833,0,0,1-.639.354ZM67.75,5.386V7.37h.071A4.17,4.17,0,0,1,69.733,5.6a5.988,5.988,0,0,1,2.409-.567,6.372,6.372,0,0,1,2.551.425,3.426,3.426,0,0,1,1.56,1.2A6.328,6.328,0,0,1,77.1,8.5a12.183,12.183,0,0,1,.213,2.409V19.63h-3.9V11.622A4.963,4.963,0,0,0,72.851,9a2.161,2.161,0,0,0-1.984-.921,2.837,2.837,0,0,0-2.339,1.063,5.2,5.2,0,0,0-.709,3.118V19.7h-3.9V5.386ZM86.032,7.937a2.688,2.688,0,0,0-1.558.426A3.268,3.268,0,0,0,83.411,9.5a4.667,4.667,0,0,0-.568,1.488,6.382,6.382,0,0,0-.141,1.631,11.693,11.693,0,0,0,.141,1.558,4.239,4.239,0,0,0,.568,1.417,3.539,3.539,0,0,0,.992,1.063,2.693,2.693,0,0,0,1.558.426,3.187,3.187,0,0,0,2.2-.78,3.283,3.283,0,0,0,.922-2.126h3.756a6.532,6.532,0,0,1-2.2,4.324,7.118,7.118,0,0,1-4.677,1.488,7.583,7.583,0,0,1-2.906-.567,6.306,6.306,0,0,1-2.268-1.488A7.014,7.014,0,0,1,79.3,15.663a7.832,7.832,0,0,1-.5-2.906,8.338,8.338,0,0,1,.5-3.047,7.815,7.815,0,0,1,1.417-2.48A7.4,7.4,0,0,1,82.985,5.6a8.326,8.326,0,0,1,3.047-.567,8.992,8.992,0,0,1,2.409.354,6.181,6.181,0,0,1,2.055.991,4.336,4.336,0,0,1,1.488,1.7,6.007,6.007,0,0,1,.638,2.409H88.795a2.475,2.475,0,0,0-2.763-2.551Zm-65.2-6.591h7.937V3.26H20.835ZM98.718,16.229a3.58,3.58,0,0,0,2.551.85,3.871,3.871,0,0,0,2.055-.567,2.826,2.826,0,0,0,1.063-1.276h3.4a6.91,6.91,0,0,1-2.552,3.685,7.571,7.571,0,0,1-4.11,1.135,8.339,8.339,0,0,1-3.048-.568,5.663,5.663,0,0,1-2.267-1.558,5.621,5.621,0,0,1-1.417-2.339,8.335,8.335,0,0,1-.5-3.047,8.21,8.21,0,0,1,.5-2.976,7.625,7.625,0,0,1,1.488-2.409A7.2,7.2,0,0,1,98.151,5.6a8.237,8.237,0,0,1,2.976-.567,6.153,6.153,0,0,1,3.118.709,5.763,5.763,0,0,1,2.2,1.913,8.58,8.58,0,0,1,1.276,2.693A9.408,9.408,0,0,1,108,13.536H97.725A4.017,4.017,0,0,0,98.718,16.229Zm4.535-7.441a3.071,3.071,0,0,0-2.2-.78,3.373,3.373,0,0,0-1.56.354,2.839,2.839,0,0,0-.991.78,2.623,2.623,0,0,0-.5.992,4.92,4.92,0,0,0-.141.921h6.378a4.844,4.844,0,0,0-.993-2.268Z" fill="#fff"/>
</svg>
