<svg xmlns="http://www.w3.org/2000/svg" width="100.155" height="24.465" viewBox="0 0 100.155 24.465">
  <path id="dribbble-4" d="M30.6,9.844a2.076,2.076,0,1,0-2.075-2.076A2.076,2.076,0,0,0,30.6,9.844Zm68.5,7.093c-.316-.222-.559-.259-.762.172-3.486,7.55-9.36,3.782-8.777,4.114,1.3-.6,4.73-3.344,4.212-7.139a3.533,3.533,0,0,0-4.418-2.98c-3.688.643-5.045,4.621-4.354,8.143a7.428,7.428,0,0,0,.553,1.592c-4.168,3.389-5.823-3.034-6.011-3.8-.007-.041,3.218-2.73,4.115-9.136.94-6.714-1.2-7.937-3.392-7.9-4.053.071-5.148,8.539-3.677,15.6a4.5,4.5,0,0,1-1.618.385c-.663-2.087-3.5-3.916-4.238-3.211-1.856,1.763.45,5.21,2.073,5.48-.975,6-7.071,4.517-5.936-3,1.985-3.686,3.495-9.168,3.225-12.477A2.781,2.781,0,0,0,67.172.11C63.4.259,62.995,8.73,63.437,14.742a3.086,3.086,0,0,1-1.776,1.167c-.365-2.027-3.629-4.062-4.4-3.084-1.438,1.831,1.054,5.1,2.235,5.323-.975,6-7.071,4.517-5.936-3.005,1.985-3.686,3.495-9.168,3.225-12.477A2.781,2.781,0,0,0,53.868,0C50.1.153,49.69,8.624,50.132,14.636a3.088,3.088,0,0,1-1.844,1.187c-.054-2.63-3.33-3.836-4.117-3-1.4,1.5.321,4.565,1.916,5.323-.975,6-7.071,4.517-5.936-3.005,1.985-3.686,3.495-9.168,3.225-12.477A2.781,2.781,0,0,0,40.456,0c-3.768.149-4.071,9.046-3.629,15.058-1.241,5.317-5.4,11.957-4.862-1.344.053-.933.112-1.287-.353-1.637-.349-.272-1.141-.141-1.575-.13-.527.021-.659.329-.775.795A19.728,19.728,0,0,0,28.9,16.7a7.208,7.208,0,0,1-.372,2.106c-.286,1.014-1.919,2.869-2.813,2.559-1.24-.426-.833-3.928-.6-6.333.194-1.9-.426-2.755-2.015-3.065a20.51,20.51,0,0,1-2.464-.469c-.916-.289-1.123-2.021-3.077-1.444-1.069.316-.382,2.58-.638,4.259-1.263,8.255-3.89,8.482-5.109,4.472C17.3,5.343,13.4.043,11.119.043c-2.379,0-5.1,1.638-3.946,12.122a3.7,3.7,0,0,0-1.345-.251C2.361,11.913,0,14.715,0,18.172S2.362,24.43,5.828,24.43A5.459,5.459,0,0,0,10.4,22.06c.71,1.017,1.574,2.386,3.155,2.324C18.265,24.2,19.636,14.536,19.8,14c.5.078.98.225,1.445.3.775.116.831.423.814,1.2-.205,6.573,1.008,8.875,3.759,8.875,1.533,0,2.9-1.506,3.841-2.583a3.986,3.986,0,0,0,3.326,2.583c3.642.091,5.036-5.714,4.909-4.95-.1.6,1.182,4.917,4.931,4.933,4.644.02,5.507-5.088,5.61-5.943.013-.17.019-.153,0,0l0,.052A4.374,4.374,0,0,0,50.664,17.4s1.184,7.035,5.569,6.956c4.554-.083,5.413-4.7,5.525-5.6.015-.214.024-.189,0,0l0,.026a4.877,4.877,0,0,0,2.212-1.277s.941,6.9,5.569,6.956c4.124.054,5.653-4.17,5.662-5.937a6.613,6.613,0,0,0,1.952-.437s1.511,6.029,5.73,6.339c1.981.145,3.467-1.115,4.314-1.689,1.991,1.612,8.619,3.671,12.8-3.425.591-1.018-.679-2.221-.9-2.378ZM5.661,22.09c-2.022,0-3.319-1.87-3.319-3.886s1.19-3.886,3.213-3.886a2.707,2.707,0,0,1,2.125.717c.129.506.493,1.675.67,2.205.237.71.52,1.314.8,1.972A3.57,3.57,0,0,1,5.661,22.09Zm4.928-7c-.084-.134-.067-.052-.161-.178A19.413,19.413,0,0,1,9.26,9.1c-.094-2.892.388-6.282,1.809-6.282.963,0,1.986,6.87-.481,12.276ZM39.062,12.08c-.228-1.716-.24-9.367,1.6-9.156C41.673,3.335,40.016,10.554,39.062,12.08Zm13.411,0c-.228-1.716-.24-9.367,1.6-9.156C55.084,3.335,53.427,10.554,52.474,12.08Zm13.3.107c-.228-1.716-.24-9.367,1.6-9.156C68.389,3.441,66.732,10.661,65.778,12.187Zm14.688-9.71c1.679-.174,1.61,7.159-1.761,11.788-.435-1.673-1.1-11.214,1.761-11.788Zm7.058,15.779c-.539-2.724.854-4.514,2.291-4.71a1.273,1.273,0,0,1,1.375.853c.239,1.146-.035,2.846-3.25,5a4.426,4.426,0,0,1-.416-1.147Z" transform="translate(0 -0.001)" fill="#fff"/>
</svg>
