<svg xmlns="http://www.w3.org/2000/svg" version="1.1" xmlns:xlink="http://www.w3.org/1999/xlink" xmlns:svgjs="http://svgjs.com/svgjs" width="1440" height="780" preserveAspectRatio="none" viewBox="0 0 1440 780"><g mask="url(&quot;#SvgjsMask1000&quot;)" fill="none"><rect width="1440" height="780" x="0" y="0" fill="rgba(0, 0, 72, 1)"></rect><path d="M0,594.339C108.953,604.398,200.787,509.826,277.517,431.824C343.788,364.455,352.843,264.063,403.419,184.235C465.125,86.841,622.388,26.996,606.339,-87.178C590.308,-201.225,426.809,-220.097,336.531,-291.606C266.462,-347.108,219.1,-429.598,135.181,-460.384C48.363,-492.234,-44.859,-476.915,-136.586,-465.17C-244.202,-451.39,-363.008,-456.499,-445.503,-386.031C-531.395,-312.662,-589.022,-196.628,-583.021,-83.826C-577.222,25.19,-478.696,100.892,-414.888,189.473C-363.799,260.397,-308.986,322.403,-246.428,383.45C-167.45,460.52,-109.884,584.194,0,594.339" fill="#000034"></path><path d="M1440 1326.103C1542.575 1317.8110000000001 1637.048 1276.9569999999999 1723.924 1221.7939999999999 1811.189 1166.384 1902.274 1104.598 1940.2559999999999 1008.4590000000001 1977.595 913.9490000000001 1929.848 811.6610000000001 1926.078 710.112 1921.747 593.4639999999999 1994.624 453.838 1916.446 367.157 1837.895 280.062 1690.518 340.185 1574.863 320.697 1476.465 304.117 1382.989 231.692 1287.669 261.20799999999997 1192.542 290.664 1154.229 400.809 1084.995 472.387 1010.674 549.2239999999999 898.561 595.6990000000001 865.727 697.432 831.397 803.801 861.095 921.501 907.181 1023.33 953.363 1125.371 1027.579 1214.877 1124.96 1270.213 1219.605 1323.9940000000001 1331.496 1334.874 1440 1326.103" fill="#00005c"></path></g><defs><mask id="SvgjsMask1000"><rect width="1440" height="780" fill="#ffffff"></rect></mask></defs></svg>