<svg xmlns="http://www.w3.org/2000/svg" version="1.1" xmlns:xlink="http://www.w3.org/1999/xlink" xmlns:svgjs="http://svgjs.com/svgjs" width="1920" height="720" preserveAspectRatio="none" viewBox="0 0 1920 720"><g mask="url(&quot;#SvgjsMask1012&quot;)" fill="none"><rect width="1920" height="720" x="0" y="0" fill="rgba(255, 255, 255, 1)"></rect><path d="M960 1324.25C1225.99 1338.52 1507.06 1283.77 1693.24 1093.24 1877.91 904.27 1929.7 622.74 1902.33 360 1877.56 122.55 1719.45-61.95 1554.79-234.79 1384.21-413.78 1207.2-633.95 960-629.02 714.83-624.09 551.8-394.46 388.58-211.42 238.6-43.22 94.06 135.25 78.11 360 61.06 600.41 138.78 840.76 301.41 1018.59 471.23 1204.25 708.74 1310.79 960 1324.25" fill="rgba(236, 236, 236, 0.13)"></path><path d="M960 1124.75C1170.96 1136.07 1393.87 1092.64 1541.53 941.53 1688 791.66 1729.07 568.38 1707.36 360 1687.72 171.68 1562.32 25.35 1431.73-111.73 1296.44-253.69 1156.05-428.3 960-424.39 765.56-420.48 636.25-238.37 506.81-93.19 387.85 40.21 273.22 181.75 260.57 360 247.05 550.67 308.69 741.29 437.67 882.33 572.36 1029.58 760.73 1114.08 960 1124.75" fill="rgba(255, 255, 255, 1)"></path><path d="M960 925.25C1115.92 933.61 1280.69 901.52 1389.83 789.83 1498.08 679.06 1528.45 514.02 1512.4 360 1497.88 220.8 1405.2 112.65 1308.67 11.33 1208.68-93.59 1104.91-222.66 960-219.77 816.28-216.88 720.71-82.27 625.03 25.03 537.11 123.63 452.38 228.25 443.03 360 433.03 500.93 478.59 641.83 573.93 746.07 673.48 854.9 812.71 917.36 960 925.25" fill="rgba(236, 236, 236, 0.15)"></path><path d="M960 725.75C1060.89 731.16 1167.5 710.39 1238.12 638.12 1308.17 566.45 1327.82 459.66 1317.43 360 1308.04 269.93 1248.07 199.95 1185.61 134.39 1120.91 66.5 1053.76-17.01 960-15.14 867.01-13.27 805.16 73.82 743.26 143.26 686.36 207.06 631.54 274.75 625.49 360 619.02 451.19 648.5 542.36 710.19 609.81 774.61 680.23 864.7 720.65 960 725.75" fill="rgba(255, 255, 255, 1)"></path><path d="M960 526.25C1005.86 528.71 1054.32 519.27 1086.42 486.42 1118.26 453.84 1127.19 405.3 1122.47 360 1118.2 319.06 1090.94 287.25 1062.55 257.45 1033.14 226.59 1002.62 188.63 960 189.48 917.73 190.33 889.62 229.92 861.48 261.48 835.62 290.48 810.7 321.25 807.95 360 805.01 401.45 818.41 442.89 846.45 473.55 875.73 505.56 916.68 523.93 960 526.25" fill="rgba(236, 236, 236, 0.13)"></path></g><defs><mask id="SvgjsMask1012"><rect width="1920" height="720" fill="#ffffff"></rect></mask></defs></svg>